<?xml version="1.0" encoding="UTF-8"?>
<svg id="Layer_1" xmlns="http://www.w3.org/2000/svg" width="1.3in" height="2.4in" version="1.1" viewBox="0 0 93.6 172.8">
  <!-- Generator: Adobe Illustrator 29.1.0, SVG Export Plug-In . SVG Version: 2.1.0 Build 142)  -->
  <path d="M7.2000122,7.1999969v155.9055176h79.3700562V7.1999969H7.2000122ZM80.1920776,8.6172943c1.9569702,0,3.543335,1.5864258,3.543335,3.543335s-1.5863647,3.5432739-3.543335,3.5432739c-1.9569092,0-3.5432739-1.5863647-3.5432739-3.5432739s1.5863647-3.543335,3.5432739-3.543335ZM10.8850098,18.7687836c.8748169,0,1.5839844.7091675,1.5839844,1.5839844s-.7091675,1.5839844-1.5839844,1.5839844-1.5839844-.7091675-1.5839844-1.5839844.7091675-1.5839844,1.5839844-1.5839844ZM10.8850098,25.9687347c.8748169,0,1.5839844.7092285,1.5839844,1.5840454s-.7091675,1.5839844-1.5839844,1.5839844-1.5839844-.7091675-1.5839844-1.5839844.7091675-1.5840454,1.5839844-1.5840454ZM10.8850098,33.1687469c.8748169,0,1.5839844.7091675,1.5839844,1.5839844s-.7091675,1.5840454-1.5839844,1.5840454-1.5839844-.7092285-1.5839844-1.5840454.7091675-1.5839844,1.5839844-1.5839844ZM10.8850098,40.3687592c.8748169,0,1.5839844.7091675,1.5839844,1.5839844s-.7091675,1.5839844-1.5839844,1.5839844-1.5839844-.7091675-1.5839844-1.5839844.7091675-1.5839844,1.5839844-1.5839844ZM10.8850098,47.5687714c.8748169,0,1.5839844.7091675,1.5839844,1.5839844s-.7091675,1.5839844-1.5839844,1.5839844-1.5839844-.7091675-1.5839844-1.5839844.7091675-1.5839844,1.5839844-1.5839844ZM10.8850098,54.7687836c.8748169,0,1.5839844.7091675,1.5839844,1.5839844s-.7091675,1.5839844-1.5839844,1.5839844-1.5839844-.7091675-1.5839844-1.5839844.7091675-1.5839844,1.5839844-1.5839844ZM10.8850098,61.9687347c.8748169,0,1.5839844.7092285,1.5839844,1.5840454s-.7091675,1.5839844-1.5839844,1.5839844-1.5839844-.7091675-1.5839844-1.5839844.7091675-1.5840454,1.5839844-1.5840454ZM10.8850098,69.1687469c.8748169,0,1.5839844.7091675,1.5839844,1.5839844s-.7091675,1.5840454-1.5839844,1.5840454-1.5839844-.7092285-1.5839844-1.5840454.7091675-1.5839844,1.5839844-1.5839844ZM10.8850098,76.3687592c.8748169,0,1.5839844.7091675,1.5839844,1.5839844s-.7091675,1.5839844-1.5839844,1.5839844-1.5839844-.7091675-1.5839844-1.5839844.7091675-1.5839844,1.5839844-1.5839844ZM10.8850098,83.5687714c.8748169,0,1.5839844.7091675,1.5839844,1.5839844s-.7091675,1.5839844-1.5839844,1.5839844-1.5839844-.7091675-1.5839844-1.5839844.7091675-1.5839844,1.5839844-1.5839844ZM10.8850098,90.7687836c.8748169,0,1.5839844.7091675,1.5839844,1.5839844s-.7091675,1.5839844-1.5839844,1.5839844-1.5839844-.7091675-1.5839844-1.5839844.7091675-1.5839844,1.5839844-1.5839844ZM10.8850098,97.9687347c.8748169,0,1.5839844.7092285,1.5839844,1.5840454s-.7091675,1.5839844-1.5839844,1.5839844-1.5839844-.7091675-1.5839844-1.5839844.7091675-1.5840454,1.5839844-1.5840454ZM10.8850098,105.1687469c.8748169,0,1.5839844.7091675,1.5839844,1.5839844s-.7091675,1.5840454-1.5839844,1.5840454-1.5839844-.7092285-1.5839844-1.5840454.7091675-1.5839844,1.5839844-1.5839844ZM10.8850098,112.3687592c.8748169,0,1.5839844.7091675,1.5839844,1.5839844s-.7091675,1.5839844-1.5839844,1.5839844-1.5839844-.7091675-1.5839844-1.5839844.7091675-1.5839844,1.5839844-1.5839844ZM10.8850098,119.5687714c.8748169,0,1.5839844.7091675,1.5839844,1.5839844s-.7091675,1.5839844-1.5839844,1.5839844-1.5839844-.7091675-1.5839844-1.5839844.7091675-1.5839844,1.5839844-1.5839844ZM10.8850098,126.7687836c.8748169,0,1.5839844.7091675,1.5839844,1.5839844s-.7091675,1.5839844-1.5839844,1.5839844-1.5839844-.7091675-1.5839844-1.5839844.7091675-1.5839844,1.5839844-1.5839844ZM10.8850098,133.9687347c.8748169,0,1.5839844.7092285,1.5839844,1.5840454s-.7091675,1.5839844-1.5839844,1.5839844-1.5839844-.7091675-1.5839844-1.5839844.7091675-1.5840454,1.5839844-1.5840454ZM10.8850098,141.1687469c.8748169,0,1.5839844.7091675,1.5839844,1.5839844s-.7091675,1.5840454-1.5839844,1.5840454-1.5839844-.7092285-1.5839844-1.5840454.7091675-1.5839844,1.5839844-1.5839844ZM9.3010254,149.9527435c0-.8748169.7091675-1.5839844,1.5839844-1.5839844s1.5839844.7091675,1.5839844,1.5839844-.7091675,1.5839844-1.5839844,1.5839844-1.5839844-.7091675-1.5839844-1.5839844ZM13.5779419,161.6881561c-1.9569092,0-3.5432739-1.5863647-3.5432739-3.5432739s1.5863647-3.543335,3.5432739-3.543335,3.5432739,1.5864258,3.5432739,3.543335-1.5863647,3.5432739-3.5432739,3.5432739ZM13.5779419,15.7039032c-1.9569092,0-3.5432739-1.5863647-3.5432739-3.5432739s1.5863647-3.543335,3.5432739-3.543335,3.5432739,1.5864258,3.5432739,3.543335-1.5863647,3.5432739-3.5432739,3.5432739ZM80.1920776,161.6881561c-1.9569092,0-3.5432739-1.5863647-3.5432739-3.5432739s1.5863647-3.543335,3.5432739-3.543335c1.9569702,0,3.543335,1.5864258,3.543335,3.543335s-1.5863647,3.5432739-3.543335,3.5432739ZM82.8850098,151.5367279c-.8748169,0-1.5839844-.7091675-1.5839844-1.5839844s.7091675-1.5839844,1.5839844-1.5839844,1.5839844.7091675,1.5839844,1.5839844-.7091675,1.5839844-1.5839844,1.5839844ZM82.8850098,144.3367767c-.8748169,0-1.5839844-.7092285-1.5839844-1.5840454s.7091675-1.5839844,1.5839844-1.5839844,1.5839844.7091675,1.5839844,1.5839844-.7091675,1.5840454-1.5839844,1.5840454ZM82.8850098,137.1367645c-.8748169,0-1.5839844-.7091675-1.5839844-1.5839844s.7091675-1.5840454,1.5839844-1.5840454,1.5839844.7092285,1.5839844,1.5840454-.7091675,1.5839844-1.5839844,1.5839844ZM82.8850098,129.9367523c-.8748169,0-1.5839844-.7091675-1.5839844-1.5839844s.7091675-1.5839844,1.5839844-1.5839844,1.5839844.7091675,1.5839844,1.5839844-.7091675,1.5839844-1.5839844,1.5839844ZM82.8850098,122.7367401c-.8748169,0-1.5839844-.7091675-1.5839844-1.5839844s.7091675-1.5839844,1.5839844-1.5839844,1.5839844.7091675,1.5839844,1.5839844-.7091675,1.5839844-1.5839844,1.5839844ZM82.8850098,115.5367279c-.8748169,0-1.5839844-.7091675-1.5839844-1.5839844s.7091675-1.5839844,1.5839844-1.5839844,1.5839844.7091675,1.5839844,1.5839844-.7091675,1.5839844-1.5839844,1.5839844ZM82.8850098,108.3367767c-.8748169,0-1.5839844-.7092285-1.5839844-1.5840454s.7091675-1.5839844,1.5839844-1.5839844,1.5839844.7091675,1.5839844,1.5839844-.7091675,1.5840454-1.5839844,1.5840454ZM82.8850098,101.1367645c-.8748169,0-1.5839844-.7091675-1.5839844-1.5839844s.7091675-1.5840454,1.5839844-1.5840454,1.5839844.7092285,1.5839844,1.5840454-.7091675,1.5839844-1.5839844,1.5839844ZM82.8850098,93.9367523c-.8748169,0-1.5839844-.7091675-1.5839844-1.5839844s.7091675-1.5839844,1.5839844-1.5839844,1.5839844.7091675,1.5839844,1.5839844-.7091675,1.5839844-1.5839844,1.5839844ZM82.8850098,86.7367401c-.8748169,0-1.5839844-.7091675-1.5839844-1.5839844s.7091675-1.5839844,1.5839844-1.5839844,1.5839844.7091675,1.5839844,1.5839844-.7091675,1.5839844-1.5839844,1.5839844ZM82.8850098,79.5367279c-.8748169,0-1.5839844-.7091675-1.5839844-1.5839844s.7091675-1.5839844,1.5839844-1.5839844,1.5839844.7091675,1.5839844,1.5839844-.7091675,1.5839844-1.5839844,1.5839844ZM82.8850098,72.3367767c-.8748169,0-1.5839844-.7092285-1.5839844-1.5840454s.7091675-1.5839844,1.5839844-1.5839844,1.5839844.7091675,1.5839844,1.5839844-.7091675,1.5840454-1.5839844,1.5840454ZM82.8850098,65.1367645c-.8748169,0-1.5839844-.7091675-1.5839844-1.5839844s.7091675-1.5840454,1.5839844-1.5840454,1.5839844.7092285,1.5839844,1.5840454-.7091675,1.5839844-1.5839844,1.5839844ZM82.8850098,57.9367523c-.8748169,0-1.5839844-.7091675-1.5839844-1.5839844s.7091675-1.5839844,1.5839844-1.5839844,1.5839844.7091675,1.5839844,1.5839844-.7091675,1.5839844-1.5839844,1.5839844ZM82.8850098,50.7367401c-.8748169,0-1.5839844-.7091675-1.5839844-1.5839844s.7091675-1.5839844,1.5839844-1.5839844,1.5839844.7091675,1.5839844,1.5839844-.7091675,1.5839844-1.5839844,1.5839844ZM82.8850098,43.5367279c-.8748169,0-1.5839844-.7091675-1.5839844-1.5839844s.7091675-1.5839844,1.5839844-1.5839844,1.5839844.7091675,1.5839844,1.5839844-.7091675,1.5839844-1.5839844,1.5839844ZM82.8850098,36.3367767c-.8748169,0-1.5839844-.7092285-1.5839844-1.5840454s.7091675-1.5839844,1.5839844-1.5839844,1.5839844.7091675,1.5839844,1.5839844-.7091675,1.5840454-1.5839844,1.5840454ZM82.8850098,29.1367645c-.8748169,0-1.5839844-.7091675-1.5839844-1.5839844s.7091675-1.5840454,1.5839844-1.5840454,1.5839844.7092285,1.5839844,1.5840454-.7091675,1.5839844-1.5839844,1.5839844ZM82.8850098,21.9367523c-.8748169,0-1.5839844-.7091675-1.5839844-1.5839844s.7091675-1.5839844,1.5839844-1.5839844,1.5839844.7091675,1.5839844,1.5839844-.7091675,1.5839844-1.5839844,1.5839844Z" fill="#3f3f3f"/>
  <rect x="24.4539308" y="7.2" width="44.5932578" height="65.6539382"/>
  <line x1="30.6831439" y1="68.6022496" x2="62.9168542" y2="68.6022496" fill="none" stroke="#aaa" stroke-miterlimit="3.9550564" stroke-width=".9887641"/>
  <g id="boardComponents">
    <g id="Flash_Button">
      <rect x="60.8404511" y="145.626975" width="6.0314595" height="3.0651748" fill="#8c8c8c"/>
      <rect x="60.8404511" y="157.8876439" width="6.0314595" height="3.0651748" fill="#8c8c8c"/>
      <path d="M67.7617998,157.195512v-7.9101129c-.2966285,0-.4943821-.2966322-.4943821-.5932645h0v-1.4831462h-1.1865177c0,.3954996-.2966285.7910143-.6921356.7910143s-.6921356-.2966322-.6921356-.7910143h-1.6808997c0,.3954996-.2966285.7910143-.6921356.7910143s-.6921356-.2966322-.6921356-.7910143h-1.1865177v1.4831462c0,.2966322-.1977536.5932645-.4943821.5932645v7.9101129c.2966285,0,.4943821.2966322.4943821.5932645v1.4831462h1.1865177c0-.3954996.2966285-.7910143.6921356-.7910143s.6921356.2966322.6921356.7910143h1.6808997c0-.3954996.2966285-.7910143.6921356-.7910143s.6921356.2966322.6921356.7910143h1.1865177v-1.5820286h0c0-.1977498.1977536-.4943821.4943821-.4943821Z" fill="#ccc" stroke="#000" stroke-miterlimit="3.9550564" stroke-width=".1977528"/>
      <circle cx="63.9056183" cy="153.2404556" r="2.669662" fill="#3f3f3f" stroke="#000" stroke-miterlimit="3.9550564" stroke-width=".2966292"/>
    </g>
    <g isolation="isolate">
      <text transform="translate(58.763916 143.8469238)" fill="#ccc" font-family="OCRA" font-size="3.2629216" isolation="isolate"><tspan x="0" y="0">F</tspan></text>
    </g>
    <g isolation="isolate">
      <text transform="translate(60.8405762 143.8469238)" fill="#ccc" font-family="OCRA" font-size="3.2629216" isolation="isolate"><tspan x="0" y="0">L</tspan></text>
    </g>
    <g isolation="isolate">
      <text transform="translate(62.8181152 143.8469238)" fill="#ccc" font-family="OCRA" font-size="3.2629216" isolation="isolate"><tspan x="0" y="0">A</tspan></text>
    </g>
    <g isolation="isolate">
      <text transform="translate(64.8942871 143.8469238)" fill="#ccc" font-family="OCRA" font-size="3.2629216" isolation="isolate"><tspan x="0" y="0">S</tspan></text>
    </g>
    <g isolation="isolate">
      <text transform="translate(66.9709473 143.8469238)" fill="#ccc" font-family="OCRA" font-size="3.2629216" isolation="isolate"><tspan x="0" y="0">H</tspan></text>
    </g>
    <g id="USB">
      <path d="M37.9999979,158.7775407c0,.8898817-.5932588,1.5820286-1.3842694,1.5820286s-1.3842694-.6921319-1.3842694-1.5820286v-2.4719103c0-.8898817.5932588-1.5820286,1.3842694-1.5820286s1.3842694.6921319,1.3842694,1.5820286v2.4719103Z" fill="#aaa"/>
      <path d="M58.2696621,158.7775407c0,.8898817-.593257,1.5820286-1.3842713,1.5820286s-1.3842713-.6921319-1.3842713-1.5820286v-2.4719103c0-.8898817.593257-1.5820286,1.3842713-1.5820286s1.3842713.6921319,1.3842713,1.5820286v2.4719103Z" fill="#aaa"/>
      <circle cx="39.7797721" cy="149.7797812" r="2.0764071" fill="#8c8c8c"/>
      <circle cx="53.8202237" cy="149.7797812" r="2.0764069" fill="#8c8c8c"/>
      <g>
        <rect x="42.5483151" y="147.7033857" width=".8898892" height="2.5707927" fill="#aaa"/>
        <rect x="44.4269646" y="147.7033857" width=".8898892" height="2.5707927" fill="#aaa"/>
        <rect x="46.4044928" y="147.7033857" width=".8898892" height="2.5707927" fill="#aaa"/>
        <rect x="48.2831462" y="147.7033857" width=".8898892" height="2.5707927" fill="#aaa"/>
        <rect x="50.1617957" y="147.7033857" width=".8898892" height="2.5707927" fill="#aaa"/>
      </g>
      <path d="M57.0831445,165.3033747c0,.1977498-.0988749.2966322-.2966285.2966322h-20.0719106c-.1977536,0-.2966285-.0988824-.2966285-.2966322v-14.7325792c0-.1977498.0988768-.2966322.2966285-.2966322h20.0719106c.1977536,0,.2966285.0988824.2966285.2966322v14.7325792Z" fill="#ccc" stroke="#ccc" stroke-miterlimit="3.9550564" stroke-width=".4943821"/>
      <path d="M39.8786512,150.2741633v2.0764107c0,.0988824.0988749.1977498.2966285.1977498h1.3842713c.1977536,0,.2966285-.0988824.2966285-.1977498v-2.0764107" fill="#8c8c8c"/>
      <path d="M51.6449419,150.2741633v2.0764107c0,.0988824.0988749.1977498.2966285.1977498h1.3842713c.1977536,0,.2966285-.0988824.2966285-.1977498v-2.0764107" fill="#8c8c8c"/>
      <path d="M41.0651689,160.5573191h-.1977536v-2.4719103c0-.1977498-.0988749-.2966322-.2966285-.2966322h-1.3842713c-.1977536,0-.2966285.0988824-.2966285.2966322v2.4719103h-.1977536c-.1977536,0-.2966285.0988824-.2966285.2966322v1.0876466c0,.1977498.0988768.2966322.2966285.2966322h2.1752818c.1977536,0,.2966285-.0988824.2966285-.2966322v-1.0876466c0-.1977498-.0988749-.2966322-.2966285-.2966322h.1977536Z" fill="#8c8c8c"/>
      <path d="M40.8674154,163.2269791c0,.1977498-.0988749.2966322-.2966285.2966322h-1.3842713c-.1977536,0-.2966285-.0988824-.2966285-.2966322v-.5932645c0-.1977498.0988768-.2966322.2966285-.2966322h1.3842713c.1977536,0,.2966285.0988824.2966285.2966322v.5932645Z" fill="#e5e5e5"/>
      <path d="M54.8089878,160.5573191h-.1977536v-2.4719103c0-.1977498-.0988749-.2966322-.2966285-.2966322h-1.3842713c-.1977536,0-.2966285.0988824-.2966285.2966322v2.4719103h-.1977536c-.1977536,0-.2966285.0988824-.2966285.2966322v1.0876466c0,.1977498.0988749.2966322.2966285.2966322h2.1752856c.1977536,0,.2966285-.0988824.2966285-.2966322v-1.0876466c0-.1977498-.0988749-.2966322-.2966285-.2966322h.1977498Z" fill="#8c8c8c"/>
      <path d="M54.6112342,163.2269791c0,.1977498-.0988749.2966322-.2966285.2966322h-1.3842713c-.1977536,0-.2966285-.0988824-.2966285-.2966322v-.5932645c0-.1977498.0988749-.2966322.2966285-.2966322h1.3842713c.1977536,0,.2966285.0988824.2966285.2966322v.5932645Z" fill="#e5e5e5"/>
      <g>
        <line x1="36.5168518" y1="150.2741633" x2="36.5168518" y2="165.600007" fill="none" stroke="#828282" stroke-linecap="round" stroke-miterlimit="3.9550564" stroke-width=".4943821"/>
        <line x1="36.8134821" y1="150.2741633" x2="36.8134821" y2="165.600007" fill="none" stroke="#aaa" stroke-linecap="round" stroke-miterlimit="3.9550564" stroke-width=".4943821"/>
        <line x1="57.0831445" y1="150.2741633" x2="57.0831445" y2="165.600007" fill="none" stroke="#828282" stroke-linecap="round" stroke-miterlimit="3.9550564" stroke-width=".4943821"/>
        <line x1="56.786516" y1="150.2741633" x2="56.786516" y2="165.600007" fill="none" stroke="#aaa" stroke-linecap="round" stroke-miterlimit="3.9550564" stroke-width=".4943821"/>
      </g>
    </g>
    <g id="RST_Button">
      <rect x="26.6292107" y="145.626975" width="6.0314614" height="3.0651748" fill="#8c8c8c"/>
      <rect x="26.6292107" y="157.8876439" width="6.0314614" height="3.0651748" fill="#8c8c8c"/>
      <path d="M33.6494362,157.195512v-7.9101129c-.2966285,0-.4943821-.2966322-.4943821-.5932645h0v-1.4831462h-1.1865177c0,.3954996-.2966285.7910143-.6921356.7910143s-.6921356-.2966322-.6921356-.7910143h-1.6808997c0,.3954996-.2966285.7910143-.6921356.7910143s-.6921356-.2966322-.6921356-.7910143h-1.1865177v1.4831462c0,.2966322-.1977536.5932645-.4943821.5932645v7.9101129c.2966285,0,.4943821.2966322.4943821.5932645v1.4831462h1.1865177c0-.3954996.2966285-.7910143.6921356-.7910143s.6921356.2966322.6921356.7910143h1.6808997c0-.3954996.2966285-.7910143.6921356-.7910143s.6921356.2966322.6921356.7910143h1.1865177v-1.5820286h0c0-.1977498.1977536-.4943821.4943821-.4943821Z" fill="#ccc" stroke="#000" stroke-miterlimit="3.9550564" stroke-width=".1977528"/>
      <circle cx="29.6943798" cy="153.2404556" r="2.669662" fill="#3f3f3f" stroke="#000" stroke-miterlimit="3.9550564" stroke-width=".2966292"/>
    </g>
    <g isolation="isolate">
      <text transform="translate(26.6291504 143.8469238)" fill="#ccc" font-family="OCRA" font-size="3.2629216" isolation="isolate"><tspan x="0" y="0">R</tspan></text>
    </g>
    <g isolation="isolate">
      <text transform="translate(28.7058105 143.8469238)" fill="#ccc" font-family="OCRA" font-size="3.2629216" isolation="isolate"><tspan x="0" y="0">S</tspan></text>
    </g>
    <g isolation="isolate">
      <text transform="translate(30.6833496 143.8469238)" fill="#ccc" font-family="OCRA" font-size="3.2629216" isolation="isolate"><tspan x="0" y="0">T</tspan></text>
    </g>
    <g id="J3Y">
      <g>
        <rect x="65.8831465" y="112.4045025" width="2.7685387" height="2.7685425" fill="#8c8c8c"/>
        <rect x="63.2134827" y="106.1752856" width="2.7685387" height="2.7685425" fill="#8c8c8c"/>
        <rect x="68.5528104" y="106.1752856" width="2.7685387" height="2.7685425" fill="#8c8c8c"/>
      </g>
      <rect x="64.0044932" y="106.867425" width="1.087639" height="2.2741605" fill="#aaa"/>
      <rect x="64.0044932" y="107.955064" width="1.087639" height=".593257" fill="#828282"/>
      <rect x="69.3438209" y="106.867425" width="1.087639" height="2.2741605" fill="#aaa"/>
      <rect x="69.3438209" y="107.955064" width="1.087639" height=".593257" fill="#828282"/>
      <rect x="66.674157" y="112.2067452" width="1.087639" height="2.2741605" fill="#aaa"/>
      <rect x="66.674157" y="112.8000097" width="1.087639" height=".593257" fill="#828282"/>
      <rect x="63.5101111" y="109.1415779" width="7.6134806" height="3.0651672"/>
      <g isolation="isolate">
        <text transform="translate(69.4421387 110.0319824) rotate(-180)" fill="#aaa" font-family="OCRA" font-size="1.9775282" isolation="isolate"><tspan x="0" y="0">J3Y</tspan></text>
      </g>
    </g>
    <g id="CP2102">
      <rect x="43.3393256" y="107.2629246" width="14.0404511" height="14.0404473"/>
      <g>
        <rect x="57.3797767" y="118.0404549" width=".593257" height=".8898892" fill="#9a916c"/>
        <rect x="57.3797767" y="116.6561837" width=".593257" height=".8898892" fill="#9a916c"/>
        <rect x="57.3797767" y="115.1730375" width=".593257" height=".8898892" fill="#9a916c"/>
        <rect x="57.3797767" y="113.7887738" width=".593257" height=".7910143" fill="#9a916c"/>
        <rect x="57.3797767" y="112.4045025" width=".593257" height=".8898892" fill="#9a916c"/>
        <rect x="57.3797767" y="110.9213564" width=".593257" height=".8898892" fill="#9a916c"/>
        <rect x="57.3797767" y="109.5370851" width=".593257" height=".8898892" fill="#9a916c"/>
        <rect x="42.8449436" y="118.0404549" width=".593257" height=".8898892" fill="#9a916c"/>
        <rect x="42.8449436" y="116.6561837" width=".593257" height=".8898892" fill="#9a916c"/>
        <rect x="42.8449436" y="115.1730375" width=".593257" height=".8898892" fill="#9a916c"/>
        <rect x="42.8449436" y="113.7887738" width=".593257" height=".7910143" fill="#9a916c"/>
        <rect x="42.8449436" y="112.4045025" width=".593257" height=".8898892" fill="#9a916c"/>
        <rect x="42.8449436" y="110.9213564" width=".593257" height=".8898892" fill="#9a916c"/>
        <rect x="42.8449436" y="109.5370851" width=".593257" height=".8898892" fill="#9a916c"/>
        <rect x="45.8112359" y="121.3033795" width=".8898892" height=".593257" fill="#9a916c"/>
        <rect x="47.1955034" y="121.3033795" width=".8898892" height=".593257" fill="#9a916c"/>
        <rect x="48.5797746" y="121.3033795" width=".8898892" height=".593257" fill="#9a916c"/>
        <rect x="50.0629208" y="121.3033795" width=".8898892" height=".593257" fill="#9a916c"/>
        <rect x="51.4471921" y="121.3033795" width=".8898892" height=".593257" fill="#9a916c"/>
        <rect x="52.8314595" y="121.3033795" width=".8898892" height=".593257" fill="#9a916c"/>
        <rect x="54.3146057" y="121.3033795" width=".8898892" height=".593257" fill="#9a916c"/>
        <rect x="45.8112359" y="106.6696677" width=".8898892" height=".593257" fill="#9a916c"/>
        <rect x="47.1955034" y="106.6696677" width=".8898892" height=".593257" fill="#9a916c"/>
        <rect x="48.5797746" y="106.6696677" width=".8898892" height=".593257" fill="#9a916c"/>
        <rect x="50.0629208" y="106.6696677" width=".8898892" height=".593257" fill="#9a916c"/>
        <rect x="51.4471921" y="106.6696677" width=".8898892" height=".593257" fill="#9a916c"/>
        <rect x="52.8314595" y="106.6696677" width=".8898892" height=".593257" fill="#9a916c"/>
        <rect x="54.3146057" y="106.6696677" width=".8898892" height=".593257" fill="#9a916c"/>
      </g>
      <g isolation="isolate">
        <text transform="translate(53.5231934 110.427002) rotate(90)" fill="#aaa" font-family="OCRA" font-size="2.175281" isolation="isolate"><tspan x="0" y="0">SILABS</tspan></text>
      </g>
      <g isolation="isolate">
        <text transform="translate(50.854248 110.427002) rotate(90)" fill="#aaa" font-family="OCRA" font-size="2.175281" isolation="isolate"><tspan x="0" y="0">CP2102</tspan></text>
      </g>
      <g isolation="isolate">
        <text transform="translate(48.1843262 110.427002) rotate(90)" fill="#aaa" font-family="OCRA" font-size="2.175281" isolation="isolate"><tspan x="0" y="0">DCL00X</tspan></text>
      </g>
      <g isolation="isolate">
        <text transform="translate(45.5144043 111.2180176) rotate(90)" fill="#aaa" font-family="OCRA" font-size="2.175281" isolation="isolate"><tspan x="0" y="0">1708*</tspan></text>
      </g>
      <circle cx="55.5011234" cy="109.2404528" r=".593257" fill="#444"/>
    </g>
    <g id="C9">
      <path d="M38.3955051,112.8000097s.1977536,0,.1977536.1977498v1.1865139s0,.1977498-.1977536.1977498h-1.1865177s-.1977536,0-.1977536-.1977498v-1.1865139s0-.1977498.1977536-.1977498h1.1865177Z" fill="#8c8c8c"/>
      <path d="M38.3955051,115.6674195s.1977536,0,.1977536.1977498v1.1865139s0,.1977498-.1977536.1977498h-1.1865177s-.1977536,0-.1977536-.1977498v-1.1865139s0-.1977498.1977536-.1977498h1.1865177Z" fill="#8c8c8c"/>
      <rect x="37.2089874" y="113.7887738" width="1.2853926" height="2.5707852" fill="#aaa"/>
      <rect x="37.2089874" y="114.1842734" width="1.2853926" height="1.680896" fill="#724527"/>
    </g>
    <g id="C8">
      <path d="M33.6494362,113.2943917s.0988768,0,.0988768.0988749v.9887641s0,.0988749-.0988768.0988749h-.9887641s-.0988768,0-.0988768-.0988749v-.9887641s0-.0988749.0988768-.0988749h.9887641Z" fill="#8c8c8c"/>
      <path d="M33.6494362,115.5685446s.0988768,0,.0988768.0988749v.9887641s0,.0988749-.0988768.0988749h-.9887641s-.0988768,0-.0988768-.0988749v-.9887641s0-.0988749.0988768-.0988749h.9887641Z" fill="#8c8c8c"/>
      <rect x="32.6606721" y="113.9865236" width=".9887641" height="2.0764031" fill="#aaa"/>
      <rect x="32.6606721" y="114.3820307" width=".9887641" height="1.3842713" fill="#724527"/>
    </g>
    <g id="S4">
      <path d="M27.6179748,110.3280994c.1977536,0,.3955053.1977498.3955053.3955072v2.8674174c0,.1977498-.1977536.3955072-.3955053.3955072h-2.9662923c-.1977536,0-.3955053-.1977498-.3955053-.3955072v-2.8674174c0-.1977498.1977536-.3955072.3955053-.3955072h2.9662923Z" fill="#8c8c8c"/>
      <path d="M27.6179748,113.8876487c.1977536,0,.3955053.1977498.3955053.3955072v2.8674174c0,.1977498-.1977536.3955072-.3955053.3955072h-2.9662923c-.1977536,0-.3955053-.1977498-.3955053-.3955072v-2.8674174c0-.1977498.1977536-.3955072.3955053-.3955072h2.9662923Z" fill="#8c8c8c"/>
      <rect x="24.6516825" y="110.8224815" width="3.1640459" height="6.3280918" fill="#aaa"/>
      <rect x="24.6516825" y="111.9101205" width="3.1640459" height="4.1528062"/>
      <g>
        <line x1="24.6516825" y1="115.766302" x2="27.7168516" y2="115.766302" fill="none" stroke="#3f3f3f" stroke-miterlimit="3.9550564" stroke-width=".1977528"/>
        <line x1="24.6516825" y1="115.3707948" x2="27.7168516" y2="115.3707948" fill="none" stroke="#3f3f3f" stroke-miterlimit="3.9550564" stroke-width=".1977528"/>
        <line x1="24.6516825" y1="115.0741626" x2="27.7168516" y2="115.0741626" fill="none" stroke="#3f3f3f" stroke-miterlimit="3.9550564" stroke-width=".1977528"/>
      </g>
      <g isolation="isolate">
        <text transform="translate(26.8269043 114.7770996) rotate(-90)" fill="#3f3f3f" font-family="OCRA" font-size="1.9775282" isolation="isolate"><tspan x="0" y="0">S</tspan></text>
      </g>
      <g isolation="isolate">
        <text transform="translate(26.8269043 113.5905762) rotate(-90)" fill="#3f3f3f" font-family="OCRA" font-size="1.9775282" isolation="isolate"><tspan x="0" y="0">4</tspan></text>
      </g>
    </g>
    <g id="LED">
      <path d="M32.2651669,106.1752856c0-.1977498.1977536-.2966322.2966285-.2966322h2.3730335c.1977536,0,.2966285.1977498.2966285.2966322v2.3730354c0,.1977498-.1977536.2966322-.2966285.2966322h-2.3730335c-.1977536,0-.2966285-.0988749-.2966285-.2966322v-2.3730354Z" fill="#8c8c8c"/>
      <path d="M36.1213465,106.1752856c0-.1977498.1977536-.2966322.2966285-.2966322h2.3730335c.1977536,0,.2966285.1977498.2966285.2966322v2.3730354c0,.1977498-.1977536.2966322-.2966285.2966322h-2.3730335c-.1977536,0-.2966285-.0988749-.2966285-.2966322v-2.3730354Z" fill="#8c8c8c"/>
      <rect x="33.1550542" y="106.0764107" width="5.1415722" height="2.5707852" fill="#aaa"/>
      <rect x="34.1438183" y="106.0764107" width="3.0651691" height="2.5707852" fill="#fff"/>
    </g>
    <g id="R13">
      <path d="M70.1348314,97.5730409c.0988749,0,.1977536,0,.1977536.1977498v1.2853964c0,.0988749,0,.1977498-.1977536.1977498h-1.2853926c-.0988749,0-.1977536,0-.1977536-.1977498v-1.2853964c0-.0988749,0-.1977498.1977536-.1977498h1.2853926Z" fill="#8c8c8c"/>
      <path d="M70.1348314,100.737083c.0988749,0,.1977536,0,.1977536.1977498v1.2853964c0,.0988749,0,.1977498-.1977536.1977498h-1.2853926c-.0988749,0-.1977536,0-.1977536-.1977498v-1.2853964c0-.0988749,0-.1977498.1977536-.1977498h1.2853926Z" fill="#8c8c8c"/>
      <rect x="68.7505639" y="98.561805" width="1.3842713" height="2.8674174" fill="#aaa"/>
      <rect x="68.7505639" y="99.0561871" width="1.3842713" height="1.8786533"/>
    </g>
    <g id="R12">
      <path d="M65.586518,97.5730409c.0988749,0,.1977536,0,.1977536.1977498v1.2853964c0,.0988749,0,.1977498-.1977536.1977498h-1.2853926c-.0988749,0-.1977536,0-.1977536-.1977498v-1.2853964c0-.0988749,0-.1977498.1977536-.1977498h1.2853926Z" fill="#8c8c8c"/>
      <path d="M65.586518,100.737083c.0988749,0,.1977536,0,.1977536.1977498v1.2853964c0,.0988749,0,.1977498-.1977536.1977498h-1.2853926c-.0988749,0-.1977536,0-.1977536-.1977498v-1.2853964c0-.0988749,0-.1977498.1977536-.1977498h1.2853926Z" fill="#8c8c8c"/>
      <rect x="64.2022468" y="98.561805" width="1.3842713" height="2.8674174" fill="#aaa"/>
      <rect x="64.2022468" y="99.0561871" width="1.3842713" height="1.8786533"/>
    </g>
    <g id="R11">
      <path d="M61.0382009,97.5730409c.0988749,0,.1977536,0,.1977536.1977498v1.2853964c0,.0988749,0,.1977498-.1977536.1977498h-1.2853926c-.0988749,0-.1977536,0-.1977536-.1977498v-1.2853964c0-.0988749,0-.1977498.1977536-.1977498h1.2853926Z" fill="#8c8c8c"/>
      <path d="M61.0382009,100.737083c.0988749,0,.1977536,0,.1977536.1977498v1.2853964c0,.0988749,0,.1977498-.1977536.1977498h-1.2853926c-.0988749,0-.1977536,0-.1977536-.1977498v-1.2853964c0-.0988749,0-.1977498.1977536-.1977498h1.2853926Z" fill="#8c8c8c"/>
      <rect x="59.6539334" y="98.561805" width="1.3842713" height="2.8674174" fill="#aaa"/>
      <rect x="59.6539334" y="99.0561871" width="1.3842713" height="1.8786533"/>
    </g>
    <g id="R10">
      <path d="M56.4898875,97.5730409c.0988749,0,.1977536,0,.1977536.1977498v1.2853964c0,.0988749,0,.1977498-.1977536.1977498h-1.2853926c-.0988749,0-.1977536,0-.1977536-.1977498v-1.2853964c0-.0988749,0-.1977498.1977536-.1977498h1.2853926Z" fill="#8c8c8c"/>
      <path d="M56.4898875,100.737083c.0988749,0,.1977536,0,.1977536.1977498v1.2853964c0,.0988749,0,.1977498-.1977536.1977498h-1.2853926c-.0988749,0-.1977536,0-.1977536-.1977498v-1.2853964c0-.0988749,0-.1977498.1977536-.1977498h1.2853926Z" fill="#8c8c8c"/>
      <rect x="55.1056162" y="98.561805" width="1.3842713" height="2.8674174" fill="#aaa"/>
      <rect x="55.1056162" y="99.0561871" width="1.3842713" height="1.8786533"/>
    </g>
    <g id="C7">
      <path d="M52.1393239,97.7707907s.1977536,0,.1977536.1977498v1.1865139s0,.1977498-.1977536.1977498h-1.1865177s-.1977536,0-.1977536-.1977498v-1.1865139s0-.1977498.1977536-.1977498h1.1865177Z" fill="#8c8c8c"/>
      <path d="M52.1393239,100.6382081s.1977536,0,.1977536.1977498v1.1865139s0,.1977498-.1977536.1977498h-1.1865177s-.1977536,0-.1977536-.1977498v-1.1865139s0-.1977498.1977536-.1977498h1.1865177Z" fill="#8c8c8c"/>
      <rect x="50.8539313" y="98.6606799" width="1.2853926" height="2.5707852" fill="#aaa"/>
      <rect x="50.8539313" y="99.155062" width="1.2853926" height="1.680896" fill="#724527"/>
    </g>
    <g id="C6">
      <path d="M47.887639,97.7707907s.1977536,0,.1977536.1977498v1.1865139s0,.1977498-.1977536.1977498h-1.1865177s-.1977536,0-.1977536-.1977498v-1.1865139s0-.1977498.1977536-.1977498h1.1865177Z" fill="#8c8c8c"/>
      <path d="M47.887639,100.6382081s.1977536,0,.1977536.1977498v1.1865139s0,.1977498-.1977536.1977498h-1.1865177s-.1977536,0-.1977536-.1977498v-1.1865139s0-.1977498.1977536-.1977498h1.1865177Z" fill="#8c8c8c"/>
      <rect x="46.6022464" y="98.6606799" width="1.2853926" height="2.5707852" fill="#aaa"/>
      <rect x="46.6022464" y="99.155062" width="1.2853926" height="1.680896" fill="#724527"/>
    </g>
    <g id="C5">
      <path d="M42.9438185,97.7707907s.1977536,0,.1977536.1977498v1.1865139s0,.1977498-.1977536.1977498h-1.1865177s-.1977536,0-.1977536-.1977498v-1.1865139s0-.1977498.1977536-.1977498h1.1865177Z" fill="#8c8c8c"/>
      <path d="M42.9438185,100.6382081s.1977536,0,.1977536.1977498v1.1865139s0,.1977498-.1977536.1977498h-1.1865177s-.1977536,0-.1977536-.1977498v-1.1865139s0-.1977498.1977536-.1977498h1.1865177Z" fill="#8c8c8c"/>
      <rect x="41.7573008" y="98.6606799" width="1.2853926" height="2.5707852" fill="#aaa"/>
      <rect x="41.7573008" y="99.155062" width="1.2853926" height="1.680896" fill="#724527"/>
    </g>
    <g id="C4">
      <path d="M38.2966283,97.7707907s.1977536,0,.1977536.1977498v1.1865139s0,.1977498-.1977536.1977498h-1.1865177s-.1977536,0-.1977536-.1977498v-1.1865139s0-.1977498.1977536-.1977498h1.1865177Z" fill="#8c8c8c"/>
      <path d="M38.2966283,100.6382081s.1977536,0,.1977536.1977498v1.1865139s0,.1977498-.1977536.1977498h-1.1865177s-.1977536,0-.1977536-.1977498v-1.1865139s0-.1977498.1977536-.1977498h1.1865177Z" fill="#8c8c8c"/>
      <rect x="37.0112338" y="98.6606799" width="1.2853926" height="2.5707852" fill="#aaa"/>
      <rect x="37.0112338" y="99.155062" width="1.2853926" height="1.680896" fill="#724527"/>
    </g>
    <g id="R9">
      <path d="M33.748313,97.5730409c.0988768,0,.1977536,0,.1977536.1977498v1.2853964c0,.0988749,0,.1977498-.1977536.1977498h-1.2853926c-.0988768,0-.1977536,0-.1977536-.1977498v-1.2853964c0-.0988749,0-.1977498.1977536-.1977498h1.2853926Z" fill="#8c8c8c"/>
      <path d="M33.748313,100.737083c.0988768,0,.1977536,0,.1977536.1977498v1.2853964c0,.0988749,0,.1977498-.1977536.1977498h-1.2853926c-.0988768,0-.1977536,0-.1977536-.1977498v-1.2853964c0-.0988749,0-.1977498.1977536-.1977498h1.2853926Z" fill="#8c8c8c"/>
      <rect x="32.3640437" y="98.561805" width="1.3842694" height="2.8674174" fill="#aaa"/>
      <rect x="32.3640437" y="99.0561871" width="1.3842694" height="1.8786533"/>
    </g>
    <g id="R8">
      <path d="M29.1999978,97.5730409c.0988768,0,.1977536,0,.1977536.1977498v1.2853964c0,.0988749,0,.1977498-.1977536.1977498h-1.2853926c-.0988768,0-.1977536,0-.1977536-.1977498v-1.2853964c0-.0988749,0-.1977498.1977536-.1977498h1.2853926Z" fill="#8c8c8c"/>
      <path d="M29.1999978,100.737083c.0988768,0,.1977536,0,.1977536.1977498v1.2853964c0,.0988749,0,.1977498-.1977536.1977498h-1.2853926c-.0988768,0-.1977536,0-.1977536-.1977498v-1.2853964c0-.0988749,0-.1977498.1977536-.1977498h1.2853926Z" fill="#8c8c8c"/>
      <rect x="27.8157284" y="98.561805" width="1.3842694" height="2.8674174" fill="#aaa"/>
      <rect x="27.8157284" y="99.0561871" width="1.3842694" height="1.8786533"/>
    </g>
    <g id="R7">
      <path d="M24.6516825,97.5730409c.0988768,0,.1977536,0,.1977536.1977498v1.2853964c0,.0988749,0,.1977498-.1977536.1977498h-1.2853935c-.0988768,0-.1977526,0-.1977526-.1977498v-1.2853964c0-.0988749,0-.1977498.1977526-.1977498h1.2853935Z" fill="#8c8c8c"/>
      <path d="M24.6516825,100.737083c.0988768,0,.1977536,0,.1977536.1977498v1.2853964c0,.0988749,0,.1977498-.1977536.1977498h-1.2853935c-.0988768,0-.1977526,0-.1977526-.1977498v-1.2853964c0-.0988749,0-.1977498.1977526-.1977498h1.2853935Z" fill="#8c8c8c"/>
      <rect x="23.2674131" y="98.561805" width="1.3842694" height="2.8674174" fill="#aaa"/>
      <rect x="23.2674131" y="99.0561871" width="1.3842694" height="1.8786533"/>
    </g>
    <g id="J3Y1">
      <g>
        <rect x="65.8831465" y="85.7078716" width="2.7685387" height="2.7685425" fill="#8c8c8c"/>
        <rect x="63.2134827" y="91.937081" width="2.7685387" height="2.7685425" fill="#8c8c8c"/>
        <rect x="68.5528104" y="91.937081" width="2.7685387" height="2.7685425" fill="#8c8c8c"/>
      </g>
      <rect x="64.0044932" y="91.8382061" width="1.087639" height="2.2741605" fill="#aaa"/>
      <rect x="64.0044932" y="92.431463" width="1.087639" height=".593257" fill="#828282"/>
      <rect x="69.4426958" y="91.7393312" width="1.087639" height="2.2741605" fill="#aaa"/>
      <rect x="69.4426958" y="92.3325881" width="1.087639" height=".593257" fill="#828282"/>
      <rect x="66.674157" y="86.4988784" width="1.087639" height="2.2741605" fill="#aaa"/>
      <rect x="66.674157" y="87.5865249" width="1.087639" height=".593257" fill="#828282"/>
      <rect x="63.5101111" y="88.6741639" width="7.6134806" height="3.0651672"/>
      <g isolation="isolate">
        <text transform="translate(65.092041 91.0471191)" fill="#aaa" font-family="OCRA" font-size="1.9775282" isolation="isolate"><tspan x="0" y="0">J3Y</tspan></text>
      </g>
    </g>
    <g id="AMS1117">
      <g>
        <rect x="40.7685367" y="77.9955086" width="3.5595493" height="3.5595493" fill="#8c8c8c"/>
        <rect x="40.7685367" y="89.3662958" width="3.5595493" height="3.5595493" fill="#8c8c8c"/>
        <rect x="40.7685367" y="83.7303434" width="3.5595493" height="3.5595493" fill="#8c8c8c"/>
      </g>
      <rect x="42.1528079" y="78.5887655" width="4.746067" height="2.3730354" fill="#aaa"/>
      <rect x="44.0314613" y="78.5887655" width="1.3842713" height="2.3730354" fill="#828282"/>
      <rect x="42.1528079" y="84.2247255" width="4.746067" height="2.3730354" fill="#aaa"/>
      <rect x="44.0314613" y="84.2247255" width="1.3842713" height="2.3730354" fill="#828282"/>
      <rect x="42.1528079" y="89.9595528" width="4.746067" height="2.3730354" fill="#aaa"/>
      <rect x="44.0314613" y="89.9595528" width="1.3842713" height="2.3730354" fill="#828282"/>
      <rect x="55.698877" y="80.9618009" width="5.4382026" height="9.0966268" fill="#aaa"/>
      <rect x="57.4786516" y="80.862926" width="1.6808997" height="9.0966268" fill="#828282"/>
      <rect x="46.8" y="77.3033767" width="8.7999983" height="17.1056145" stroke="#3f3f3f" stroke-miterlimit="3.9550564" stroke-width=".2966292"/>
      <g isolation="isolate">
        <text transform="translate(51.7438965 81.5549316) rotate(90)" fill="#aaa" font-family="OCRA" font-size="1.9775282" isolation="isolate"><tspan x="0" y="0">A</tspan></text>
      </g>
      <g isolation="isolate">
        <text transform="translate(51.7438965 82.7414551) rotate(90)" fill="#aaa" font-family="OCRA" font-size="1.9775282" isolation="isolate"><tspan x="0" y="0">M</tspan></text>
      </g>
      <g isolation="isolate">
        <text transform="translate(51.7438965 84.0270996) rotate(90)" fill="#aaa" font-family="OCRA" font-size="1.9775282" isolation="isolate"><tspan x="0" y="0">S</tspan></text>
      </g>
      <g isolation="isolate">
        <text transform="translate(51.7438965 85.213623) rotate(90)" fill="#aaa" font-family="OCRA" font-size="1.9775282" isolation="isolate"><tspan x="0" y="0">1</tspan></text>
      </g>
      <g isolation="isolate">
        <text transform="translate(51.7438965 86.4987793) rotate(90)" fill="#aaa" font-family="OCRA" font-size="1.9775282" isolation="isolate"><tspan x="0" y="0">1</tspan></text>
      </g>
      <g isolation="isolate">
        <text transform="translate(51.7438965 87.6853027) rotate(90)" fill="#aaa" font-family="OCRA" font-size="1.9775282" isolation="isolate"><tspan x="0" y="0">1</tspan></text>
      </g>
      <g isolation="isolate">
        <text transform="translate(51.7438965 88.8718262) rotate(90)" fill="#aaa" font-family="OCRA" font-size="1.9775282" isolation="isolate"><tspan x="0" y="0">7</tspan></text>
      </g>
      <g isolation="isolate">
        <text transform="translate(49.3708496 79.6765137) rotate(90)" fill="#aaa" font-family="OCRA" font-size="1.9775282" isolation="isolate"><tspan x="0" y="0">3</tspan></text>
      </g>
      <g isolation="isolate">
        <text transform="translate(49.3708496 80.8630371) rotate(90)" fill="#aaa" font-family="OCRA" font-size="1.9775282" isolation="isolate"><tspan x="0" y="0">.</tspan></text>
      </g>
      <g isolation="isolate">
        <text transform="translate(49.3708496 82.1481934) rotate(90)" fill="#aaa" font-family="OCRA" font-size="1.9775282" isolation="isolate"><tspan x="0" y="0">3</tspan></text>
      </g>
      <g isolation="isolate">
        <text transform="translate(49.3708496 85.8068848) rotate(90)" fill="#aaa" font-family="OCRA" font-size="1.9775282" isolation="isolate"><tspan x="0" y="0">D</tspan></text>
      </g>
      <g isolation="isolate">
        <text transform="translate(49.3708496 87.092041) rotate(90)" fill="#aaa" font-family="OCRA" font-size="1.9775282" isolation="isolate"><tspan x="0" y="0">N</tspan></text>
      </g>
      <g isolation="isolate">
        <text transform="translate(49.3708496 88.2785645) rotate(90)" fill="#aaa" font-family="OCRA" font-size="1.9775282" isolation="isolate"><tspan x="0" y="0">7</tspan></text>
      </g>
      <g isolation="isolate">
        <text transform="translate(49.3708496 89.564209) rotate(90)" fill="#aaa" font-family="OCRA" font-size="1.9775282" isolation="isolate"><tspan x="0" y="0">1</tspan></text>
      </g>
      <g isolation="isolate">
        <text transform="translate(49.3708496 90.7507324) rotate(90)" fill="#aaa" font-family="OCRA" font-size="1.9775282" isolation="isolate"><tspan x="0" y="0">1</tspan></text>
      </g>
    </g>
    <g id="C3">
      <path d="M37.0112338,86.4000035c.1977536,0,.2966285.1977498.2966285.2966322v2.3730354c0,.1977498-.1977536.2966322-.2966285.2966322h-2.3730335c-.1977536,0-.2966285-.1977498-.2966285-.2966322v-2.3730354c0-.1977498.0988768-.2966322.2966285-.2966322h2.3730335Z" fill="#8c8c8c"/>
      <path d="M37.0112338,90.256185c.1977536,0,.2966285.1977498.2966285.2966322v2.3730354c0,.1977498-.1977536.2966322-.2966285.2966322h-2.3730335c-.1977536,0-.2966285-.1977498-.2966285-.2966322v-2.3730354c0-.1977498.0988768-.2966322.2966285-.2966322h2.3730335Z" fill="#8c8c8c"/>
      <rect x="34.5393236" y="87.2898927" width="2.5707871" height="5.1415703" fill="#aaa"/>
      <rect x="34.5393236" y="88.2786568" width="2.5707871" height="3.0651672" fill="#724527"/>
    </g>
    <g id="C2">
      <path d="M37.5056159,79.6764121s0,.1977498-.1977536.1977498h-1.1865177s-.1977536,0-.1977536-.1977498v-1.1865139s0-.1977498.1977536-.1977498h1.1865177s.1977536,0,.1977536.1977498v1.1865139Z" fill="#8c8c8c"/>
      <path d="M34.6382003,79.6764121s0,.1977498-.1977536.1977498h-1.1865177s-.1977536,0-.1977536-.1977498v-1.1865139s0-.1977498.1977536-.1977498h1.1865177s.1977536,0,.1977536.1977498v1.1865139Z" fill="#8c8c8c"/>
      <rect x="33.9460666" y="78.4898906" width="2.5707871" height="1.2853964" fill="#aaa"/>
      <rect x="34.4404487" y="78.4898906" width="1.6808997" height="1.2853964" fill="#724527"/>
    </g>
    <g id="C1">
      <rect x="23.7617952" y="88.7730388" width="6.4269667" height="2.5707852" fill="#8c8c8c"/>
      <rect x="23.7617952" y="79.8741619" width="6.4269667" height="2.4719103" fill="#8c8c8c"/>
      <rect x="23.0696605" y="80.7640511" width="7.811237" height="9.4921339" fill="#fa0"/>
      <rect x="23.0696605" y="80.7640511" width="7.811237" height="1.4831462" fill="#a06300"/>
      <g isolation="isolate">
        <text transform="translate(27.3210449 84.4226074) rotate(90)" fill="#a06300" font-family="OCRA" font-size="1.4831462" isolation="isolate"><tspan x="0" y="0">106C</tspan></text>
      </g>
      <g isolation="isolate">
        <text transform="translate(25.541748 83.3347168) rotate(90)" fill="#a06300" font-family="OCRA" font-size="1.4831462" isolation="isolate"><tspan x="0" y="0">116K1</tspan></text>
      </g>
    </g>
    <g id="R6">
      <path d="M72.1123634,62.57079c.0988749,0,.1977498,0,.1977498.1977536v1.2853926c0,.0988749,0,.1977536-.1977498.1977536h-1.2853964c-.0988749,0-.1977536,0-.1977536-.1977536v-1.2853926c0-.0988749,0-.1977536.1977536-.1977536h1.2853964Z" fill="#8c8c8c"/>
      <path d="M72.1123634,65.7348359c.0988749,0,.1977498,0,.1977498.1977536v1.2853926c0,.0988749,0,.1977536-.1977498.1977536h-1.2853964c-.0988749,0-.1977536,0-.1977536-.1977536v-1.2853926c0-.0988749,0-.1977536.1977536-.1977536h1.2853964Z" fill="#8c8c8c"/>
      <rect x="70.7280921" y="63.5595541" width="1.3842713" height="2.8674174" fill="#aaa"/>
      <rect x="70.7280921" y="64.0539362" width="1.3842713" height="1.8786533"/>
    </g>
    <g id="R5">
      <path d="M72.1123634,54.1662951c.0988749,0,.1977498,0,.1977498.1977536v1.2853926c0,.0988749,0,.1977536-.1977498.1977536h-1.2853964c-.0988749,0-.1977536,0-.1977536-.1977536v-1.2853926c0-.0988749,0-.1977536.1977536-.1977536h1.2853964Z" fill="#8c8c8c"/>
      <path d="M72.1123634,57.330341c.0988749,0,.1977498,0,.1977498.1977536v1.2853926c0,.0988749,0,.1977536-.1977498.1977536h-1.2853964c-.0988749,0-.1977536,0-.1977536-.1977536v-1.2853926c0-.0988749,0-.1977536.1977536-.1977536h1.2853964Z" fill="#8c8c8c"/>
      <rect x="70.7280921" y="55.2539341" width="1.3842713" height="2.8674174" fill="#aaa"/>
      <rect x="70.7280921" y="55.6494413" width="1.3842713" height="1.8786533"/>
    </g>
    <g id="R4">
      <path d="M72.1123634,46.2561822c.0988749,0,.1977498,0,.1977498.1977536v1.2853926c0,.0988749,0,.1977536-.1977498.1977536h-1.2853964c-.0988749,0-.1977536,0-.1977536-.1977536v-1.2853926c0-.0988749,0-.1977536.1977536-.1977536h1.2853964Z" fill="#8c8c8c"/>
      <path d="M72.1123634,49.4202281c.0988749,0,.1977498,0,.1977498.1977536v1.2853926c0,.0988749,0,.1977536-.1977498.1977536h-1.2853964c-.0988749,0-.1977536,0-.1977536-.1977536v-1.2853926c0-.0988749,0-.1977536.1977536-.1977536h1.2853964Z" fill="#8c8c8c"/>
      <rect x="70.7280921" y="47.2449463" width="1.3842713" height="2.8674174" fill="#aaa"/>
      <rect x="70.7280921" y="47.7393284" width="1.3842713" height="1.8786533"/>
    </g>
    <g id="R3">
      <path d="M22.6741552,38.6426979c.0988768,0,.1977526,0,.1977526.1977536v1.2853926c0,.0988749,0,.1977536-.1977526.1977536h-1.2853935c-.0988768,0-.1977526,0-.1977526-.1977536v-1.2853926c0-.0988768,0-.1977536.1977526-.1977536h1.2853935Z" fill="#8c8c8c"/>
      <path d="M22.6741552,41.9056187c.0988768,0,.1977526,0,.1977526.1977536v1.2853926c0,.0988749,0,.1977536-.1977526.1977536h-1.2853935c-.0988768,0-.1977526,0-.1977526-.1977536v-1.2853926c0-.0988749,0-.1977536.1977526-.1977536h1.2853935Z" fill="#8c8c8c"/>
      <rect x="21.2898849" y="39.7303406" width="1.3842694" height="2.8674174" fill="#aaa"/>
      <rect x="21.2898849" y="40.2247227" width="1.3842694" height="1.8786533"/>
    </g>
    <g id="R2">
      <path d="M22.6741552,30.3370797c.0988768,0,.1977526,0,.1977526.1977536v1.2853926c0,.0988768,0,.1977536-.1977526.1977536h-1.2853935c-.0988768,0-.1977526,0-.1977526-.1977536v-1.2853926c0-.0988768,0-.1977536.1977526-.1977536h1.2853935Z" fill="#8c8c8c"/>
      <path d="M22.6741552,33.5011256c.0988768,0,.1977526,0,.1977526.1977536v1.2853926c0,.0988768,0,.1977536-.1977526.1977536h-1.2853935c-.0988768,0-.1977526,0-.1977526-.1977536v-1.2853926c0-.0988768,0-.1977536.1977526-.1977536h1.2853935Z" fill="#8c8c8c"/>
      <rect x="21.2898849" y="31.3258438" width="1.3842694" height="2.8674155" fill="#aaa"/>
      <rect x="21.2898849" y="31.8202259" width="1.3842694" height="1.8786514"/>
    </g>
    <g id="R1">
      <path d="M22.6741552,22.328091c.0988768,0,.1977526,0,.1977526.1977526v1.2853926c0,.0988768,0,.1977536-.1977526.1977536h-1.2853935c-.0988768,0-.1977526,0-.1977526-.1977536v-1.2853935c0-.0988768,0-.1977526.1977526-.1977526,0,0,1.2853935,0,1.2853935.0000009Z" fill="#8c8c8c"/>
      <path d="M22.6741552,25.5910128c.0988768,0,.1977526,0,.1977526.1977536v1.2853926c0,.0988768,0,.1977536-.1977526.1977536h-1.2853935c-.0988768,0-.1977526,0-.1977526-.1977536v-1.2853926c0-.0988768,0-.1977536.1977526-.1977536h1.2853935Z" fill="#8c8c8c"/>
      <rect x="21.2898849" y="23.415731" width="1.3842694" height="2.8674155" fill="#aaa"/>
      <rect x="21.2898849" y="23.910113" width="1.3842694" height="1.8786514"/>
    </g>
    <g id="ESP8266">
      <rect x="30.6831439" y="27.6674178" width="32.2337103" height="40.9348355" fill="#7f7d73" stroke="#ddd" stroke-miterlimit="3.9550564" stroke-width=".4943821"/>
      <g id="_x38_02.11b_x2F_g_x2F_n">
        <path d="M34.4404487,46.8494392v.1977536l-.0988768.0988749h-.6921356q-.0988749,0-.1977536-.1977536s0-.0988749-.0988768-.1977536,0-.1977536,0-.2966285v-.2966285s0-.1977536.0988768-.1977536c0,0,.0988768-.0988749.1977536-.0988749h.5932607l.0988768.0988749.0988768.1977536v-.0988749l.0988768-.0988749h.4943839s.0988768,0,.1977536.0988749,0,.0988749.0988768.1977536v.7910105s0,.0988749-.1977536.0988749h-.4943839l-.0988768-.0988749v-.0988749h0l-.0988787-.0988787ZM34.2426951,46.4539358v-.0988749c0-.0988749,0,0,0,0h-.3955072c-.0988768,0,0,.0988749,0,.2966285s0,0,0,.0988749v.0988749h.2966304c.0988768,0,0,0,0-.0988749v-.1977536l.0988768-.0988749ZM34.5393236,46.5528107v.0988749c0,.0988749,0,0,0,0h.2966304v-.3955072h-.1977536c-.1977536,0,0,0-.0988768,0s0,0,0,0v.2966322Z" fill="#aaa"/>
        <path d="M34.3415719,49.1235997h-.4943821c-.1977536,0-.2966285,0-.2966285-.1977536,0,0-.1977536-.1977536-.1977536-.2966285v-.6921356c0-.0988749.0988768-.1977536.1977536-.2966285s.1977536-.0988749.2966285-.1977536.2966285,0,.4943821,0h.4943821c.0988768,0,.2966285,0,.2966285.1977536,0,0,.1977536.1977536.1977536.2966285v.6921356c0,.0988749-.0988768.1977536-.1977536.2966285s-.1977536.0988749-.2966285.1977536-.2966285,0-.4943821,0ZM34.3415719,48.7280925h0l-.5932588-.7910105c-.0988768,0-.1977536,0-.1977536.0988749v.3955072c0,.0988787,0,0,.0988768.0988749h.4943821l.1977536.1977536ZM34.3415719,47.8382033h0l.5932588.7910105c.0988768,0,.1977536,0,.1977536-.0988749v-.3955072l-.0988768-.0988749c-.0988768-.0988749-.0988768,0-.1977536,0h-.2966285l-.1977536-.1977536Z" fill="#aaa"/>
        <path d="M33.3528078,49.4202281h.2966285l.4943821.4943821.1977536.1977536s.0988768,0,.1977536.0988749.0988768,0,.0988768,0h.1977536c.0988768,0,0,0,0,0h0v-.2966285s0-.0988749-.0988768-.1977536l.2966285-.1977536s.1977536.1977536.1977536.2966285v.6921356c0,.0988749,0,.1977536-.0988768.1977536s-.0988768.0988749-.1977536.0988749h-.6921356s-.0988768,0-.1977536-.1977536c0,0-.0988768-.0988749-.1977536-.1977536l-.2966285-.2966285v.8898892h-.3955053v-1.3842713h0l.1977536-.1977498Z" fill="#aaa"/>
        <path d="M33.9460666,51.8921384v.1977498h-.3955072v-.2966247h.3955072v.0988749Z" fill="#aaa"/>
        <path d="M33.3528078,52.9797774h.3955053v.4943821h1.3842694l-.2966285-.4943821h.2966285c0-.0988749.3955053.4943821.3955053.4943821v.2966285h-1.7797746v.4943821h-.3955053v-1.3842713.0988787Z" fill="#aaa"/>
        <path d="M33.3528078,54.8584307h.3955053v.4943821h1.3842694l-.2966285-.4943821h.2966285c0-.0988749.3955053.4943821.3955053.4943821v.2966285h-1.7797746v.4943821h-.3955053v-1.3842713.0988787Z" fill="#aaa"/>
        <path d="M34.1438183,58.0224766h-.3955053c-.0988768,0-.1977536-.0988749-.2966285-.1977536s-.0988768-.1977536-.1977536-.2966285,0-.1977536,0-.2966285v-.593257h2.1752818v.3955072h-.8898873s.0988768.0988749.1977536.1977536v.593257s0,.0988749-.1977536.1977536-.1977536,0-.2966285.0988749h-.2966285l.1977498-.0988787ZM34.1438183,57.6269695h.3955072v-.2966285c0-.0988787-.0988768-.0988749-.1977536-.1977536h-.6921356v.3955034l.0988768.0988749h.1977536q.0988768,0,.1977517.0000038Z" fill="#aaa"/>
        <path d="M32.9573025,58.6157336v-.3955072l2.5707871,1.087639v.3955072l-2.5707871-1.087639Z" fill="#aaa"/>
        <path d="M34.6382003,61.3842723h-.3955072s-.0988768,0-.1977536-.0988749c0,0,0-.0988749-.0988768-.1977536s0-.1977536,0-.2966285v-.2966285h0v.7910143l-.0988768.0988749c-.0988768.0988749-.0988768,0-.1977536,0h-.1977536s-.0988768,0-.1977536-.1977536,0-.1977536-.0988768-.2966285v-.8898892s0-.0988749.0988768-.0988749h.2966304v.0988749l.0988768-.0988749h.1977536c.1977536,0,0,0,.0988768,0s0,0,0,0h.4943839s.0988768,0,.1977536.0988749,0,.0988749.0988768.1977536v1.0876352h-.2966285v-.2966285l.1977517.3955072ZM33.1550542,60.4943869h-.0988768v.593257c0,.0988749,0,0,0,0h0v-.3955034h0l.0988768-.1977536ZM34.4404487,60.4943869h-.1977536v.1977536c0,.0988787,0,0,0,.0988749h.2966304v-.1977536c0-.0988787,0,0,0-.0988749h-.0988768Z" fill="#aaa"/>
        <path d="M32.9573025,62.2741615v-.3955072l2.5707871,1.087639v.3955072l-2.5707871-1.087639Z" fill="#aaa"/>
        <path d="M33.3528078,64.7460718h1.0876409c.1977536,0,.2966285,0,.2966285-.1977536v-.1977536c0-.0988787-.0988768-.0988749-.1977536-.1977536h-.9887641v-.3955072h1.5820229v.2966285h-.1977536l.0988768.0988749c.0988768.0988749,0,0,0,.0988749v.4943821s0,.0988749-.0988768.1977536h-1.483148v-.3955072h0l-.098873.1977611Z" fill="#aaa"/>
      </g>
      <g id="PA__x2B_25dBm">
        <path d="M38.0988747,47.2449463h-.2966285s-.1977536,0-.1977536-.1977536c0,0-.0988768-.1977536-.1977536-.2966285v-.5932607h-.6921356v-.3955072h2.076405v.9887641c0,.0988749,0,.1977536-.0988768.2966285,0,0-.0988768.0988749-.1977536.1977536s-.1977536,0-.2966285,0l-.0988749.0000038ZM38.0988747,46.8494392h.2966304v-.4943821h-.7910105v.4943821c0,.0988749,0,0,.0988768,0h.3955034Z" fill="#aaa"/>
        <path d="M36.7146054,48.7280925h.3955053v-.8898892h-.3955053v-.4943821l2.076405.593257v.593257l-2.076405.593257s0-.3955072,0-.3954996ZM38.3955051,48.2337104l-.9887641-.2966285v.593257l.9887641-.2966285Z" fill="#aaa"/>
        <path d="M37.406741,53.8696666h-.5932588v-.3955072h.5932588v-.593257h.2966285v.593257h.5932588v.3955072h-.5932588v.593257h-.2966285v-.593257Z" fill="#aaa"/>
        <path d="M36.7146054,54.759552h.2966285l.4943821.4943821.1977536.1977536s.0988768,0,.1977536.0988749h.2966304v-.2966285s0-.0988749-.0988768-.1977536l.2966285-.1977536s.1977536.1977536.1977536.2966285v.6921356s0,.1977536-.0988768.1977536c0,0-.0988768.0988749-.1977536.0988749h-.6921356s-.0988768,0-.1977536-.1977536c0,0-.0988768-.0988749-.1977536-.1977536l-.2966285-.2966285v.8898892h-.3955053v-1.3842713h0l.1977536-.1977498Z" fill="#aaa"/>
        <path d="M37.3078642,58.0224766h-.2966285c-.0988749,0-.1977536-.0988749-.1977536-.1977536s-.0988768-.1977536-.0988768-.2966285v-.3955072c0-.1977536,0,0,0-.0988749v-.2966247h.2966285v.7910143s.0988768.0988749.2966285.0988749.1977536,0,.2966285-.0988749v-.7910143h1.0876409v1.1865177h-.3955053v-.7910105h-.3955053v.4943821c0,.0988749,0,.1977536-.0988768.2966285,0,0-.0988768.0988749-.1977536.1977536h-.2966285l.0000019-.0988824Z" fill="#aaa"/>
        <path d="M36.7146054,59.4067441h.1977536l-.0988768-.0988749v-.6921319s0-.0988749.1977536-.1977536c0,0,.1977536,0,.2966285-.0988749h.6921337c.0988768,0,.1977536.0988749.2966285.1977536,0,0,.0988768.1977536.1977536.2966285v.4943783h.5932588v.3955072h-2.2741567v-.2966285h0l-.0988768-.0000038ZM37.5056159,58.7146085h-.3955072v.2966285c0,.0988787.0988768.0988749.1977536.1977536h.6921356v-.3955034l-.0988768-.0988749h-.1977536q-.0988768,0-.1977517-.0000038Z" fill="#aaa"/>
        <path d="M36.7146054,60.1977546h2.076405v.6921356c0,.1977536,0,.3955072-.0988768.4943821,0,.0988749-.1977536.1977536-.3955053.1977536h-.3955072c-.0988768,0,0,0,0-.0988749v.2966285h-.2966304c-.1977536,0-.3955053,0-.4943821-.1977536-.0988768-.0988749-.1977536-.3955072-.1977536-.593257v-.593257h0l-.1977498-.1977573ZM37.0112338,60.7910154v.2966285h.1977536s.1977536,0,.1977536-.0988749v-.4943821h-.5932588v.2966285h.1977517ZM38.1977515,61.0876438h.0988768v-.4943821h-.5932588v.4943821h.4943821Z" fill="#aaa"/>
        <path d="M36.7146054,63.164047h1.1865177s-.0988768,0-.1977536-.0988749h-1.0876409v-.2966285h1.1865177s-.0988768,0-.1977536-.0988749h-1.0876409v-.2966285h1.5820229v.2966285h-.1977536.0988768c.0988768,0,0,0,0,0h0v.2966285h-.1977536.0988768v.0988749c0,.0988749,0,.1977536-.0988768.2966285h-1.5820229v-.2966285h0l.4943839.0988749Z" fill="#aaa"/>
      </g>
      <g id="ISM_2.4GHz">
        <path d="M41.7573008,45.8606751h.2966285v1.2853926h-.2966285v-.4943821h-1.4831462v.4943821h-.2966285v-1.2853926h.2966285v.4943821h1.4831462v-.4943821Z" fill="#aaa"/>
        <path d="M40.6696618,49.024721h-.2966285s-.1977536-.0988749-.1977536-.1977536c0,0,0-.1977536-.0988749-.2966285v-.8898854h.3955072v1.0876428c0,.0988749,0,0,0,0h.1977498c.0988749,0,0,0,0-.0988749v-.5932607q0-.0988787.0988749-.1977536s.0988749,0,.1977536-.0988749h.3955072s.0988749,0,.1977536.0988749c0,0,.0988749.0988749.0988749.1977536v.3955072c0,.1977536,0,0,0,.0988749v.2966247h-.3955072v-.6921281h-.0988749v.6921356s0,.0988749-.0988749.1977536c0,0-.0988749,0-.1977536.0988749h-.1977536v-.0988824Z" fill="#aaa"/>
        <path d="M40.0764048,50.6067458h1.6808997-.2966285c0-.0988749-.6921356-.2966285-.6921356-.2966285v-.1977536l.6921356-.1977536h.2966285l-.4943821-.0988749h-1.1865177v-.3955072h2.0764031v.593257l-.593257.1977536h-.2966285l.2966285.1977536.593257.1977536v.4943821h-2.0764031c0,.0988749,0-.1977536,0-.1977536h0v-.2966285Z" fill="#aaa"/>
        <path d="M40.0764048,52.9797774h.2966285l.4943821.4943821.1977536.1977536s.0988749,0,.1977536.0988749h.2966247v-.2966285s0-.0988749-.0988749-.1977536l.2966285-.1977536s.1977536.1977536.1977536.2966285v.6921356s0,.1977536-.0988749.1977536c0,0-.0988749.0988749-.1977536.0988749h-.6921356s-.0988749,0-.1977536-.1977536l-.1977536-.1977536-.2966285-.2966285v.8898892h-.3955072v-1.3842713h0l.1977573-.1977498Z" fill="#aaa"/>
        <path d="M40.6696618,55.4516877v.1977498h-.3954996v-.2966247h.3954996v.0988749Z" fill="#aaa"/>
        <path d="M40.4719082,57.824723h-.3955072v-.3955072h.3955072v-.9887641h.2966285l1.2853926.7910105v.4943821h-1.2853926v.2966285h-.2966285v-.2966285.0988787ZM41.7573008,57.4292159l-.9887641-.593257v.593257h.9887641Z" fill="#aaa"/>
        <path d="M40.9662903,59.1101156h.2966285v.6921356h-1.087639s0-.1977536-.0988749-.2966285,0-.1977536,0-.2966285v-.3955072c0-.0988749.0988749-.1977536.1977536-.2966285,0,0,.1977536-.0988749.2966285-.1977536h.9887641c.0988749,0,.2966285.0988749.3955072.1977536,0,0,.1977536.1977536.1977536.2966285v.9887641h-.3955072v-.8898854q0-.0988749-.0988749-.1977536c-.0988749-.0988787-.0988749,0-.1977536-.0988749h-.7910105s-.0988749.0988749-.0988749.1977536v.2966285c0,.0988749,0,0,0,0h.4943821v-.3955072h0l-.0988824.3955034Z" fill="#aaa"/>
        <path d="M40.0764048,61.1865187h.8898892v-.6921356h-.8898892v-.3955072h2.0764031v.3955072h-.7910105v.6921356h.7910105v.3955072h-2.0764031v-.3955072Z" fill="#aaa"/>
        <path d="M40.0764048,61.977533h.2966285l.9887641.7910105v-.7910105h.2966285v1.2853926h-.2966285l-.9887641-.7910105v.7910105h-.2966285v-1.2853926h0Z" fill="#aaa"/>
      </g>
      <g id="FCC">
        <path d="M35.5280877,43.191015c-.7910105-.593257-1.2853926-1.4831462-1.2853926-2.5707852,0-1.7797746,1.4831462-3.2629208,3.2629208-3.2629208s3.2629208,1.4831462,3.2629208,3.2629208-.4943821,1.9775282-1.2853926,2.5707852v1.4831462c1.4831462-.6921356,2.4719103-2.2741567,2.4719103-4.0539313s-1.9775282-4.4494385-4.4494385-4.4494385-4.4494385,1.9775282-4.4494385,4.4494385.9887641,3.2629208,2.4719103,4.0539313v-1.4831462h0Z" fill="#aaa"/>
        <path d="M36.6157286,41.9056187c-.3955053-.2966285-.6921356-.7910105-.6921356-1.2853926,0-.8898892.6921356-1.5820211,1.5820229-1.5820211s1.5820229.6921356,1.5820229,1.5820211-.2966285.9887641-.5932588,1.2853926v1.2853926c1.087639-.3955072,1.7797746-1.3842713,1.7797746-2.5707852s-1.1865177-2.6696638-2.6696638-2.6696638-2.6696638,1.1865177-2.6696638,2.6696638.7910105,2.1752818,1.7797746,2.5707852v-1.2853926h-.098873Z" fill="#aaa"/>
        <path d="M40.5707869,33.6000024v2.7685387h1.5820211v-3.0651691c0-.8898873-.6921356-1.5820229-1.5820211-1.5820229h-7.2179772c-.1977536,0-.2966285.1977536-.2966285.2966285v1.1865177h3.7573029v3.1640459h1.1865177v-3.1640459h2.2741567c.1977536,0,.2966285.1977536.2966285.3955072Z" fill="#aaa"/>
      </g>
      <g id="ESP8266MOD">
        <path d="M45.5146074,45.6629253h2.0764031v1.2853926h-.2966285v-.8898892h-.4943821v.7910105h-.2966285v-.7910105h-.593257v.8898892h-.2966285v-1.2853926h-.0988787Z" fill="#aaa"/>
        <path d="M46.1078644,48.9258461h-.2966285c-.0988749,0-.1977536-.0988749-.1977536-.1977536,0,0,0-.1977536-.0988749-.2966285v-.8898854h.3955072v1.0876428c0,.0988749,0,0,0,0h.1977498v-.6921356q0-.0988787.0988749-.1977536l.1977536-.0988749c.1977536-.0988749.0988749,0,.1977536,0h.1977536s.0988749,0,.1977536.0988749c0,0,0,.0988749.0988749.1977536v.3955072c0,.1977536,0,0,0,.0988749v.2966247h-.3955072v-.6921281h-.0988749v.6921356s0,.0988749-.0988749.1977536c0,0-.0988749,0-.1977536.0988749h-.1977536v-.0988824Z" fill="#aaa"/>
        <path d="M46.8988749,50.9033743h-.2966285s-.1977536,0-.1977536-.1977536c0,0-.0988749-.1977536-.1977536-.2966285v-.5932607h-.6921356v-.3955072h2.0764031v.9887641c0,.0988749,0,.1977536-.0988749.2966285l-.1977536.1977536h-.2966285l-.0988749.0000038ZM46.8988749,50.4089922h.2966285v-.4943821h-.7910105v.3955072c0,.0988787,0,0,0,.0988749h.4943821Z" fill="#aaa"/>
        <path d="M46.6022464,52.3865205v.1977536l-.0988749.0988749h-.6921356s-.0988749,0-.1977536-.1977536c0,0,0-.0988749-.0988749-.1977536s0-.1977536,0-.2966285v-.2966285s0-.1977536.0988749-.1977536c0,0,.0988749-.0988749.1977536-.0988749h.5932607l.0988749.0988749c.0988749.0988749,0,0,.0988749.1977536v-.0988749l.0988749-.0988749h.4943821s.0988749,0,.1977536.0988749,0,.0988749.0988749.1977536v.7910105s0,.0988749-.1977536.0988749h-.4943821l-.0988749-.0988749v-.0988749l-.0988749-.0988787ZM46.4044928,51.9910133v-.0988749h-.3955034c-.0988787,0,0,.0988749,0,.2966285s0,0,0,.0988749v.0988749h.1977498v-.2966285l.1977536-.0988749ZM46.8,52.089892v.0988749h.2966285c.0988787,0,0-.0988749,0-.1977536v-.1977536h-.1977536c-.1977536,0,0,0-.0988749,0h0v.2966322Z" fill="#aaa"/>
        <path d="M45.5146074,53.2764059h.2966285l.4943821.4943821.1977536.1977536s.0988749,0,.1977536.0988749h.2966247v-.2966285s0-.0988749-.0988749-.1977536l.2966285-.1977536s.1977536.1977536.1977536.2966285v.6921356s0,.1977536-.0988749.1977536c0,0-.0988749.0988749-.1977536.0988749h-.6921356s-.0988749,0-.1977536-.1977536-.0988749-.0988749-.1977536-.1977536l-.2966285-.2966285v.8898892h-.3955072v-1.3842713l.1977573-.1977498Z" fill="#aaa"/>
        <path d="M46.2067393,56.6382054h-.2966285s-.1977536,0-.1977536-.1977536l-.0988749-.1977536v-.2966285c0-.1977536,0-.3955072.1977536-.593257.1977536-.0988749.3955072-.1977536.6921356-.1977536h.593257s.1977536,0,.1977536.0988749l.1977536.1977536s0,.1977536.0988749.2966285v.5932607h-.2966285v-.593257s0-.0988749-.0988749-.1977536l-.1977536-.0988749h-.1977536v.6921356s0,.1977536-.0988749.1977536c0,0-.0988749.0988749-.1977536.0988749h-.2966285l-.0000038.1977498ZM46.1078644,56.2426982h.1977498v-.2966285c0-.1977536,0,0,0-.0988749h-.4943821l-.0988749.0988749v.1977536c0,.1977536,0,0,0,.0988749v.0988749h.1977498l.1977573-.0988749Z" fill="#aaa"/>
        <path d="M46.2067393,58.5168587h-.2966285s-.1977536,0-.1977536-.1977536c0,0-.0988749-.0988749-.0988749-.1977536v-.2966285c0-.1977536,0-.3955072.1977536-.593257.1977536-.0988749.3955072-.1977536.6921356-.1977536h.593257s.1977536,0,.1977536.0988749l.1977536.1977536s0,.1977536.0988749.2966285,0,.1977536,0,.3955072v.1977536h-.2966285v-.593257s0-.0988749-.0988749-.1977536l-.1977536-.0988749h-.1977536v.6921356s0,.1977536-.0988749.1977536c0,0-.0988749.0988749-.1977536.0988749h-.2966285l-.0000038.1977498ZM46.1078644,58.1213515h.1977498v-.2966285c0-.1977536,0,0,0-.0988749s0,0,0,0h-.4943821l-.0988749.0988749v.1977536c0,.1977536,0,0,0,.0988749v.0988749h.1977498l.1977573-.0988749Z" fill="#aaa"/>
        <path d="M45.5146074,60.1977546h1.6808997-.2966285c0-.0988749-.6921356-.2966285-.6921356-.2966285v-.1977536l.6921356-.1977536h.2966285l-.4943821-.0988749h-1.1865177v-.3955072h2.0764031v.593257l-.593257.1977536h-.2966285l.2966285.1977536.593257.1977536v.4943821h-2.0764031c0,.0988749,0-.1977536,0-.1977536h0v-.2966285Z" fill="#aaa"/>
        <path d="M46.6022464,62.4719151h-.4943821c-.0988749,0-.2966285-.0988749-.2966285-.1977536s-.1977536-.1977536-.1977536-.2966285v-.2966285c0-.2966285,0-.4943821.2966285-.593257.1977536-.0988749.4943821-.1977536.7910105-.1977536h.4943821c.0988749,0,.2966285.0988749.2966285.1977536,0,0,.1977536.1977536.1977536.2966285v.2966285c0,.2966285,0,.4943821-.2966285.593257-.1977536.0988749-.4943821.1977536-.7910105.1977536ZM46.5033715,62.076408c.1977536,0,.3955072,0,.593257-.0988749s.1977536-.1977536.1977536-.2966285v-.1977536l-.0988749-.0988749h-.4943821c-.1977536,0-.3955072,0-.593257.0988749-.0988749,0-.1977536.1977536-.1977536.2966285v.1977536l.0988749.0988749h.4943821Z" fill="#aaa"/>
        <path d="M46.6022464,64.3505646h-.3955072c-.0988749,0-.1977536-.0988749-.2966285-.1977536s-.1977536-.1977536-.1977536-.2966285v-.9887641h2.0764031v.9887641c0,.0988787-.0988749.1977536-.1977536.2966285,0,0-.1977536.0988749-.2966285.1977536s-.2966285,0-.4943821,0h-.1977498ZM46.5033715,63.9550613h.4943821s.0988749-.0988749.0988749-.1977536v-.4943821h-1.3842713v.1977536c0,.1977536,0,.2966285.1977536.3955072.0988749.0988749.2966285.1977536.4943821.1977536l.0988787-.0988787Z" fill="#aaa"/>
      </g>
      <g id="VENDOR">
        <path d="M43.4382005,33.0067436v-.4943821l2.0764031-.5932588v.4943821l-1.2853926.3955053h-.3955072c0,.0988768.3955072.1977536.3955072.1977536l1.1865177.3955053v.3955053l-2.0764031-.5932588.0988749-.1977517Z" fill="#aaa"/>
        <path d="M43.4382005,33.8966309h2.0764031v1.2853926h-.2966285v-.8898873h-.4943821v.7910105h-.2966285v-.7910105h-.593257v.8898873h-.2966285v-1.2853926h-.0988787Z" fill="#aaa"/>
        <path d="M43.4382005,36.5662947l1.2853926-.5932588h.2966285c0-.0988768-1.4831462-.0988768-1.4831462-.0988768v-.3955053h2.0764031v.4943821l-1.2853926.5932588h-.1977536c0,.0988768,1.4831462.0988768,1.4831462.0988768v.3955053h-2.0764031v-.4943821h-.0988749Z" fill="#aaa"/>
        <path d="M44.5258433,38.9393263h-.3955072c-.0988749,0-.1977536-.0988768-.2966285-.1977536s-.1977536-.1977536-.1977536-.2966285v-.9887641h2.0764031v.9887641c0,.0988768-.0988749.1977536-.1977536.2966285s-.1977536.0988768-.2966285.1977536h-.6921319ZM44.4269646,38.543823h.4943821s.0988749-.0988768.0988749-.1977536v-.4943821h-1.3842713v.1977536c0,.1977536,0,.2966285.1977536.3955053.0988749.0988768.2966285.1977536.4943821.1977536l.0988787-.0988768Z" fill="#aaa"/>
        <path d="M44.5258433,40.7191047h-.4943821c-.0988749,0-.2966285-.0988749-.2966285-.1977536s-.1977536-.1977536-.1977536-.2966285v-.2966285c0-.2966285,0-.4943821.2966285-.593257.1977536-.0988749.4943821-.1977536.7910105-.1977536h.4943821c.0988749,0,.2966285.0988749.2966285.1977536s.1977536.1977536.1977536.2966285v.2966285c0,.2966285,0,.4943821-.2966285.593257s-.4943821.1977536-.7910105.1977536ZM44.4269646,40.3235976h.593257c.0988749,0,.1977536-.1977536.1977536-.2966285v-.1977536l-.0988749-.0988749c-.0988749-.0988749-.0988749,0-.1977536,0h-.2966285c-.1977536,0-.3955072,0-.593257.0988749-.0988749,0-.1977536.1977536-.1977536.2966285v.1977536c0,.0988787,0,0,.0988749.0988749h.4943821v-.0988749Z" fill="#aaa"/>
        <path d="M43.4382005,42.1033722l.6921356-.2966285s.0988749,0,.0988749-.0988749v-.1977536h-.8898892v-.3955072h2.0764031v1.087639l-.1977536.1977536c-.0988787.0988787-.1977536,0-.2966285,0h-.3955072l-.0988749-.0988749v-.1977536.0988749c0,.0988749-.0988749,0-.1977536.0988749l-.6921356.2966285v-.4943821h0l-.0988711.0000038ZM44.9213467,42.0044973h.1977536v-.4943821h-.593257v.3955072c0,.0988787,0,0,0,.0988749h.3955034Z" fill="#aaa"/>
      </g>
      <g id="MODEL">
        <path d="M46.4044928,33.2044953h1.6808997-.2966285c0-.0988768-.6921356-.2966285-.6921356-.2966285v-.1977536l.6921356-.1977536h.2966285-1.6808997v-.3955053h2.0764031v.5932588l-.593257.1977536h-.2966285l.2966285.1977536.593257.1977536v.4943821h-2.0764031c0,.0988768,0-.1977536,0-.1977536v-.3955072Z" fill="#aaa"/>
        <path d="M47.4921356,35.3797771h-.4943821c-.0988749,0-.2966285-.0988768-.2966285-.1977536,0,0-.1977536-.1977536-.1977536-.2966285v-.2966285c0-.2966285,0-.4943821.2966285-.5932588.1977536-.0988768.4943821-.1977536.7910105-.1977536h.4943821c.0988749,0,.2966285.0988768.2966285.1977536,0,0,.1977536.1977536.1977536.2966285v.2966285c0,.2966285,0,.4943821-.2966285.5932588s-.4943821.1977536-.7910105.1977536ZM47.4921356,34.9842718c.1977536,0,.3955072,0,.593257-.0988768s.1977536-.1977536.1977536-.2966285v-.1977536l-.0988749-.0988768h-.4943821c-.1977536,0-.3955072,0-.593257.0988768s-.1977536.1977536-.1977536.2966285v.1977536c0,.0988768,0,0,.0988749.0988768h.4943821Z" fill="#aaa"/>
        <path d="M47.4921356,37.1595517h-.3955072c-.0988749,0-.1977536-.0988768-.2966285-.1977536s-.1977536-.1977536-.1977536-.2966285v-.9887641h2.0764031v.9887641c0,.0988768-.0988749.1977536-.1977536.2966285s-.1977536.0988768-.2966285.1977536h-.6921319ZM47.4921356,36.6651696h.4943821s.0988749-.0988768.0988749-.1977536v-.4943821h-1.3842713v.1977536c0,.1977536,0,.2966285.1977536.3955053.0988749.0988768.2966285.1977536.4943821.1977536l.0988787-.0988768Z" fill="#aaa"/>
        <path d="M46.4044928,37.4561821h2.0764031v1.2853926h-.2966285v-.8898873h-.4943821v.7910105h-.2966285v-.7910105h-.593257v.8898873h-.2966285v-1.2853926h-.0988787Z" fill="#aaa"/>
        <path d="M46.4044928,39.3348335h2.0764031v.3955072h-1.7797746v.8898892h-.2966285v-1.2853964Z" fill="#aaa"/>
      </g>
      <g id="WiFi">
        <path d="M56.3910126,44.1797791h-2.3730354c-1.9775282,0-3.658428,1.5820211-3.658428,3.5595493v14.5348331c0,1.9775282,1.5820211,3.5595493,3.658428,3.5595493h2.3730354c1.9775282,0,3.658428-1.5820211,3.658428-3.5595493v-14.5348331c0-1.9775282-1.5820211-3.5595493-3.658428-3.5595493ZM59.6539334,62.3730364c0,1.7797746-1.3842713,3.1640459-3.1640459,3.1640459h-2.4719103c-1.7797746,0-3.1640459-1.3842713-3.1640459-3.1640459v-9.9865197c0,1.7797746,1.3842713,3.1640459,3.1640459,3.1640459h2.4719103c1.7797746,0,3.1640459,1.3842713,3.1640459,3.1640459v3.658428h0Z" fill="#aaa"/>
        <path d="M56.3910126,44.1797791h-2.3730354c-1.9775282,0-3.658428,1.5820211-3.658428,3.5595493v14.5348331c0,1.9775282,1.5820211,3.5595493,3.658428,3.5595493h2.3730354c1.9775282,0,3.658428-1.5820211,3.658428-3.5595493v-14.5348331c0-1.9775282-1.5820211-3.5595493-3.658428-3.5595493ZM59.6539334,62.3730364c0,1.7797746-1.3842713,3.1640459-3.1640459,3.1640459h-2.4719103c-1.7797746,0-3.1640459-1.3842713-3.1640459-3.1640459v-9.9865197c0,1.7797746,1.3842713,3.1640459,3.1640459,3.1640459h2.4719103c1.7797746,0,3.1640459,1.3842713,3.1640459,3.1640459v3.658428h0Z" fill="none" stroke="#ddd" stroke-miterlimit="3.9550564" stroke-width=".0988764"/>
        <g>
          <rect x="52.8314595" y="52.9797774" width="3.4606744" height=".9887641" fill="#7f7d73"/>
          <circle cx="57.280898" cy="53.4741595" r=".593257" fill="#7f7d73"/>
          <polygon points="57.7752801 46.0584287 52.8314595 47.3438212 52.8314595 48.2337104 56.2921339 49.2224746 52.8314595 50.2112387 52.8314595 51.1011279 57.7752801 52.3865205 57.7752801 51.3977563 54.5123593 50.6067458 57.7752801 49.7168566 57.7752801 48.8269674 54.6112342 47.8382033 57.7752801 47.1460714 57.7752801 46.0584287" fill="#7f7d73"/>
        </g>
        <g>
          <polygon points="57.7752801 57.6269695 52.8314595 57.6269695 52.8314595 58.7146085 54.8089878 58.7146085 54.8089878 61.1865187 55.7977519 61.1865187 55.7977519 58.7146085 56.786516 58.7146085 56.786516 61.3842723 57.7752801 61.3842723 57.7752801 57.6269695" fill="#aaa"/>
          <rect x="52.8314595" y="62.076408" width="3.4606744" height=".9887641" fill="#aaa"/>
          <circle cx="57.280898" cy="62.6696649" r=".593257" fill="#aaa"/>
        </g>
      </g>
      <g id="espressif">
        <circle cx="52.1393239" cy="33.9955077" r=".8898883" fill="#aaa"/>
        <circle cx="52.1393239" cy="33.9955077" r=".8898883" fill="#aaa"/>
        <path d="M59.6539334,33.0067436l-.2966285.2966285c-.9887641-.9887641-2.3730354-1.6808997-3.9550564-1.6808997-3.0651672,0-5.5370775,2.4719103-5.5370775,5.5370794,0,3.065171.593257,2.9662923,1.5820211,3.9550564l-.2966285.2966285c-1.087639-1.087639-1.7797746-2.5707871-1.7797746-4.2516849,0-3.3617976,2.6696638-6.0314614,6.0314595-6.0314614s3.1640459.6921356,4.2516849,1.7797746v.0988787Z" fill="#aaa"/>
        <path d="M59.9505619,34.9842718c-.3955072,3.5595512-3.2629208,6.4269648-6.8224738,6.822472-.3955072-.1977536-.7910105-.4943821-1.087639-.7910105v-.7910105h.0988749c3.4606744,0,6.2292131-2.7685387,6.2292131-6.2292131h0c0-.0988768.2966285-.0988768.7910105-.0988768.2966285.2966285.593257.6921356.7910143,1.087639Z" fill="#aaa"/>
        <path d="M54.9078664,42.0044973v.2966285h.4943821c2.7685387,0,5.1415741-2.2741567,5.1415741-5.1415741s0-.2966285,0-.3955053h-.2966285v-.0988768c-.8898892,2.4719103-2.7685387,4.4494385-5.240449,5.240449l-.0988787.0988787Z" fill="#aaa"/>
        <path d="M50.95281,35.2809003l-.4943821.4943821c0,.2966285-.1977536.6921356-.1977536.9887641.4943821.2966285,1.1865177.4943821,1.7797746.4943821,1.7797746,0,3.2629208-1.4831462,3.3617995-3.2629208,0-.1977536.0988749-.2966285.2966285-.2966285s.2966285.1977536.2966285.2966285,0,0,0,0c0,2.1752818-1.8786533,3.8561796-4.0539313,3.8561796s-.9887641,0-1.4831462-.2966285l-.2966285.6921356h0c0,.3955053.1977536.6921356.3955072,1.087639.3955072.0988749.8898892.1977536,1.2853926.1977536,3.0651672,0,5.5370775-2.3730335,5.6359562-5.3393258v-.0988768c0-1.0876409-.8898892-1.9775282-1.9775282-1.9775282s-1.8786533.7910105-1.9775282,1.7797746c0,.9887641-.7910105,1.7797746-1.7797746,1.7797746s-.8898892-.1977536-1.1865177-.3955053h.3955034Z" fill="#aaa"/>
      </g>
      <g>
        <line x1="30.6831439" y1="27.6674178" x2="30.6831439" y2="68.6022496" fill="none" stroke="#595851" stroke-linecap="round" stroke-miterlimit="3.9550564" stroke-width=".7910113"/>
        <line x1="31.177526" y1="27.6674178" x2="31.177526" y2="68.6022496" fill="none" stroke="#a5a49b" stroke-linecap="round" stroke-miterlimit="3.9550564" stroke-width=".4943821"/>
        <line x1="62.9168542" y1="27.6674178" x2="62.9168542" y2="68.6022496" fill="none" stroke="#595851" stroke-linecap="round" stroke-miterlimit="3.9550564" stroke-width=".7910113"/>
        <line x1="62.4224721" y1="27.6674178" x2="62.4224721" y2="68.6022496" fill="none" stroke="#a5a49b" stroke-linecap="round" stroke-miterlimit="3.9550564" stroke-width=".4943821"/>
      </g>
    </g>
    <g id="Tabs">
      <g id="Right">
        <path d="M69.0471924,68.1078675v-.593257h-4.2516849v2.7685387h4.2516849v-.593257c-.4943821,0-.8898892-.3955072-.8898892-.8898892s.3955072-.8898892.8898892-.8898892v.1977536ZM66.179775,69.7887672c-.4943821,0-.8898892-.3955072-.8898892-.8898892s.3955072-.8898892.8898892-.8898892.8898892.3955072.8898892.8898892-.3955072.8898892-.8898892.8898892Z" fill="#9a916c"/>
        <circle cx="66.179775" cy="68.9977567" r=".8898892" fill="none" stroke="#332f25" stroke-miterlimit="3.9550564" stroke-width=".1977528"/>
        <path d="M69.0471924,62.57079v-.593257h-4.2516849v2.7685387h4.2516849v-.593257c-.4943821,0-.8898892-.3955072-.8898892-.8898892s.3955072-.8898892.8898892-.8898892v.1977536ZM66.179775,64.2516897c-.4943821,0-.8898892-.3955072-.8898892-.8898892s.3955072-.8898892.8898892-.8898892.8898892.3955072.8898892.8898892-.3955072.8898892-.8898892.8898892Z" fill="#9a916c"/>
        <circle cx="66.179775" cy="63.3618005" r=".8898892" fill="none" stroke="#332f25" stroke-miterlimit="3.9550564" stroke-width=".1977528"/>
        <path d="M69.0471924,57.0337125v-.593257h-4.2516849v2.7685387h4.2516849v-.593257c-.4943821,0-.8898892-.3955072-.8898892-.8898892s.3955072-.8898892.8898892-.8898892v.1977536ZM66.179775,58.7146085c-.4943821,0-.8898892-.3955072-.8898892-.8898892s.3955072-.8898892.8898892-.8898892.8898892.3955072.8898892.8898892-.3955072.8898892-.8898892.8898892Z" fill="#9a916c"/>
        <circle cx="66.179775" cy="57.824723" r=".8898892" fill="none" stroke="#332f25" stroke-miterlimit="3.9550564" stroke-width=".1977528"/>
        <path d="M69.0471924,51.3977563v-.593257h-4.2516849v2.7685387h4.2516849v-.593257c-.4943821,0-.8898892-.3955072-.8898892-.8898892s.3955072-.7910105.8898892-.7910105v.0988749ZM66.179775,53.0786561c-.4943821,0-.8898892-.3955072-.8898892-.8898892s.3955072-.8898892.8898892-.8898892.8898892.3955072.8898892.8898892-.3955072.8898892-.8898892.8898892Z" fill="#9a916c"/>
        <circle cx="66.179775" cy="52.2876418" r=".8898892" fill="none" stroke="#332f25" stroke-miterlimit="3.9550564" stroke-width=".1977528"/>
        <path d="M69.0471924,45.8606751v-.593257h-4.2516849v2.7685387h4.2516849v-.593257c-.4943821,0-.8898892-.3955072-.8898892-.8898892s.3955072-.7910105.8898892-.7910105v.0988749ZM66.179775,47.5415748c-.4943821,0-.8898892-.3955072-.8898892-.8898892s.3955072-.8898892.8898892-.8898892.8898892.3955072.8898892.8898892-.3955072.8898892-.8898892.8898892Z" fill="#9a916c"/>
        <circle cx="66.179775" cy="46.7505643" r=".8898892" fill="none" stroke="#332f25" stroke-miterlimit="3.9550564" stroke-width=".1977528"/>
        <path d="M69.0471924,40.3235976v-.593257h-4.2516849v2.7685387h4.2516849v-.593257c-.4943821,0-.8898892-.3955072-.8898892-.8898892s.3955072-.8898892.8898892-.8898892v.1977536ZM66.179775,42.0044973c-.4943821,0-.8898892-.3955072-.8898892-.8898892s.3955072-.8898892.8898892-.8898892.8898892.3955072.8898892.8898892-.3955072.8898892-.8898892.8898892Z" fill="#9a916c"/>
        <circle cx="66.179775" cy="41.1146081" r=".8898892" fill="none" stroke="#332f25" stroke-miterlimit="3.9550564" stroke-width=".1977528"/>
        <path d="M69.0471924,34.6876414v-.5932588h-4.2516849v2.7685387h4.2516849v-.5932588c-.4943821,0-.8898892-.3955053-.8898892-.8898873s.3955072-.8898873.8898892-.8898873v.1977536ZM66.179775,36.3685412c-.4943821,0-.8898892-.3955053-.8898892-.8898873s.3955072-.8898873.8898892-.8898873.8898892.3955053.8898892.8898873-.3955072.8898873-.8898892.8898873Z" fill="#9a916c"/>
        <circle cx="66.179775" cy="35.5775306" r=".8898883" fill="none" stroke="#332f25" stroke-miterlimit="3.9550564" stroke-width=".1977528"/>
        <path d="M69.0471924,29.1505639v-.5932588h-4.2516849v2.7685387h4.2516849v-.5932588c-.4943821,0-.8898892-.3955053-.8898892-.8898873s.3955072-.8898873.8898892-.8898873v.1977536ZM66.179775,30.8314618c-.4943821,0-.8898892-.3955053-.8898892-.8898873s.3955072-.8898873.8898892-.8898873.8898892.3955053.8898892.8898873-.3955072.8898873-.8898892.8898873Z" fill="#9a916c"/>
        <circle cx="66.179775" cy="30.0404513" r=".8898883" fill="none" stroke="#332f25" stroke-miterlimit="3.9550564" stroke-width=".1977528"/>
      </g>
      <g id="Bottom">
        <path d="M59.2584262,71.3707921v1.5820211h.593257c0-.4943821.3955072-.8898892.8898892-.8898892s.8898892.3955072.8898892.8898892h.593257v-1.5820211h-2.9662923Z" fill="#9a916c"/>
        <path d="M53.7213488,71.3707921v1.5820211h.593257c0-.4943821.3955072-.8898892.8898892-.8898892s.8898892.3955072.8898892.8898892h.593257v-1.5820211h-2.9662923Z" fill="#9a916c"/>
        <path d="M48.1842675,71.3707921v1.5820211h.593257c0-.4943821.3955072-.8898892.8898892-.8898892s.8898892.3955072.8898892.8898892h.593257v-1.5820211h-2.9662923Z" fill="#9a916c"/>
        <path d="M42.64719,71.3707921v1.5820211h.593257c0-.4943821.3955072-.8898892.8898892-.8898892s.8898892.3955072.8898892.8898892h.593257v-1.5820211h-2.9662923Z" fill="#9a916c"/>
        <path d="M37.0112338,71.3707921v1.5820211h.5932588c0-.4943821.3955053-.8898892.8898873-.8898892s.8898892.3955072.8898892.8898892h.593257v-1.5820211h-2.9662923Z" fill="#9a916c"/>
        <path d="M31.4741563,71.3707921v1.5820211h.5932588c0-.4943821.3955053-.8898892.8898873-.8898892s.8898873.3955072.8898873.8898892h.5932588v-1.5820211h-2.9662923Z" fill="#9a916c"/>
      </g>
      <g id="Left">
        <path d="M24.4539308,67.6134854v.593257c.4943821,0,.8898873.3955072.8898873.8898892s-.3955053.8898892-.8898873.8898892v.593257h4.2516868v-2.7685387h-4.2516849l-.0000019-.1977536ZM27.4202231,69.7887672c-.4943821,0-.8898873-.3955072-.8898873-.8898892s.3955053-.8898892.8898873-.8898892.8898873.3955072.8898873.8898892-.3955053.8898892-.8898873.8898892Z" fill="#9a916c"/>
        <circle cx="27.4202231" cy="68.9977567" r=".8898883" fill="none" stroke="#332f25" stroke-miterlimit="3.9550564" stroke-width=".1977528"/>
        <path d="M24.4539308,61.977533v.593257c.4943821,0,.8898873.3955072.8898873.8898892s-.3955053.8898892-.8898873.8898892v.593257h4.2516868v-2.7685387h-4.2516849l-.0000019-.1977536ZM27.4202231,64.2516897c-.4943821,0-.8898873-.3955072-.8898873-.8898892s.3955053-.8898892.8898873-.8898892.8898873.3955072.8898873.8898892-.3955053.8898892-.8898873.8898892Z" fill="#9a916c"/>
        <circle cx="27.4202231" cy="63.3618005" r=".8898883" fill="none" stroke="#332f25" stroke-miterlimit="3.9550564" stroke-width=".1977528"/>
        <path d="M24.4539308,56.4404518v.593257c.4943821,0,.8898873.3955072.8898873.8898892s-.3955053.8898892-.8898873.8898892v.593257h4.2516868v-2.7685387h-4.2516849l-.0000019-.1977536ZM27.4202231,58.7146085c-.4943821,0-.8898873-.3955072-.8898873-.8898892s.3955053-.8898892.8898873-.8898892.8898873.3955072.8898873.8898892-.3955053.8898892-.8898873.8898892Z" fill="#9a916c"/>
        <circle cx="27.4202231" cy="57.824723" r=".8898883" fill="none" stroke="#332f25" stroke-miterlimit="3.9550564" stroke-width=".1977528"/>
        <path d="M24.4539308,50.9033743v.593257c.4943821,0,.8898873.3955072.8898873.8898892s-.3955053.8898892-.8898873.8898892v.593257h4.2516868v-2.7685387h-4.2516849l-.0000019-.1977536ZM27.4202231,53.0786561c-.4943821,0-.8898873-.3955072-.8898873-.8898892s.3955053-.8898892.8898873-.8898892.8898873.3955072.8898873.8898892-.3955053.8898892-.8898873.8898892Z" fill="#9a916c"/>
        <circle cx="27.4202231" cy="52.2876418" r=".8898883" fill="none" stroke="#332f25" stroke-miterlimit="3.9550564" stroke-width=".1977528"/>
        <path d="M24.4539308,45.2674181v.593257c.4943821,0,.8898873.3955072.8898873.8898892s-.3955053.8898892-.8898873.8898892v.593257h4.2516868v-2.7685387h-4.2516849l-.0000019-.1977536ZM27.4202231,47.5415748c-.4943821,0-.8898873-.3955072-.8898873-.8898892s.3955053-.8898892.8898873-.8898892.8898873.3955072.8898873.8898892-.3955053.8898892-.8898873.8898892Z" fill="#9a916c"/>
        <circle cx="27.4202231" cy="46.7505643" r=".8898883" fill="none" stroke="#332f25" stroke-miterlimit="3.9550564" stroke-width=".1977528"/>
        <path d="M24.4539308,39.7303406v.593257c.4943821,0,.8898873.3955072.8898873.8898892s-.3955053.8898892-.8898873.8898892v.593257h4.2516868v-2.7685387h-4.2516849l-.0000019-.1977536ZM27.4202231,42.0044973c-.4943821,0-.8898873-.3955072-.8898873-.8898892s.3955053-.8898892.8898873-.8898892.8898873.3955072.8898873.8898892-.3955053.8898892-.8898873.8898892Z" fill="#9a916c"/>
        <circle cx="27.4202231" cy="41.1146081" r=".8898883" fill="none" stroke="#332f25" stroke-miterlimit="3.9550564" stroke-width=".1977528"/>
        <path d="M24.4539308,34.1932594v.5932588c.4943821,0,.8898873.3955053.8898873.8898873s-.3955053.8898873-.8898873.8898873v.5932588h4.2516868v-2.7685387h-4.2516849l-.0000019-.1977536ZM27.4202231,36.3685412c-.4943821,0-.8898873-.3955053-.8898873-.8898873s.3955053-.8898873.8898873-.8898873.8898873.3955053.8898873.8898873-.3955053.8898873-.8898873.8898873Z" fill="#9a916c"/>
        <circle cx="27.4202231" cy="35.5775306" r=".8898873" fill="none" stroke="#332f25" stroke-miterlimit="3.9550564" stroke-width=".1977528"/>
        <path d="M24.4539308,28.5573051v.5932588c.4943821,0,.8898873.3955053.8898873.8898873s-.3955053.8898873-.8898873.8898873v.5932588h4.2516868v-2.7685387h-4.2516849l-.0000019-.1977536ZM27.4202231,30.8314618c-.4943821,0-.8898873-.3955053-.8898873-.8898873s.3955053-.8898873.8898873-.8898873.8898873.3955053.8898873.8898873-.3955053.8898873-.8898873.8898873Z" fill="#9a916c"/>
        <circle cx="27.4202231" cy="30.0404513" r=".8898873" fill="none" stroke="#332f25" stroke-miterlimit="3.9550564" stroke-width=".1977528"/>
      </g>
    </g>
    <g id="LED1">
      <path d="M60.6426975,23.3168542c0-.1977536.1977536-.2966294.2966285-.2966294h2.3730354c.1977536,0,.2966285.1977526.2966285.2966294v2.3730335c0,.1977536-.1977536.2966285-.2966285.2966285h-2.3730354c-.1977536,0-.2966285-.0988768-.2966285-.2966285v-2.3730335Z" fill="#8c8c8c"/>
      <path d="M64.5977539,23.3168542c0-.1977536.1977536-.2966294.2966285-.2966294h2.3730354c.1977536,0,.2966285.1977526.2966285.2966294v2.3730335c0,.1977536-.1977536.2966285-.2966285.2966285h-2.3730354c-.1977536,0-.2966285-.0988768-.2966285-.2966285v-2.3730335Z" fill="#8c8c8c"/>
      <rect x="61.5325829" y="23.2179793" width="5.1415741" height="2.5707871" fill="#aaa"/>
      <rect x="62.6202257" y="23.2179793" width="3.0651672" height="2.5707871" fill="#fff"/>
    </g>
    <g id="Antenna">
      <path id="Antenna1" d="M35.0337056,25.2943824c0,.1977536,0,.2966285-.1977536.4943821s-.2966285.1977536-.4943821.1977536-.3955053,0-.4943821-.1977536c-.0988768-.0988768-.1977536-.2966285-.1977536-.4943821V8.6831462c0-.1977529,0-.3955056.1977536-.4943821.0988768-.0988764.2966285-.1977528.4943821-.1977528h3.0651691c.1977536,0,.3955053,0,.4943821.1977528.0988768.0988764.1977536.2966292.1977536.4943821v9.5910117h1.8786514v-9.5910117c0-.1977529,0-.3955056.1977536-.4943821.0988749-.0988764.2966285-.1977528.4943821-.1977528h3.0651672c.1977536,0,.3955072,0,.4943821.1977528.0988749.0988764.1977536.2966292.1977536.4943821v9.5910117h1.8786533v-9.5910117c0-.3955056.2966285-.6921349.6921356-.7910113h3.0651672c.1977536,0,.3955072,0,.4943821.1977528.0988749.0988764.1977536.2966293.1977536.4943821v9.5910113h1.8786533v-9.4921349c0-.1977529,0-.3955056.1977536-.4943821.0988749-.0988764.2966285-.1977528.4943821-.1977528h10.3820231c.3955072,0,.6921356.2966292.6921356.7910113s-.2966285.7910114-.6921356.7910114h-9.5910126v9.5910121c0,.1977526,0,.3955053-.1977536.4943821-.0988749.0988768-.2966285.1977526-.4943821.1977526h-3.3617995c-.1977536,0-.3955072,0-.4943821-.1977526-.0988749-.0988768-.1977536-.2966294-.1977536-.4943821v-9.6898887h-1.5820211v9.5910119c0,.1977526,0,.3955053-.1977536.4943821-.0988749.0988768-.2966285.1977526-.4943821.1977526h-3.3617995c-.1977536,0-.3955072,0-.4943821-.1977526s-.1977536-.2966294-.1977536-.4943821v-9.5910119h-1.5820211v9.5910119c0,.1977526,0,.3955053-.1977536.4943821-.0988749.0988768-.2966285.1977526-.4943821.1977526h-3.3617976c-.1977536,0-.3955053,0-.4943821-.1977526-.0988768-.0988768-.1977536-.2966294-.1977536-.4943821v-9.5910119h-1.5820229v14.3370788h18.5887645c.3955072,0,.7910105.2966285.7910105.6921356s-.2966285.7910105-.7910105.7910105h-18.6876412.0000019Z" fill="#9a916c"/>
      <circle cx="53.5235952" cy="24.5033719" r=".2966285" fill="#3f3f3f"/>
    </g>
  </g>
  <g id="copper1">
    <g id="copper0">
      <circle id="connector38pin" cx="10.885009" cy="149.9527559" r="1.5840001" fill="none" stroke="#ffbf00" stroke-width="1.152"/>
      <circle id="connector37pin" cx="10.885009" cy="142.7527559" r="1.5840001" fill="none" stroke="#ffbf00" stroke-width="1.152"/>
      <circle id="connector36pin" cx="10.885009" cy="135.5527559" r="1.5840001" fill="none" stroke="#ffbf00" stroke-width="1.152"/>
      <circle id="connector35pin" cx="10.885009" cy="128.3527559" r="1.5840001" fill="none" stroke="#ffbf00" stroke-width="1.152"/>
      <circle id="connector34pin" cx="10.885009" cy="121.1527559" r="1.5840001" fill="none" stroke="#ffbf00" stroke-width="1.152"/>
      <circle id="connector33pin" cx="10.885009" cy="113.9527559" r="1.5840001" fill="none" stroke="#ffbf00" stroke-width="1.152"/>
      <circle id="connector32pin" cx="10.885009" cy="106.7527559" r="1.5840001" fill="none" stroke="#ffbf00" stroke-width="1.152"/>
      <circle id="connector31pin" cx="10.885009" cy="99.5527559" r="1.5840001" fill="none" stroke="#ffbf00" stroke-width="1.152"/>
      <circle id="connector30pin" cx="10.885009" cy="92.3527559" r="1.5840001" fill="none" stroke="#ffbf00" stroke-width="1.152"/>
      <circle id="connector29pin" cx="10.885009" cy="85.1527559" r="1.5840001" fill="none" stroke="#ffbf00" stroke-width="1.152"/>
      <circle id="connector28pin" cx="10.885009" cy="77.9527559" r="1.5840001" fill="none" stroke="#ffbf00" stroke-width="1.152"/>
      <circle id="connector27pin" cx="10.885009" cy="70.7527559" r="1.5840001" fill="none" stroke="#ffbf00" stroke-width="1.152"/>
      <circle id="connector26pin" cx="10.885009" cy="63.5527559" r="1.5840001" fill="none" stroke="#ffbf00" stroke-width="1.152"/>
      <circle id="connector25pin" cx="10.885009" cy="56.3527559" r="1.5840001" fill="none" stroke="#ffbf00" stroke-width="1.152"/>
      <circle id="connector24pin" cx="10.885009" cy="49.1527559" r="1.5840001" fill="none" stroke="#ffbf00" stroke-width="1.152"/>
      <circle id="connector23pin" cx="10.885009" cy="41.9527559" r="1.5840001" fill="none" stroke="#ffbf00" stroke-width="1.152"/>
      <circle id="connector22pin" cx="10.885009" cy="34.7527559" r="1.5840001" fill="none" stroke="#ffbf00" stroke-width="1.152"/>
      <circle id="connector21pin" cx="10.885009" cy="27.5527559" r="1.5840001" fill="none" stroke="#ffbf00" stroke-width="1.152"/>
      <circle id="connector20pin" cx="10.885009" cy="20.3527559" r="1.5840001" fill="none" stroke="#ffbf00" stroke-width="1.152"/>
      <circle id="connector19pin" cx="82.885009" cy="20.3527559" r="1.5840001" fill="none" stroke="#ffbf00" stroke-width="1.152"/>
      <circle id="connector18pin" cx="82.885009" cy="27.5527559" r="1.5840001" fill="none" stroke="#ffbf00" stroke-width="1.152"/>
      <circle id="connector17pin" cx="82.885009" cy="34.7527559" r="1.5840001" fill="none" stroke="#ffbf00" stroke-width="1.152"/>
      <circle id="connector16pin" cx="82.885009" cy="41.9527559" r="1.5840001" fill="none" stroke="#ffbf00" stroke-width="1.152"/>
      <circle id="connector15pin" cx="82.885009" cy="49.1527559" r="1.5840001" fill="none" stroke="#ffbf00" stroke-width="1.152"/>
      <circle id="connector14pin" cx="82.885009" cy="56.3527559" r="1.5840001" fill="none" stroke="#ffbf00" stroke-width="1.152"/>
      <circle id="connector13pin" cx="82.885009" cy="63.5527559" r="1.5840001" fill="none" stroke="#ffbf00" stroke-width="1.152"/>
      <circle id="connector12pin" cx="82.885009" cy="70.7527559" r="1.5840001" fill="none" stroke="#ffbf00" stroke-width="1.152"/>
      <circle id="connector11pin" cx="82.885009" cy="77.9527559" r="1.5840001" fill="none" stroke="#ffbf00" stroke-width="1.152"/>
      <circle id="connector10pin" cx="82.885009" cy="85.1527559" r="1.5840001" fill="none" stroke="#ffbf00" stroke-width="1.152"/>
      <circle id="connector9pin" cx="82.885009" cy="92.3527559" r="1.5840001" fill="none" stroke="#ffbf00" stroke-width="1.152"/>
      <circle id="connector8pin" cx="82.885009" cy="99.5527559" r="1.5840001" fill="none" stroke="#ffbf00" stroke-width="1.152"/>
      <circle id="connector7pin" cx="82.885009" cy="106.7527559" r="1.5840001" fill="none" stroke="#ffbf00" stroke-width="1.152"/>
      <circle id="connector6pin" cx="82.885009" cy="113.9527559" r="1.5840001" fill="none" stroke="#ffbf00" stroke-width="1.152"/>
      <circle id="connector5pin" cx="82.885009" cy="121.1527559" r="1.5840001" fill="none" stroke="#ffbf00" stroke-width="1.152"/>
      <circle id="connector4pin" cx="82.885009" cy="128.3527559" r="1.5840001" fill="none" stroke="#ffbf00" stroke-width="1.152"/>
      <circle id="connector3pin" cx="82.885009" cy="135.5527559" r="1.5840001" fill="none" stroke="#ffbf00" stroke-width="1.152"/>
      <circle id="connector2pin" cx="82.885009" cy="142.7527559" r="1.5840001" fill="none" stroke="#ffbf00" stroke-width="1.152"/>
      <circle id="connector1pin" cx="82.885009" cy="149.9527559" r="1.5840001" fill="none" stroke="#ffbf00" stroke-width="1.152"/>
    </g>
  </g>
  <g id="pinLabels">
    <text transform="translate(16.5856934 151.835959) rotate(-90)" fill="#fff" font-family="OCRA" font-size="2.5999999" isolation="isolate"><tspan x="0" y="0">V5</tspan></text>
    <text transform="translate(16.5856934 145.5757159) rotate(-90)" fill="#fff" font-family="OCRA" font-size="2.5999999" isolation="isolate"><tspan x="0" y="0">CMD</tspan></text>
    <text transform="translate(16.5856934 138.3755206) rotate(-90)" fill="#fff" font-family="OCRA" font-size="2.5999999" isolation="isolate"><tspan x="0" y="0">S03</tspan></text>
    <text transform="translate(16.5856934 131.1753252) rotate(-90)" fill="#fff" font-family="OCRA" font-size="2.5999999" isolation="isolate"><tspan x="0" y="0">S02</tspan></text>
    <text transform="translate(16.5856934 123.9751299) rotate(-90)" fill="#fff" font-family="OCRA" font-size="2.5999999" isolation="isolate"><tspan x="0" y="0">G13</tspan></text>
    <text transform="translate(16.5856934 116.7749346) rotate(-90)" fill="#fff" font-family="OCRA" font-size="2.5999999" isolation="isolate"><tspan x="0" y="0">GND</tspan></text>
    <text transform="translate(16.5856934 109.5747393) rotate(-90)" fill="#fff" font-family="OCRA" font-size="2.5999999" isolation="isolate"><tspan x="0" y="0">G12</tspan></text>
    <text transform="translate(16.5856934 102.374544) rotate(-90)" fill="#fff" font-family="OCRA" font-size="2.5999999" isolation="isolate"><tspan x="0" y="0">G14</tspan></text>
    <text transform="translate(16.5856934 95.1743487) rotate(-90)" fill="#fff" font-family="OCRA" font-size="2.5999999" isolation="isolate"><tspan x="0" y="0">G27</tspan></text>
    <text transform="translate(16.5856934 87.9741534) rotate(-90)" fill="#fff" font-family="OCRA" font-size="2.5999999" isolation="isolate"><tspan x="0" y="0">G26</tspan></text>
    <text transform="translate(16.5856934 80.7739581) rotate(-90)" fill="#fff" font-family="OCRA" font-size="2.5999999" isolation="isolate"><tspan x="0" y="0">G25</tspan></text>
    <text transform="translate(16.5856934 73.5737627) rotate(-90)" fill="#fff" font-family="OCRA" font-size="2.5999999" isolation="isolate"><tspan x="0" y="0">G33</tspan></text>
    <text transform="translate(16.5856934 66.3735674) rotate(-90)" fill="#fff" font-family="OCRA" font-size="2.5999999" isolation="isolate"><tspan x="0" y="0">G32</tspan></text>
    <text transform="translate(16.5856934 59.1733721) rotate(-90)" fill="#fff" font-family="OCRA" font-size="2.5999999" isolation="isolate"><tspan x="0" y="0">G35</tspan></text>
    <text transform="translate(16.5856934 51.9731768) rotate(-90)" fill="#fff" font-family="OCRA" font-size="2.5999999" isolation="isolate"><tspan x="0" y="0">G34</tspan></text>
    <text transform="translate(16.5856934 43.8330293) rotate(-90)" fill="#fff" font-family="OCRA" font-size="2.5999999" isolation="isolate"><tspan x="0" y="0">SN</tspan></text>
    <text transform="translate(16.5856934 36.632834) rotate(-90)" fill="#fff" font-family="OCRA" font-size="2.5999999" isolation="isolate"><tspan x="0" y="0">SP</tspan></text>
    <text transform="translate(16.5856934 29.4326387) rotate(-90)" fill="#fff" font-family="OCRA" font-size="2.5999999" isolation="isolate"><tspan x="0" y="0">EN</tspan></text>
    <text transform="translate(16.5856934 23.1723956) rotate(-90)" fill="#fff" font-family="OCRA" font-size="2.5999999" isolation="isolate"><tspan x="0" y="0">3V3</tspan></text>
    <text transform="translate(78.947998 23.1723956) rotate(-90)" fill="#fff" font-family="OCRA" font-size="2.5999999" isolation="isolate"><tspan x="0" y="0">GND</tspan></text>
    <text transform="translate(78.947998 30.3725909) rotate(-90)" fill="#fff" font-family="OCRA" font-size="2.5999999" isolation="isolate"><tspan x="0" y="0">G23</tspan></text>
    <text transform="translate(78.947998 37.5727862) rotate(-90)" fill="#fff" font-family="OCRA" font-size="2.5999999" isolation="isolate"><tspan x="0" y="0">G22</tspan></text>
    <text transform="translate(78.947998 44.7729815) rotate(-90)" fill="#fff" font-family="OCRA" font-size="2.5999999" isolation="isolate"><tspan x="0" y="0">TXD</tspan></text>
    <text transform="translate(78.947998 51.9731768) rotate(-90)" fill="#fff" font-family="OCRA" font-size="2.5999999" isolation="isolate"><tspan x="0" y="0">RXD</tspan></text>
    <text transform="translate(78.947998 59.1733721) rotate(-90)" fill="#fff" font-family="OCRA" font-size="2.5999999" isolation="isolate"><tspan x="0" y="0">G21</tspan></text>
    <text transform="translate(78.947998 66.3735674) rotate(-90)" fill="#fff" font-family="OCRA" font-size="2.5999999" isolation="isolate"><tspan x="0" y="0">GND</tspan></text>
    <text transform="translate(78.947998 73.5737627) rotate(-90)" fill="#fff" font-family="OCRA" font-size="2.5999999" isolation="isolate"><tspan x="0" y="0">G19</tspan></text>
    <text transform="translate(78.947998 80.7739581) rotate(-90)" fill="#fff" font-family="OCRA" font-size="2.5999999" isolation="isolate"><tspan x="0" y="0">G18</tspan></text>
    <text transform="translate(78.947998 87.0342012) rotate(-90)" fill="#fff" font-family="OCRA" font-size="2.5999999" isolation="isolate"><tspan x="0" y="0">G5</tspan></text>
    <text transform="translate(78.947998 95.1743487) rotate(-90)" fill="#fff" font-family="OCRA" font-size="2.5999999" isolation="isolate"><tspan x="0" y="0">G17</tspan></text>
    <text transform="translate(78.947998 102.374544) rotate(-90)" fill="#fff" font-family="OCRA" font-size="2.5999999" isolation="isolate"><tspan x="0" y="0">G16</tspan></text>
    <text transform="translate(78.947998 108.6347871) rotate(-90)" fill="#fff" font-family="OCRA" font-size="2.5999999" isolation="isolate"><tspan x="0" y="0">G4</tspan></text>
    <text transform="translate(78.947998 115.8349825) rotate(-90)" fill="#fff" font-family="OCRA" font-size="2.5999999" isolation="isolate"><tspan x="0" y="0">G0</tspan></text>
    <text transform="translate(78.947998 123.0351778) rotate(-90)" fill="#fff" font-family="OCRA" font-size="2.5999999" isolation="isolate"><tspan x="0" y="0">G2</tspan></text>
    <text transform="translate(78.947998 131.1753252) rotate(-90)" fill="#fff" font-family="OCRA" font-size="2.5999999" isolation="isolate"><tspan x="0" y="0">G15</tspan></text>
    <text transform="translate(78.947998 138.3755206) rotate(-90)" fill="#fff" font-family="OCRA" font-size="2.5999999" isolation="isolate"><tspan x="0" y="0">S01</tspan></text>
    <text transform="translate(78.947998 145.5757159) rotate(-90)" fill="#fff" font-family="OCRA" font-size="2.5999999" isolation="isolate"><tspan x="0" y="0">S00</tspan></text>
    <text transform="translate(78.947998 152.7759112) rotate(-90)" fill="#fff" font-family="OCRA" font-size="2.5999999" isolation="isolate"><tspan x="0" y="0">CLK</tspan></text>
  </g>
</svg>