<?xml version="1.0" encoding="UTF-8"?>
<svg id="Layer_1" xmlns="http://www.w3.org/2000/svg" width=".8in" height="2in" version="1.1" viewBox="0 0 57.6 144">
  <!-- Generator: Adobe Illustrator 29.1.0, SVG Export Plug-In . SVG Version: 2.1.0 Build 142)  -->
  <path id="pcb" d="M8.5499878,9v126h40.5V9H8.5499878ZM18,131.18396c-.8748169,0-1.5839844-.7091675-1.5839844-1.5839844s.7091675-1.5839844,1.5839844-1.5839844,1.5839844.7091675,1.5839844,1.5839844-.7091675,1.5839844-1.5839844,1.5839844ZM18,15.9840088c-.8748169,0-1.5839844-.7092285-1.5839844-1.5840454s.7091675-1.5839844,1.5839844-1.5839844,1.5839844.7091675,1.5839844,1.5839844-.7091675,1.5840454-1.5839844,1.5840454ZM25.2000122,131.18396c-.8748169,0-1.5839844-.7091675-1.5839844-1.5839844s.7091675-1.5839844,1.5839844-1.5839844,1.5839844.7091675,1.5839844,1.5839844-.7091675,1.5839844-1.5839844,1.5839844ZM25.2000122,15.9840088c-.8748169,0-1.5839844-.7092285-1.5839844-1.5840454s.7091675-1.5839844,1.5839844-1.5839844,1.5839844.7091675,1.5839844,1.5839844-.7091675,1.5840454-1.5839844,1.5840454ZM32.4000244,131.18396c-.8748169,0-1.5840454-.7091675-1.5840454-1.5839844s.7092285-1.5839844,1.5840454-1.5839844,1.5839844.7091675,1.5839844,1.5839844-.7091675,1.5839844-1.5839844,1.5839844ZM32.4000244,15.9840088c-.8748169,0-1.5840454-.7092285-1.5840454-1.5840454s.7092285-1.5839844,1.5840454-1.5839844,1.5839844.7091675,1.5839844,1.5839844-.7091675,1.5840454-1.5839844,1.5840454ZM39.5999756,131.18396c-.8748169,0-1.5839844-.7091675-1.5839844-1.5839844s.7091675-1.5839844,1.5839844-1.5839844,1.5840454.7091675,1.5840454,1.5839844-.7092285,1.5839844-1.5840454,1.5839844ZM39.5999756,15.9840088c-.8748169,0-1.5839844-.7092285-1.5839844-1.5840454s.7091675-1.5839844,1.5839844-1.5839844,1.5840454.7091675,1.5840454,1.5839844-.7092285,1.5840454-1.5840454,1.5840454Z" fill="#093159"/>
  <g id="copper0">
    <g id="copper1">
      <circle id="connector7pin" cx="39.6" cy="129.6" r="1.5839999" fill="none" stroke="#ffbf00" stroke-width="1.152"/>
      <circle id="connector6pin" cx="32.4" cy="129.6" r="1.5839996" fill="none" stroke="#ffbf00" stroke-width="1.152"/>
      <circle id="connector5pin" cx="25.2" cy="129.6" r="1.5839996" fill="none" stroke="#ffbf00" stroke-width="1.152"/>
      <circle id="connector4pin" cx="18" cy="129.6" r="1.5839996" fill="none" stroke="#ffbf00" stroke-width="1.152"/>
      <circle id="connector3pin" cx="39.6" cy="14.4" r="1.5839999" fill="none" stroke="#ffbf00" stroke-width="1.152"/>
      <circle id="connector2pin" cx="32.4" cy="14.4" r="1.5839999" fill="none" stroke="#ffbf00" stroke-width="1.152"/>
      <circle id="connector1pin" cx="25.2" cy="14.4" r="1.5839999" fill="none" stroke="#ffbf00" stroke-width="1.152"/>
      <circle id="connector0pin" cx="18" cy="14.4" r="1.5840001" fill="none" stroke="#ffbf00" stroke-width="1.152"/>
    </g>
  </g>
  <g id="pinlabels">
    <text transform="translate(15.1803877 20.6816406)" fill="#fff" font-family="OCRA" font-size="2.5999999" isolation="isolate"><tspan x="0" y="0">VCC</tspan></text>
    <text transform="translate(24.2602431 20.6816406)" fill="#fff" font-family="OCRA" font-size="2.5999999" isolation="isolate"><tspan x="0" y="0">A</tspan></text>
    <text transform="translate(31.4601943 20.6816406)" fill="#fff" font-family="OCRA" font-size="2.5999999" isolation="isolate"><tspan x="0" y="0">B</tspan></text>
    <text transform="translate(36.7802412 20.6816406)" fill="#fff" font-family="OCRA" font-size="2.5999999" isolation="isolate"><tspan x="0" y="0">GND</tspan></text>
    <text transform="translate(16.1203398 125.0820312)" fill="#fff" font-family="OCRA" font-size="2.5999999" isolation="isolate"><tspan x="0" y="0">RO</tspan></text>
    <text transform="translate(23.320291 125.0820312)" fill="#fff" font-family="OCRA" font-size="2.5999999" isolation="isolate"><tspan x="0" y="0">RE</tspan></text>
    <text transform="translate(30.5202422 125.0820312)" fill="#fff" font-family="OCRA" font-size="2.5999999" isolation="isolate"><tspan x="0" y="0">DE</tspan></text>
    <text transform="translate(37.7201933 125.0820312)" fill="#fff" font-family="OCRA" font-size="2.5999999" isolation="isolate"><tspan x="0" y="0">DI</tspan></text>
  </g>
  <g id="components">
    <g id="C8">
      <path d="M44.5512821,86.7948666s.0988768,0,.0988768.0988749v.9887641s0,.0988749-.0988768.0988749h-.9887641s-.0988768,0-.0988768-.0988749v-.9887641s0-.0988749.0988768-.0988749h.9887641Z" fill="#8c8c8c"/>
      <path d="M44.5512821,89.0690195s.0988768,0,.0988768.0988749v.9887641s0,.0988749-.0988768.0988749h-.9887641s-.0988768,0-.0988768-.0988749v-.9887641s0-.0988749.0988768-.0988749h.9887641Z" fill="#8c8c8c"/>
      <rect x="43.5625179" y="87.4869984" width=".9887641" height="2.0764031" fill="#aaa"/>
      <rect x="43.5625179" y="87.8825056" width=".9887641" height="1.3842713" fill="#724527"/>
    </g>
    <g id="LED">
      <path d="M37.059565,49.7203823c0-.1977498.1977536-.2966322.2966285-.2966322h2.3730335c.1977536,0,.2966285.1977498.2966285.2966322v2.3730354c0,.1977498-.1977536.2966322-.2966285.2966322h-2.3730335c-.1977536,0-.2966285-.0988749-.2966285-.2966322v-2.3730354Z" fill="#8c8c8c"/>
      <path d="M40.9157446,49.7203823c0-.1977498.1977536-.2966322.2966285-.2966322h2.3730335c.1977536,0,.2966285.1977498.2966285.2966322v2.3730354c0,.1977498-.1977536.2966322-.2966285.2966322h-2.3730335c-.1977536,0-.2966285-.0988749-.2966285-.2966322v-2.3730354Z" fill="#8c8c8c"/>
      <rect x="37.9494523" y="49.6215074" width="5.1415722" height="2.5707852" fill="#aaa"/>
      <rect x="38.9382164" y="49.6215074" width="3.0651691" height="2.5707852" fill="#fff"/>
    </g>
    <g id="R1">
      <path d="M15.4230468,105.3944897c.0988768,0,.1977526,0,.1977526.1977526v1.2853926c0,.0988768,0,.1977536-.1977526.1977536h-1.2853935c-.0988768,0-.1977526,0-.1977526-.1977536v-1.2853935c0-.0988768,0-.1977526.1977526-.1977526,0,0,1.2853935,0,1.2853935.0000009Z" fill="#8c8c8c"/>
      <path d="M15.4230468,108.6574115c.0988768,0,.1977526,0,.1977526.1977536v1.2853926c0,.0988768,0,.1977536-.1977526.1977536h-1.2853935c-.0988768,0-.1977526,0-.1977526-.1977536v-1.2853926c0-.0988768,0-.1977536.1977526-.1977536h1.2853935Z" fill="#8c8c8c"/>
      <rect x="14.0387764" y="106.4821297" width="1.3842694" height="2.8674155" fill="#aaa"/>
      <rect x="14.0387764" y="106.9765117" width="1.3842694" height="1.8786514"/>
    </g>
    <g id="R11" data-name="R1">
      <path d="M15.2762468,66.5337897c.0988768,0,.1977526,0,.1977526.1977526v1.2853926c0,.0988768,0,.1977536-.1977526.1977536h-1.2853935c-.0988768,0-.1977526,0-.1977526-.1977536v-1.2853935c0-.0988768,0-.1977526.1977526-.1977526,0,0,1.2853935,0,1.2853935.0000009Z" fill="#8c8c8c"/>
      <path d="M15.2762468,69.7967115c.0988768,0,.1977526,0,.1977526.1977536v1.2853926c0,.0988768,0,.1977536-.1977526.1977536h-1.2853935c-.0988768,0-.1977526,0-.1977526-.1977536v-1.2853926c0-.0988768,0-.1977536.1977526-.1977536h1.2853935Z" fill="#8c8c8c"/>
      <rect x="13.8919764" y="67.6214297" width="1.3842694" height="2.8674155" fill="#aaa"/>
      <rect x="13.8919764" y="68.1158117" width="1.3842694" height="1.8786514"/>
    </g>
    <g id="R12" data-name="R1">
      <path d="M23.2934103,51.6958968c0,.0988768,0,.1977526-.1977526.1977526h-1.2853926c-.0988768,0-.1977536,0-.1977536-.1977526v-1.2853935c0-.0988768,0-.1977526.1977536-.1977526h1.2853935c.0988768,0,.1977526,0,.1977526.1977526,0,0,0,1.2853935-.0000009,1.2853935Z" fill="#8c8c8c"/>
      <path d="M20.0304885,51.6958968c0,.0988768,0,.1977526-.1977536.1977526h-1.2853926c-.0988768,0-.1977536,0-.1977536-.1977526v-1.2853935c0-.0988768,0-.1977526.1977536-.1977526h1.2853926c.0988768,0,.1977536,0,.1977536.1977526v1.2853935Z" fill="#8c8c8c"/>
      <rect x="20.0799279" y="49.5700534" width="1.3842694" height="2.8674155" transform="translate(71.7758237 30.2316986) rotate(90)" fill="#aaa"/>
      <rect x="20.0799279" y="50.0644354" width="1.3842694" height="1.8786514" transform="translate(71.7758237 30.2316986) rotate(90)"/>
    </g>
    <g id="R13" data-name="R1">
      <path d="M24.7590468,66.5337897c.0988768,0,.1977526,0,.1977526.1977526v1.2853926c0,.0988768,0,.1977536-.1977526.1977536h-1.2853935c-.0988768,0-.1977526,0-.1977526-.1977536v-1.2853935c0-.0988768,0-.1977526.1977526-.1977526,0,0,1.2853935,0,1.2853935.0000009Z" fill="#8c8c8c"/>
      <path d="M24.7590468,69.7967115c.0988768,0,.1977526,0,.1977526.1977536v1.2853926c0,.0988768,0,.1977536-.1977526.1977536h-1.2853935c-.0988768,0-.1977526,0-.1977526-.1977536v-1.2853926c0-.0988768,0-.1977536.1977526-.1977536h1.2853935Z" fill="#8c8c8c"/>
      <rect x="23.3747764" y="67.6214297" width="1.3842694" height="2.8674155" fill="#aaa"/>
      <rect x="23.3747764" y="68.1158117" width="1.3842694" height="1.8786514"/>
    </g>
    <g id="R14" data-name="R1">
      <path d="M34.9110968,66.5337897c.0988768,0,.1977526,0,.1977526.1977526v1.2853926c0,.0988768,0,.1977536-.1977526.1977536h-1.2853935c-.0988768,0-.1977526,0-.1977526-.1977536v-1.2853935c0-.0988768,0-.1977526.1977526-.1977526,0,0,1.2853935,0,1.2853935.0000009Z" fill="#8c8c8c"/>
      <path d="M34.9110968,69.7967115c.0988768,0,.1977526,0,.1977526.1977536v1.2853926c0,.0988768,0,.1977536-.1977526.1977536h-1.2853935c-.0988768,0-.1977526,0-.1977526-.1977536v-1.2853926c0-.0988768,0-.1977536.1977526-.1977536h1.2853935Z" fill="#8c8c8c"/>
      <rect x="33.5268264" y="67.6214297" width="1.3842694" height="2.8674155" fill="#aaa"/>
      <rect x="33.5268264" y="68.1158117" width="1.3842694" height="1.8786514"/>
    </g>
    <g id="R15" data-name="R1">
      <path d="M44.6995968,66.5337897c.0988768,0,.1977526,0,.1977526.1977526v1.2853926c0,.0988768,0,.1977536-.1977526.1977536h-1.2853935c-.0988768,0-.1977526,0-.1977526-.1977536v-1.2853935c0-.0988768,0-.1977526.1977526-.1977526,0,0,1.2853935,0,1.2853935.0000009Z" fill="#8c8c8c"/>
      <path d="M44.6995968,69.7967115c.0988768,0,.1977526,0,.1977526.1977536v1.2853926c0,.0988768,0,.1977536-.1977526.1977536h-1.2853935c-.0988768,0-.1977526,0-.1977526-.1977536v-1.2853926c0-.0988768,0-.1977536.1977526-.1977536h1.2853935Z" fill="#8c8c8c"/>
      <rect x="43.3153264" y="67.6214297" width="1.3842694" height="2.8674155" fill="#aaa"/>
      <rect x="43.3153264" y="68.1158117" width="1.3842694" height="1.8786514"/>
    </g>
    <g id="R16" data-name="R1">
      <path d="M25.0019468,105.3944897c.0988768,0,.1977526,0,.1977526.1977526v1.2853926c0,.0988768,0,.1977536-.1977526.1977536h-1.2853935c-.0988768,0-.1977526,0-.1977526-.1977536v-1.2853935c0-.0988768,0-.1977526.1977526-.1977526,0,0,1.2853935,0,1.2853935.0000009Z" fill="#8c8c8c"/>
      <path d="M25.0019468,108.6574115c.0988768,0,.1977526,0,.1977526.1977536v1.2853926c0,.0988768,0,.1977536-.1977526.1977536h-1.2853935c-.0988768,0-.1977526,0-.1977526-.1977536v-1.2853926c0-.0988768,0-.1977536.1977526-.1977536h1.2853935Z" fill="#8c8c8c"/>
      <rect x="23.6176764" y="106.4821297" width="1.3842694" height="2.8674155" fill="#aaa"/>
      <rect x="23.6176764" y="106.9765117" width="1.3842694" height="1.8786514"/>
    </g>
    <g id="R17" data-name="R1">
      <path d="M34.3238968,105.3944897c.0988768,0,.1977526,0,.1977526.1977526v1.2853926c0,.0988768,0,.1977536-.1977526.1977536h-1.2853935c-.0988768,0-.1977526,0-.1977526-.1977536v-1.2853935c0-.0988768,0-.1977526.1977526-.1977526,0,0,1.2853935,0,1.2853935.0000009Z" fill="#8c8c8c"/>
      <path d="M34.3238968,108.6574115c.0988768,0,.1977526,0,.1977526.1977536v1.2853926c0,.0988768,0,.1977536-.1977526.1977536h-1.2853935c-.0988768,0-.1977526,0-.1977526-.1977536v-1.2853926c0-.0988768,0-.1977536.1977526-.1977536h1.2853935Z" fill="#8c8c8c"/>
      <rect x="32.9396264" y="106.4821297" width="1.3842694" height="2.8674155" fill="#aaa"/>
      <rect x="32.9396264" y="106.9765117" width="1.3842694" height="1.8786514"/>
    </g>
    <g id="R18" data-name="R1">
      <path d="M44.6734968,105.3944897c.0988768,0,.1977526,0,.1977526.1977526v1.2853926c0,.0988768,0,.1977536-.1977526.1977536h-1.2853935c-.0988768,0-.1977526,0-.1977526-.1977536v-1.2853935c0-.0988768,0-.1977526.1977526-.1977526,0,0,1.2853935,0,1.2853935.0000009Z" fill="#8c8c8c"/>
      <path d="M44.6734968,108.6574115c.0988768,0,.1977526,0,.1977526.1977536v1.2853926c0,.0988768,0,.1977536-.1977526.1977536h-1.2853935c-.0988768,0-.1977526,0-.1977526-.1977536v-1.2853926c0-.0988768,0-.1977536.1977526-.1977536h1.2853935Z" fill="#8c8c8c"/>
      <rect x="43.2892264" y="106.4821297" width="1.3842694" height="2.8674155" fill="#aaa"/>
      <rect x="43.2892264" y="106.9765117" width="1.3842694" height="1.8786514"/>
    </g>
    <g id="MAX485">
      <rect x="14.236" y="82.9649" width="17.3364" height="11.0913" fill="#3f3f3f"/>
      <rect x="14.5731" y="83.1805" width="16.6623" height="10.6601"/>
      <line x1="14.236" y1="88.5106" x2="14.236" y2="88.5106" fill="none" stroke="#404040" stroke-linecap="round" stroke-linejoin="round" stroke-width=".1"/>
      <g isolation="isolate">
        <text transform="translate(15.8271484 89.6166992)" fill="#ccc" font-family="OCRA" font-size="3.2629216" isolation="isolate"><tspan x="0" y="0">MAX485</tspan></text>
      </g>
      <g>
        <g>
          <rect x="16.3886" y="79.4434" width="1.7626" height="1.3503" fill="#aaa"/>
          <rect x="16.3886" y="80.7937" width="1.7626" height="1.7025375" fill="#828282"/>
          <rect x="16.3886" y="82.4962375" width="1.7626" height=".5290625" fill="#aaa"/>
        </g>
        <g>
          <rect x="20.1448" y="79.4434" width="1.7626" height="1.3503" fill="#aaa"/>
          <rect x="20.1448" y="80.7937" width="1.7626" height="1.7025375" fill="#828282"/>
          <rect x="20.1448" y="82.4962375" width="1.7626" height=".5290625" fill="#aaa"/>
        </g>
        <g>
          <rect x="23.90105" y="79.4434" width="1.7626" height="1.3503" fill="#aaa"/>
          <rect x="23.90105" y="80.7937" width="1.7626" height="1.7025375" fill="#828282"/>
          <rect x="23.90105" y="82.4962375" width="1.7626" height=".5290625" fill="#aaa"/>
        </g>
        <g>
          <rect x="27.6572" y="79.4434" width="1.7626" height="1.3503" fill="#aaa"/>
          <rect x="27.6572" y="80.7937" width="1.7626" height="1.7025375" fill="#828282"/>
          <rect x="27.6572" y="82.4962375" width="1.7626" height=".5290625" fill="#aaa"/>
        </g>
      </g>
      <g>
        <g>
          <rect x="16.3886" y="96.2274" width="1.7626" height="1.3503" fill="#aaa"/>
          <rect x="16.3886" y="94.5248625" width="1.7626" height="1.7025375" fill="#828282"/>
          <rect x="16.3886" y="93.9958" width="1.7626" height=".5290625" fill="#aaa"/>
        </g>
        <g>
          <rect x="20.1448" y="96.2274" width="1.7626" height="1.3503" fill="#aaa"/>
          <rect x="20.1448" y="94.5248625" width="1.7626" height="1.7025375" fill="#828282"/>
          <rect x="20.1448" y="93.9958" width="1.7626" height=".5290625" fill="#aaa"/>
        </g>
        <g>
          <rect x="23.90105" y="96.2274" width="1.7626" height="1.3503" fill="#aaa"/>
          <rect x="23.90105" y="94.5248625" width="1.7626" height="1.7025375" fill="#828282"/>
          <rect x="23.90105" y="93.9958" width="1.7626" height=".5290625" fill="#aaa"/>
        </g>
        <g>
          <rect x="27.6572" y="96.2274" width="1.7626" height="1.3503" fill="#aaa"/>
          <rect x="27.6572" y="94.5248625" width="1.7626" height="1.7025375" fill="#828282"/>
          <rect x="27.6572" y="93.9958" width="1.7626" height=".5290625" fill="#aaa"/>
        </g>
      </g>
    </g>
  </g>
  <g id="screwterminal">
    <polygon id="background" points="43.4871358 41.0443921 43.4871358 36.370527 42.9128629 36.370527 42.9128629 24.1015983 14.6871371 24.1015984 14.6871371 36.370527 15.2614508 36.370527 15.2614508 41.0443921 14.6871371 41.0443921 14.6871371 46.7970046 42.9128629 46.7970046 42.9128629 41.0443921 43.4871358 41.0443921" fill="#378955"/>
    <rect id="upperstripe" x="14.9399924" y="45.6245495" width="27.7552775" height=".8294918" fill="#58ab78"/>
    <rect id="lowerrect" x="14.6871371" y="24.1035979" width="28.2257258" height="10.2928904" fill="#206634"/>
    <g id="plus0">
      <g>
        <path d="M16.7668282,40.0553858l9.9593564.0000005c0-2.7955579-2.2345344-5.0646959-4.9786988-5.0646959-2.7500544,0-4.9826303,2.2671496-4.9806575,5.0646954Z" fill="#498e63"/>
        <path d="M26.7261856,40.0553858h-9.9593571c0,2.791555,2.2325756,5.0626941,4.9806571,5.0626941s4.9786845-2.2671502,4.9786999-5.0626941Z" fill="#206634"/>
      </g>
      <g>
        <g>
          <path d="M21.7474857,35.9478006c2.2266864,0,4.0378319,1.8424363,4.039804,4.1115743,0,2.2671358-1.8111445,4.1095726-4.039804,4.1095726-2.2306173,0-4.0417631-1.844424-4.0417631-4.1095726,0-2.2691375,1.8111458-4.1115743,4.0417631-4.1115743h0Z" fill="#8b8b8b"/>
          <path d="M21.7474857,44.0891855c-2.1914208,0-3.9672862-1.8065376-3.9653279-4.0298111,0-2.2252752,1.7758797-4.031812,3.9653279-4.031812s3.9613967,1.8065368,3.9613967,4.031812c0,2.2232735-1.7719485,4.0298111-3.9613967,4.0298111M21.7474857,44.2367423c2.2658834,0,4.1103648-1.87632,4.1123225-4.1833582,0-2.3130142-1.8483837-4.187347-4.1123225-4.187347-2.2717726,0-4.1162397,1.8803232-4.1162397,4.187347,0,2.3070239,1.8483837,4.1833582,4.1162397,4.1833582h0Z"/>
        </g>
        <path d="M25.5893106,41.0025155c.0764451-.3110603.1215275-.6241135.1215275-.9491314,0-.3329939-.0490034-.6500346-.1215275-.9551129h-7.6875839c-.0725243.3130543-.1215272.6261075-.1215272.9551129,0,.3250223.0490031.6440542.121536.949133l7.6875751-.0000016Z" fill="#707070"/>
        <g>
          <rect x="20.812508" y="36.6377189" width="1.8660382" height="6.8353338" fill="#545254"/>
          <rect x="18.8073082" y="39.1062533" width="5.8783967" height="1.8962638" fill="#545254"/>
        </g>
        <g opacity=".5">
          <path d="M21.7474857,43.7562c-2.0071729,0-3.6399456-1.6609822-3.6379727-3.6968251,0-2.0378303,1.6327729-3.6988125,3.6379727-3.6988125,2.0012832,0,3.6340558,1.65898,3.6340558,3.698812,0,2.0358434-1.6327726,3.6968256-3.6340558,3.6968256M21.7474857,44.0891855c2.1894482,0,3.9653134-1.8065376,3.9613967-4.0298105,0-2.2252752-1.7719496-4.0318125-3.9613967-4.0318125s-3.9653134,1.8065368-3.9653134,4.031812c0,2.2232735,1.7758652,4.0298111,3.9653134,4.0298111h0Z"/>
        </g>
      </g>
    </g>
    <g id="maul0">
      <rect x="16.7648554" y="29.2121567" width="9.9613148" height="4.053744" fill="#21562e"/>
      <rect x="16.7648554" y="25.0048525" width="9.9613148" height="4.2052894" fill="#378955"/>
      <rect x="19.3071323" y="24.1075749" width="4.8767754" height="5.0507268" fill="#378955"/>
      <rect x="17.1725625" y="25.2979919" width="9.1498317" height="7.6129922" fill="#8d8c8d"/>
      <path d="M17.8037292,28.6757712h7.879665c0-1.6230893-1.7660588-2.9311346-3.9359085-2.9311346-2.1757395,0-3.9398399,1.3080959-3.9437565,2.9311346Z" fill="#a0a0a0"/>
      <path d="M25.6833942,28.6677512h-7.879665c0,1.6171127,1.7699902,2.9251581,3.9437565,2.9251581s3.9339496-1.307952,3.9359085-2.9251581Z" fill="#565656"/>
      <ellipse cx="21.7455126" cy="28.6678369" rx="3.0538656" ry="2.2691381" fill="#383838"/>
      <g>
        <polygon points="24.3367923 30.0257569 25.7735524 31.9259807 26.1969413 31.7983976 26.3223941 32.8371988 17.296057 32.9648116 17.1725625 31.9259807 17.8311609 31.8741417 19.1287594 30.0257569 24.3367923 30.0257569" fill="#929291"/>
        <path d="M26.0715027,32.709586h-8.6460762s0-.6560211,0-.6560211h.4312224l.0764352-.1016642,1.3211279-1.7985596h5.0218127s1.2995562,1.7965436,1.2995562,1.7965436l.0725328.1036802h.1274117s.2959772.0000044.2959772.0000044v.6560167M26.3223941,32.9648116l-.0039177-1.1664733h-.546873s-1.3740424-1.9002524-1.3740424-1.9002524h-5.2688016s-1.3975633,1.9002524-1.3975633,1.9002524h-.5586336v1.1664733h9.1498317Z" fill="#585a59"/>
      </g>
      <rect x="19.6952408" y="22.3249554" width="4.1044893" height="3.0009308" fill="#8c8c8c"/>
    </g>
    <g id="plus1">
      <g>
        <path d="M31.1668278,40.0553858l9.9593564.0000005c0-2.7955579-2.2345344-5.0646959-4.9786988-5.0646959-2.7500544,0-4.9826303,2.2671496-4.9806575,5.0646954Z" fill="#498e63"/>
        <path d="M41.1261853,40.0553858h-9.9593571c0,2.791555,2.2325756,5.0626941,4.9806571,5.0626941s4.9786845-2.2671502,4.9786999-5.0626941Z" fill="#206634"/>
      </g>
      <g>
        <g>
          <path d="M36.1474853,35.9478006c2.2266864,0,4.0378319,1.8424363,4.039804,4.1115743,0,2.2671358-1.8111445,4.1095726-4.039804,4.1095726-2.2306173,0-4.0417631-1.844424-4.0417631-4.1095726,0-2.2691375,1.8111458-4.1115743,4.0417631-4.1115743h0Z" fill="#8b8b8b"/>
          <path d="M36.1474853,44.0891855c-2.1914208,0-3.9672862-1.8065376-3.9653279-4.0298111,0-2.2252752,1.7758797-4.031812,3.9653279-4.031812s3.9613967,1.8065368,3.9613967,4.031812c0,2.2232735-1.7719485,4.0298111-3.9613967,4.0298111M36.1474853,44.2367423c2.2658834,0,4.1103648-1.87632,4.1123225-4.1833582,0-2.3130142-1.8483837-4.187347-4.1123225-4.187347-2.2717726,0-4.1162397,1.8803232-4.1162397,4.187347,0,2.3070239,1.8483837,4.1833582,4.1162397,4.1833582h0Z"/>
        </g>
        <path d="M39.9893102,41.0025155c.0764451-.3110603.1215275-.6241135.1215275-.9491314,0-.3329939-.0490034-.6500346-.1215275-.9551129h-7.6875839c-.0725243.3130543-.1215272.6261075-.1215272.9551129,0,.3250223.0490031.6440542.121536.949133l7.6875751-.0000016Z" fill="#707070"/>
        <g>
          <rect x="35.2125077" y="36.6377189" width="1.8660382" height="6.8353338" fill="#545254"/>
          <rect x="33.2073078" y="39.1062533" width="5.8783967" height="1.8962638" fill="#545254"/>
        </g>
        <g opacity=".5">
          <path d="M36.1474853,43.7562c-2.0071729,0-3.6399456-1.6609822-3.6379727-3.6968251,0-2.0378303,1.6327729-3.6988125,3.6379727-3.6988125,2.0012832,0,3.6340558,1.65898,3.6340558,3.698812,0,2.0358434-1.6327726,3.6968256-3.6340558,3.6968256M36.1474853,44.0891855c2.1894482,0,3.9653134-1.8065376,3.9613967-4.0298105,0-2.2252752-1.7719496-4.0318125-3.9613967-4.0318125s-3.9653134,1.8065368-3.9653134,4.031812c0,2.2232735,1.7758652,4.0298111,3.9653134,4.0298111h0Z"/>
        </g>
      </g>
    </g>
    <g id="maul1">
      <rect x="31.1648551" y="29.2121567" width="9.9613148" height="4.053744" fill="#21562e"/>
      <rect x="31.1648551" y="25.0048525" width="9.9613148" height="4.2052894" fill="#378955"/>
      <rect x="33.7071319" y="24.1075749" width="4.8767754" height="5.0507268" fill="#378955"/>
      <rect x="31.5725621" y="25.2979919" width="9.1498317" height="7.6129922" fill="#8d8c8d"/>
      <path d="M32.2037288,28.6757712h7.879665c0-1.6230893-1.7660588-2.9311346-3.9359085-2.9311346-2.1757395,0-3.9398399,1.3080959-3.9437565,2.9311346Z" fill="#a0a0a0"/>
      <path d="M40.0833938,28.6677512h-7.879665c0,1.6171127,1.7699902,2.9251581,3.9437565,2.9251581s3.9339496-1.307952,3.9359085-2.9251581Z" fill="#565656"/>
      <ellipse cx="36.1455123" cy="28.6678369" rx="3.0538656" ry="2.2691381" fill="#383838"/>
      <g>
        <polygon points="38.7367919 30.0257569 40.173552 31.9259807 40.5969409 31.7983976 40.7223938 32.8371988 31.6960566 32.9648116 31.5725621 31.9259807 32.2311606 31.8741417 33.528759 30.0257569 38.7367919 30.0257569" fill="#929291"/>
        <path d="M40.4715023,32.709586h-8.6460762s0-.6560211,0-.6560211h.4312224l.0764352-.1016642,1.3211279-1.7985596h5.0218127s1.2995562,1.7965436,1.2995562,1.7965436l.0725328.1036802h.1274117s.2959772.0000044.2959772.0000044v.6560167M40.7223938,32.9648116l-.0039177-1.1664733h-.546873s-1.3740424-1.9002524-1.3740424-1.9002524h-5.2688016s-1.3975633,1.9002524-1.3975633,1.9002524h-.5586336v1.1664733h9.1498317Z" fill="#585a59"/>
      </g>
      <rect x="34.0952404" y="22.3249554" width="4.1044893" height="3.0009308" fill="#8c8c8c"/>
    </g>
  </g>
</svg>