G04 MADE WITH FRITZING*
G04 WWW.FRITZING.ORG*
G04 DOUBLE SIDED*
G04 HOLES PLATED*
G04 CONTOUR ON CENTER OF CONTOUR VECTOR*
%FSLAX26Y26*%
%MOIN*%
%ADD10C,0.076667*%
%ADD11C,0.080000*%
%ADD12C,0.075000*%
%ADD13C,0.079370*%
%ADD14C,0.070000*%
%ADD15C,0.075306*%
%ADD16R,0.080000X0.080000*%
%ADD17R,0.075000X0.075000*%
%ADD18R,0.079370X0.079370*%
%ADD19C,0.024000*%
%ADD20C,0.064000*%
G04 COPPER1*
%FSLAX26Y26*%
%MOIN*%
D10*
X185000Y385650D03*
X285000Y385650D03*
X385000Y385650D03*
X485000Y385650D03*
X585000Y385650D03*
X685000Y385650D03*
X785000Y385650D03*
X885000Y385650D03*
X985000Y385650D03*
X1085000Y385650D03*
X1185000Y385650D03*
X1285000Y385650D03*
X1385000Y385650D03*
X1485000Y385650D03*
X1585000Y385650D03*
X1685000Y385650D03*
X1785000Y385650D03*
X1885000Y385650D03*
X1985000Y385650D03*
X1985000Y1385651D03*
X1885000Y1385651D03*
X1785000Y1385651D03*
X1685000Y1385651D03*
X1585000Y1385651D03*
X1485000Y1385651D03*
X1385000Y1385651D03*
X1285000Y1385651D03*
X1185000Y1385651D03*
X1085000Y1385651D03*
X985000Y1385651D03*
X885000Y1385651D03*
X785000Y1385651D03*
X685000Y1385651D03*
X585000Y1385651D03*
X485000Y1385651D03*
X385000Y1385651D03*
X285000Y1385651D03*
X185000Y1385651D03*
X185000Y385650D03*
X285000Y385650D03*
X385000Y385650D03*
X485000Y385650D03*
X585000Y385650D03*
X685000Y385650D03*
X785000Y385650D03*
X885000Y385650D03*
X985000Y385650D03*
X1085000Y385650D03*
X1185000Y385650D03*
X1285000Y385650D03*
X1385000Y385650D03*
X1485000Y385650D03*
X1585000Y385650D03*
X1685000Y385650D03*
X1785000Y385650D03*
X1885000Y385650D03*
X1985000Y385650D03*
X1985000Y1385651D03*
X1885000Y1385651D03*
X1785000Y1385651D03*
X1685000Y1385651D03*
X1585000Y1385651D03*
X1485000Y1385651D03*
X1385000Y1385651D03*
X1285000Y1385651D03*
X1185000Y1385651D03*
X1085000Y1385651D03*
X985000Y1385651D03*
X885000Y1385651D03*
X785000Y1385651D03*
X685000Y1385651D03*
X585000Y1385651D03*
X485000Y1385651D03*
X385000Y1385651D03*
X285000Y1385651D03*
X185000Y1385651D03*
D11*
X2785000Y1685650D03*
X2785000Y1585650D03*
X2785000Y1485650D03*
X2785000Y1385650D03*
X2785000Y1285650D03*
X2785000Y1185650D03*
X2785000Y585650D03*
X2785000Y485650D03*
X2785000Y385650D03*
X2785000Y285650D03*
X2785000Y185650D03*
X2785000Y85650D03*
D12*
X1885580Y1186664D03*
X2185580Y1186664D03*
X1885580Y1086664D03*
X2185580Y1086664D03*
X1885580Y986664D03*
X2185580Y986664D03*
X1885580Y886664D03*
X2185580Y886664D03*
X1885580Y786664D03*
X2185580Y786664D03*
X1885580Y686660D03*
X2185580Y686660D03*
X1885580Y586660D03*
X2185580Y586660D03*
D13*
X285000Y185650D03*
X185000Y185650D03*
D14*
X2285000Y1385650D03*
X2285000Y1585650D03*
X485000Y85650D03*
X485000Y285650D03*
D11*
X1885000Y1585650D03*
X1985000Y1585650D03*
X2085000Y1585650D03*
D12*
X2585000Y585650D03*
X2585000Y185650D03*
X2585000Y1585650D03*
X2585000Y1185650D03*
X2485000Y1585650D03*
X2485000Y1185650D03*
D11*
X185000Y1585650D03*
X285000Y1585650D03*
X385000Y1585650D03*
X1985000Y185650D03*
X1885000Y185650D03*
D12*
X2285000Y185650D03*
X2285000Y285650D03*
D15*
X985000Y85650D03*
X885000Y85650D03*
X785000Y85650D03*
X685000Y85650D03*
X985000Y1685650D03*
X885000Y1685650D03*
X785000Y1685650D03*
X685000Y1685650D03*
D11*
X2685000Y985650D03*
X2685000Y785650D03*
D12*
X2485000Y185650D03*
X2485000Y585650D03*
D15*
X1585000Y85650D03*
X1485000Y85650D03*
X1385000Y85650D03*
X1285000Y85650D03*
X1585000Y1685650D03*
X1485000Y1685650D03*
X1385000Y1685650D03*
X1285000Y1685650D03*
D16*
X2785000Y1685650D03*
X2785000Y1385650D03*
X2785000Y585650D03*
X2785000Y285650D03*
D17*
X1885580Y1186664D03*
D18*
X285000Y185645D03*
D16*
X1885000Y1585650D03*
X185000Y1585650D03*
X1985000Y185650D03*
D17*
X2285000Y185650D03*
D16*
X2685000Y985650D03*
D19*
X1885570Y284920D02*
X2267490Y285620D01*
D02*
X1885120Y363980D02*
X1885570Y284920D01*
D02*
X2284920Y1685812D02*
X2284990Y1600650D01*
D02*
X2765000Y1685656D02*
X2284920Y1685812D01*
D02*
X2284920Y1685812D02*
X2284990Y1600650D01*
D02*
X1885570Y1685812D02*
X2284920Y1685812D01*
D02*
X1885110Y1605650D02*
X1885570Y1685812D01*
D02*
X1885570Y85240D02*
X1885110Y165650D01*
D02*
X1385000Y363980D02*
X1385000Y107300D01*
D02*
X1463350Y85650D02*
X1406650Y85650D01*
D02*
X2765000Y85640D02*
X1885570Y85240D01*
D02*
X684351Y1486137D02*
X684930Y1663997D01*
D02*
X85324Y1486137D02*
X684350Y1486137D01*
D02*
X85324Y284920D02*
X85324Y1486139D01*
D02*
X171052Y199540D02*
X85325Y284920D01*
D02*
X1284960Y1486137D02*
X2085350Y1487055D01*
D02*
X1284960Y1486137D02*
X684350Y1486137D01*
D02*
X2005000Y185650D02*
X2267500Y185650D01*
D02*
X2184880Y1384597D02*
X2270000Y1385492D01*
D02*
X2085340Y1487056D02*
X2184870Y1384597D01*
D02*
X1285000Y1685650D02*
X1284960Y1486137D01*
D02*
X684351Y1486137D02*
X684930Y1663997D01*
D02*
X1285000Y1663997D02*
X1284960Y1486137D01*
D02*
X2584430Y885527D02*
X2584430Y685850D01*
D02*
X2584430Y685850D02*
X2384760Y685850D01*
D02*
X2384760Y185080D02*
X2302490Y185560D01*
D02*
X2384760Y685850D02*
X2384760Y185080D01*
D02*
X2670830Y971539D02*
X2584430Y885527D01*
D02*
X2284920Y785689D02*
X2384760Y885527D01*
D02*
X2384760Y885527D02*
X2384760Y1085202D01*
D02*
X2384760Y1085201D02*
X2472630Y1173262D01*
D02*
X2203080Y586480D02*
X2285560Y585600D01*
D02*
X2285560Y585600D02*
X2284920Y785689D01*
D20*
D02*
X2584430Y685850D02*
X2584430Y885527D01*
D02*
X2684910Y685690D02*
X2584430Y685850D01*
D02*
X2770850Y599790D02*
X2684920Y685690D01*
D02*
X2584430Y885527D02*
X2670830Y971539D01*
D02*
X2785700Y985364D02*
X2705000Y985593D01*
D02*
X2884910Y885682D02*
X2785700Y985364D01*
D02*
X2785700Y985364D02*
X2705000Y985593D01*
D02*
X2884910Y1085674D02*
X2785700Y985364D01*
D02*
X2884910Y1685653D02*
X2805000Y1685651D01*
D02*
X2884910Y1085674D02*
X2884910Y1685653D01*
D02*
X2885130Y286630D02*
X2805000Y285850D01*
D02*
X2884910Y885682D02*
X2885130Y286630D01*
D19*
D02*
X2085240Y586020D02*
X2085340Y684950D01*
D02*
X2085340Y684950D02*
X2168080Y686360D01*
D02*
X1985820Y485880D02*
X2085250Y586010D01*
D02*
X1084180Y485880D02*
X1985820Y485880D01*
D02*
X1084820Y407320D02*
X1084180Y485880D01*
D02*
X2383940Y1487056D02*
X2384760Y1284877D01*
D02*
X2384760Y1284877D02*
X2197980Y1099009D01*
D02*
X2295630Y1575062D02*
X2383940Y1487056D01*
D02*
X2197980Y1199012D02*
X2284410Y1285065D01*
D02*
X2284410Y1285066D02*
X2284910Y1370651D01*
D02*
X2684280Y486170D02*
X2597370Y573260D01*
D02*
X2765000Y485750D02*
X2684270Y486180D01*
D02*
X2765000Y185830D02*
X2684930Y186530D01*
D02*
X2484600Y284920D02*
X2484930Y203150D01*
D02*
X2684280Y284920D02*
X2484600Y284920D01*
D02*
X2684930Y186530D02*
X2684270Y284920D01*
D02*
X1783820Y1285066D02*
X984643Y485890D01*
D02*
X1985820Y1285066D02*
X1783830Y1285066D01*
D02*
X2085340Y1185533D02*
X1985810Y1285065D01*
D02*
X2284920Y1085201D02*
X2285560Y885610D01*
D02*
X2484600Y1284877D02*
X2284920Y1085201D01*
D02*
X2584430Y1284877D02*
X2484600Y1284877D01*
D02*
X2584900Y1203150D02*
X2584440Y1284877D01*
D02*
X2285560Y885610D02*
X2203080Y886480D01*
D02*
X984643Y485880D02*
X984923Y407310D01*
D02*
X2168080Y986631D02*
X2085350Y986471D01*
D02*
X2085340Y986471D02*
X2085340Y1185534D01*
D02*
X1884120Y1685549D02*
X1884830Y1605649D01*
D02*
X1985410Y885527D02*
X1903080Y886465D01*
D02*
X1897990Y599000D02*
X1985410Y685850D01*
D02*
X1985410Y685850D02*
X1985410Y885527D01*
D02*
X1985410Y1085201D02*
X1985410Y885526D01*
D02*
X1897850Y1174190D02*
X1985410Y1085202D01*
D02*
X1985410Y885527D02*
X1903080Y886465D01*
D02*
X1606650Y1685643D02*
X1884120Y1685549D01*
D20*
D02*
X2685010Y1005650D02*
X2685110Y1386106D01*
D02*
X2685110Y1386106D02*
X2765000Y1385741D01*
G04 End of Copper1*
M02*