; NON-PLATED HOLES START AT T1
; THROUGH (PLATED) HOLES START AT T100
M48
INCH
T1C0.086614
T100C0.031497
T101C0.040278
T102C0.042000
T103C0.035000
T104C0.039370
%
T1
X020031Y001308
X001031Y021308
X001030Y001308
T100
X005031Y015292
X005031Y014308
T101
X020031Y014308
X001031Y004708
X001031Y016708
X020031Y006708
X020031Y003708
X001031Y013708
X020031Y019308
X020031Y021308
X001031Y003708
X020031Y012308
X001031Y017708
X001031Y011708
X001031Y006708
X001031Y012708
X001031Y010708
X001031Y007708
X001031Y005708
X020031Y004708
X020031Y016308
X020031Y017308
X020031Y008708
X020031Y015308
X020031Y007708
X020031Y009708
X020031Y013308
X001031Y008708
X020031Y018308
X001031Y014708
X001031Y015708
X020031Y020308
X020031Y005708
X020031Y010708
T102
X015034Y007809
X014031Y003808
X014031Y011808
X015031Y009808
X013031Y013808
X014031Y009808
X013031Y009808
X015031Y005808
X013031Y011808
X013031Y005808
X014034Y007809
X014031Y005808
X014031Y013808
X013034Y007809
X013031Y003808
X015031Y013808
X015031Y003808
X015031Y011808
T103
X011031Y003808
X011031Y021308
X011031Y005808
X007031Y005808
X017031Y017308
X007031Y013808
X011031Y009808
X005031Y021308
X007031Y011808
X011031Y017308
X007031Y009808
X015031Y017308
X017031Y021308
X007031Y003808
X005031Y017308
X009031Y021308
X007031Y021308
X011034Y007809
X007034Y007809
X013031Y021308
X009031Y017308
X015031Y021308
X011031Y013808
X011031Y011808
X013031Y017308
X007031Y017308
T104
X015286Y000808
X016664Y000808
X007408Y000808
X012531Y000808
X004653Y000808
X006031Y000808
X013908Y000808
X008786Y000808
T00
M30
