G04 MADE WITH FRITZING*
G04 WWW.FRITZING.ORG*
G04 DOUBLE SIDED*
G04 HOLES PLATED*
G04 CONTOUR ON CENTER OF CONTOUR VECTOR*
%ASAXBY*%
%FSLAX23Y23*%
%MOIN*%
%OFA0B0*%
%SFA1.0B1.0*%
%ADD10C,0.065278*%
%ADD11C,0.062992*%
%ADD12C,0.082000*%
%ADD13C,0.079370*%
%ADD14C,0.075000*%
%ADD15R,0.062992X0.062992*%
%ADD16R,0.082000X0.082000*%
%ADD17R,0.079370X0.079370*%
%ADD18C,0.024000*%
%LNCOPPER1*%
G90*
G70*
G54D10*
X103Y771D03*
X103Y671D03*
X103Y571D03*
X103Y471D03*
X103Y371D03*
X2003Y1231D03*
X2003Y1331D03*
X2003Y1431D03*
X2003Y1531D03*
X2003Y1631D03*
X2003Y1731D03*
X2003Y1831D03*
X2003Y1931D03*
X2003Y2031D03*
X2003Y2131D03*
X2003Y371D03*
X2003Y471D03*
X2003Y571D03*
X2003Y671D03*
X2003Y771D03*
X2003Y871D03*
X2003Y971D03*
X2003Y1071D03*
X103Y1671D03*
X103Y1771D03*
X103Y1571D03*
X103Y1471D03*
X103Y1371D03*
X103Y1271D03*
X103Y1171D03*
X103Y1071D03*
X103Y871D03*
G54D11*
X503Y1529D03*
X503Y1431D03*
G54D12*
X1303Y981D03*
X1403Y981D03*
X1503Y981D03*
X1303Y1181D03*
X1403Y1181D03*
X1503Y1181D03*
X1303Y1381D03*
X1403Y1381D03*
X1503Y1381D03*
X1303Y381D03*
X1403Y381D03*
X1503Y381D03*
X1303Y581D03*
X1403Y581D03*
X1503Y581D03*
X1303Y781D03*
X1403Y781D03*
X1503Y781D03*
G54D13*
X465Y81D03*
X603Y81D03*
X741Y81D03*
X879Y81D03*
X1253Y81D03*
X1391Y81D03*
X1529Y81D03*
X1666Y81D03*
G54D14*
X1103Y981D03*
X703Y981D03*
X1103Y1181D03*
X703Y1181D03*
X1103Y1381D03*
X703Y1381D03*
X1103Y381D03*
X703Y381D03*
X1103Y581D03*
X703Y581D03*
X1103Y781D03*
X703Y781D03*
X903Y2131D03*
X903Y1731D03*
X703Y2131D03*
X703Y1731D03*
X503Y2131D03*
X503Y1731D03*
X1103Y1731D03*
X1103Y2131D03*
X1303Y2131D03*
X1303Y1731D03*
X1503Y2131D03*
X1503Y1731D03*
X1703Y2131D03*
X1703Y1731D03*
G54D15*
X503Y1529D03*
G54D16*
X1303Y981D03*
X1303Y1181D03*
X1303Y1381D03*
X1303Y381D03*
X1303Y581D03*
X1303Y781D03*
G54D17*
X465Y81D03*
X1253Y81D03*
G54D18*
X1452Y1481D02*
X1683Y1711D01*
D02*
X1303Y1413D02*
X1303Y1430D01*
D02*
X1352Y1481D02*
X1452Y1481D01*
D02*
X1303Y1430D02*
X1352Y1481D01*
D02*
X853Y1381D02*
X523Y1711D01*
D02*
X952Y682D02*
X903Y731D01*
D02*
X1204Y682D02*
X952Y682D01*
D02*
X903Y731D02*
X904Y1531D01*
D02*
X1281Y604D02*
X1204Y682D01*
D02*
X904Y1531D02*
X723Y1711D01*
D02*
X1204Y880D02*
X1004Y880D01*
D02*
X1004Y880D02*
X952Y932D01*
D02*
X952Y932D02*
X952Y1681D01*
D02*
X1281Y804D02*
X1204Y880D01*
D02*
X952Y1681D02*
X923Y1710D01*
D02*
X1053Y1081D02*
X1004Y1131D01*
D02*
X1204Y1081D02*
X1053Y1081D01*
D02*
X1004Y1131D02*
X1004Y1430D01*
D02*
X1280Y1004D02*
X1204Y1081D01*
D02*
X1004Y1430D02*
X1283Y1711D01*
D02*
X1204Y1282D02*
X1202Y1430D01*
D02*
X1281Y1204D02*
X1204Y1282D01*
D02*
X1202Y1430D02*
X1483Y1711D01*
D02*
X1204Y481D02*
X903Y481D01*
D02*
X903Y481D02*
X854Y530D01*
D02*
X854Y530D02*
X853Y1381D01*
D02*
X1280Y404D02*
X1204Y481D01*
D02*
X503Y1030D02*
X154Y1030D01*
D02*
X604Y932D02*
X503Y1030D01*
D02*
X903Y181D02*
X604Y181D01*
D02*
X604Y181D02*
X604Y932D01*
D02*
X902Y130D02*
X892Y109D01*
D02*
X902Y180D02*
X902Y130D01*
D02*
X604Y180D02*
X902Y180D01*
D02*
X604Y481D02*
X604Y180D01*
D02*
X803Y431D02*
X753Y481D01*
D02*
X753Y481D02*
X604Y481D01*
D02*
X803Y331D02*
X803Y431D01*
D02*
X1654Y282D02*
X854Y282D01*
D02*
X854Y282D02*
X803Y331D01*
D02*
X1685Y106D02*
X1703Y130D01*
D02*
X1703Y231D02*
X1654Y282D01*
D02*
X1703Y130D02*
X1703Y231D01*
D02*
X1552Y130D02*
X1542Y109D01*
D02*
X702Y282D02*
X753Y231D01*
D02*
X703Y352D02*
X702Y282D01*
D02*
X753Y231D02*
X1504Y231D01*
D02*
X1504Y231D02*
X1553Y181D01*
D02*
X1553Y181D02*
X1552Y130D01*
D02*
X154Y1030D02*
X127Y1051D01*
D02*
X892Y109D02*
X902Y130D01*
D02*
X902Y130D02*
X903Y181D01*
D02*
X354Y1830D02*
X403Y1881D01*
D02*
X1754Y1830D02*
X1803Y1781D01*
D02*
X354Y1332D02*
X354Y1830D01*
D02*
X1104Y1881D02*
X1153Y1830D01*
D02*
X1153Y1830D02*
X1754Y1830D01*
D02*
X153Y1282D02*
X302Y1280D01*
D02*
X134Y1278D02*
X153Y1282D01*
D02*
X1803Y1781D02*
X1803Y1680D01*
D02*
X1803Y1680D02*
X1526Y1404D01*
D02*
X403Y1881D02*
X1104Y1881D01*
D02*
X302Y1280D02*
X354Y1332D01*
D02*
X403Y1331D02*
X484Y1412D01*
D02*
X302Y1280D02*
X354Y1332D01*
D02*
X354Y1332D02*
X403Y1331D01*
D02*
X403Y1780D02*
X453Y1830D01*
D02*
X453Y1830D02*
X1003Y1830D01*
D02*
X484Y1548D02*
X403Y1631D01*
D02*
X403Y1631D02*
X403Y1780D01*
D02*
X1003Y1830D02*
X1083Y1751D01*
D02*
X1503Y1213D02*
X1503Y1349D01*
D02*
X1503Y1149D02*
X1503Y1013D01*
D02*
X1503Y949D02*
X1503Y813D01*
D02*
X1503Y749D02*
X1503Y613D01*
D02*
X1503Y549D02*
X1503Y413D01*
G04 End of Copper1*
M02*