G04 MADE WITH FRITZING*
G04 WWW.FRITZING.ORG*
G04 DOUBLE SIDED*
G04 HOLES PLATED*
G04 CONTOUR ON CENTER OF CONTOUR VECTOR*
%ASAXBY*%
%FSLAX23Y23*%
%MOIN*%
%OFA0B0*%
%SFA1.0B1.0*%
%ADD10C,0.075278*%
%ADD11C,0.096614*%
%ADD12C,0.072992*%
%ADD13C,0.092000*%
%ADD14C,0.089370*%
%ADD15C,0.085000*%
%ADD16R,0.072992X0.072992*%
%ADD17R,0.092000X0.092000*%
%ADD18R,0.089370X0.089370*%
%LNMASK0*%
G90*
G70*
G54D10*
X103Y771D03*
X103Y671D03*
X103Y571D03*
X103Y471D03*
X103Y371D03*
X2003Y1231D03*
X2003Y1331D03*
X2003Y1431D03*
X2003Y1531D03*
X2003Y1631D03*
X2003Y1731D03*
X2003Y1831D03*
X2003Y1931D03*
X2003Y2031D03*
X2003Y2131D03*
X2003Y371D03*
X2003Y471D03*
X2003Y571D03*
X2003Y671D03*
X2003Y771D03*
X2003Y871D03*
X2003Y971D03*
X2003Y1071D03*
X103Y1671D03*
X103Y1771D03*
X103Y1571D03*
X103Y1471D03*
X103Y1371D03*
X103Y1271D03*
X103Y1171D03*
X103Y1071D03*
X103Y871D03*
G54D11*
X2003Y131D03*
X103Y131D03*
X103Y2131D03*
G54D12*
X503Y1529D03*
X503Y1431D03*
G54D13*
X1303Y981D03*
X1403Y981D03*
X1503Y981D03*
X1303Y1181D03*
X1403Y1181D03*
X1503Y1181D03*
X1303Y1381D03*
X1403Y1381D03*
X1503Y1381D03*
X1303Y381D03*
X1403Y381D03*
X1503Y381D03*
X1303Y581D03*
X1403Y581D03*
X1503Y581D03*
X1303Y781D03*
X1403Y781D03*
X1503Y781D03*
G54D14*
X465Y81D03*
X603Y81D03*
X741Y81D03*
X879Y81D03*
X1253Y81D03*
X1391Y81D03*
X1529Y81D03*
X1666Y81D03*
G54D15*
X1103Y981D03*
X703Y981D03*
X1103Y1181D03*
X703Y1181D03*
X1103Y1381D03*
X703Y1381D03*
X1103Y381D03*
X703Y381D03*
X1103Y581D03*
X703Y581D03*
X1103Y781D03*
X703Y781D03*
X903Y2131D03*
X903Y1731D03*
X703Y2131D03*
X703Y1731D03*
X503Y2131D03*
X503Y1731D03*
X1103Y1731D03*
X1103Y2131D03*
X1303Y2131D03*
X1303Y1731D03*
X1503Y2131D03*
X1503Y1731D03*
X1703Y2131D03*
X1703Y1731D03*
G54D16*
X503Y1529D03*
G54D17*
X1303Y981D03*
X1303Y1181D03*
X1303Y1381D03*
X1303Y381D03*
X1303Y581D03*
X1303Y781D03*
G54D18*
X465Y81D03*
X1253Y81D03*
G04 End of Mask0*
M02*