G04 MADE WITH FRITZING*
G04 WWW.FRITZING.ORG*
G04 DOUBLE SIDED*
G04 HOLES PLATED*
G04 CONTOUR ON CENTER OF CONTOUR VECTOR*
%ASAXBY*%
%FSLAX23Y23*%
%MOIN*%
%OFA0B0*%
%SFA1.0B1.0*%
%ADD10C,0.061111*%
%ADD11C,0.080000*%
%ADD12C,0.075000*%
%ADD13C,0.070000*%
%ADD14C,0.060000*%
%ADD15R,0.080000X0.080000*%
%ADD16R,0.075000X0.075000*%
%ADD17C,0.024000*%
%ADD18C,0.064000*%
%LNCOPPER0*%
G90*
G70*
G54D10*
X185Y386D03*
X285Y386D03*
X385Y386D03*
X485Y386D03*
X585Y386D03*
X685Y386D03*
X785Y386D03*
X885Y386D03*
X985Y386D03*
X1085Y386D03*
X1185Y386D03*
X1285Y386D03*
X1385Y386D03*
X1485Y386D03*
X1585Y386D03*
X1685Y386D03*
X1785Y386D03*
X1885Y386D03*
X1985Y386D03*
X1985Y1386D03*
X1885Y1386D03*
X1785Y1386D03*
X1685Y1386D03*
X1585Y1386D03*
X1485Y1386D03*
X1385Y1386D03*
X1285Y1386D03*
X1185Y1386D03*
X1085Y1386D03*
X985Y1386D03*
X885Y1386D03*
X785Y1386D03*
X685Y1386D03*
X585Y1386D03*
X485Y1386D03*
X385Y1386D03*
X285Y1386D03*
X185Y1386D03*
X185Y386D03*
X285Y386D03*
X385Y386D03*
X485Y386D03*
X585Y386D03*
X685Y386D03*
X785Y386D03*
X885Y386D03*
X985Y386D03*
X1085Y386D03*
X1185Y386D03*
X1285Y386D03*
X1385Y386D03*
X1485Y386D03*
X1585Y386D03*
X1685Y386D03*
X1785Y386D03*
X1885Y386D03*
X1985Y386D03*
X1985Y1386D03*
X1885Y1386D03*
X1785Y1386D03*
X1685Y1386D03*
X1585Y1386D03*
X1485Y1386D03*
X1385Y1386D03*
X1285Y1386D03*
X1185Y1386D03*
X1085Y1386D03*
X985Y1386D03*
X885Y1386D03*
X785Y1386D03*
X685Y1386D03*
X585Y1386D03*
X485Y1386D03*
X385Y1386D03*
X285Y1386D03*
X185Y1386D03*
G54D11*
X2785Y1686D03*
X2785Y1586D03*
X2785Y1486D03*
X2785Y1386D03*
X2785Y1286D03*
X2785Y1186D03*
X2785Y586D03*
X2785Y486D03*
X2785Y386D03*
X2785Y286D03*
X2785Y186D03*
X2785Y86D03*
G54D12*
X1886Y1187D03*
X2186Y1187D03*
X1886Y1087D03*
X2186Y1087D03*
X1886Y987D03*
X2186Y987D03*
X1886Y887D03*
X2186Y887D03*
X1886Y787D03*
X2186Y787D03*
X1886Y687D03*
X2186Y687D03*
X1886Y587D03*
X2186Y587D03*
G54D11*
X385Y86D03*
X185Y86D03*
G54D13*
X2285Y1386D03*
X2285Y1586D03*
X185Y286D03*
X385Y286D03*
G54D11*
X1885Y1586D03*
X1985Y1586D03*
X2085Y1586D03*
G54D12*
X2485Y586D03*
X2485Y186D03*
X2585Y1386D03*
X2585Y986D03*
X2485Y1586D03*
X2485Y1186D03*
G54D11*
X185Y1586D03*
X285Y1586D03*
X385Y1586D03*
X2085Y186D03*
X2185Y186D03*
X2285Y186D03*
X2485Y86D03*
X2585Y86D03*
G54D12*
X1885Y86D03*
X1885Y186D03*
X285Y986D03*
X285Y786D03*
X2385Y986D03*
X2385Y786D03*
G54D14*
X985Y86D03*
X885Y86D03*
X785Y86D03*
X685Y86D03*
X985Y1686D03*
X885Y1686D03*
X785Y1686D03*
X685Y1686D03*
G54D11*
X2785Y986D03*
X2785Y786D03*
G54D12*
X2585Y386D03*
X2585Y786D03*
G54D14*
X1585Y86D03*
X1485Y86D03*
X1385Y86D03*
X1285Y86D03*
X1585Y1686D03*
X1485Y1686D03*
X1385Y1686D03*
X1285Y1686D03*
G54D15*
X2785Y1686D03*
X2785Y1386D03*
X2785Y586D03*
X2785Y286D03*
G54D16*
X1886Y1187D03*
G54D15*
X385Y86D03*
X1885Y1586D03*
X185Y1586D03*
X2085Y186D03*
X2485Y86D03*
G54D16*
X1885Y86D03*
X285Y986D03*
X2385Y986D03*
G54D15*
X2785Y986D03*
G54D17*
X1784Y85D02*
X1585Y287D01*
D02*
X1585Y287D02*
X686Y287D01*
D02*
X686Y287D02*
X685Y372D01*
D02*
X1885Y86D02*
X1784Y85D01*
D02*
X1684Y1585D02*
X1485Y1586D01*
D02*
X1784Y1686D02*
X1684Y1585D01*
D02*
X1984Y1686D02*
X1784Y1686D01*
D02*
X1985Y1606D02*
X1984Y1686D01*
D02*
X1485Y1586D02*
X1485Y1672D01*
D02*
X2184Y487D02*
X2285Y486D01*
D02*
X2285Y486D02*
X2385Y386D01*
G54D18*
D02*
X2685Y386D02*
X2765Y386D01*
D02*
X2771Y771D02*
X2685Y685D01*
D02*
X2685Y685D02*
X2685Y386D01*
G54D17*
D02*
X1985Y986D02*
X2084Y1085D01*
D02*
X2084Y1085D02*
X2168Y1086D01*
D02*
X2085Y786D02*
X2168Y786D01*
D02*
X1985Y886D02*
X2085Y786D01*
D02*
X1985Y886D02*
X1985Y986D01*
D02*
X1903Y887D02*
X1985Y886D01*
D02*
X1984Y685D02*
X2184Y487D01*
D02*
X1903Y686D02*
X1984Y685D01*
D02*
X2385Y386D02*
X2385Y286D01*
D02*
X2385Y286D02*
X2473Y198D01*
D02*
X2485Y1386D02*
X2485Y1568D01*
D02*
X2203Y586D02*
X2285Y584D01*
D02*
X2285Y584D02*
X2285Y1086D01*
D02*
X2685Y1285D02*
X2585Y1285D01*
D02*
X2585Y1485D02*
X2585Y1403D01*
D02*
X2765Y1286D02*
X2685Y1285D01*
D02*
X2585Y1285D02*
X2485Y1386D01*
D02*
X2765Y1586D02*
X2685Y1585D01*
D02*
X2685Y1585D02*
X2585Y1485D01*
D02*
X2485Y885D02*
X2573Y798D01*
D02*
X2485Y1086D02*
X2485Y885D01*
D02*
X2585Y1186D02*
X2485Y1086D01*
D02*
X2184Y1285D02*
X2485Y1286D01*
D02*
X2485Y1286D02*
X2585Y1186D01*
D02*
X1898Y999D02*
X2184Y1285D01*
D02*
X2285Y1086D02*
X2385Y1186D01*
D02*
X2385Y1186D02*
X2468Y1186D01*
D02*
X1486Y1285D02*
X1485Y1372D01*
D02*
X1684Y1085D02*
X1486Y1285D01*
G54D18*
D02*
X2685Y686D02*
X2771Y772D01*
D02*
X2397Y773D02*
X2485Y685D01*
D02*
X2485Y685D02*
X2685Y686D01*
G54D17*
D02*
X2184Y387D02*
X2185Y206D01*
D02*
X2084Y487D02*
X2184Y387D01*
D02*
X185Y487D02*
X2084Y487D01*
D02*
X185Y400D02*
X185Y487D01*
D02*
X85Y1585D02*
X165Y1586D01*
D02*
X273Y998D02*
X85Y1185D01*
D02*
X1286Y1285D02*
X1285Y1372D01*
D02*
X1784Y785D02*
X1286Y1285D01*
D02*
X1868Y786D02*
X1784Y785D01*
D02*
X1868Y1087D02*
X1684Y1085D01*
D02*
X1286Y1485D02*
X1375Y1396D01*
D02*
X986Y1485D02*
X1286Y1485D01*
D02*
X485Y885D02*
X185Y885D01*
D02*
X185Y885D02*
X86Y784D01*
D02*
X85Y1185D02*
X85Y1585D01*
D02*
X986Y187D02*
X985Y100D01*
D02*
X886Y1285D02*
X485Y885D01*
D02*
X86Y784D02*
X85Y187D01*
D02*
X885Y1372D02*
X886Y1285D01*
D02*
X85Y187D02*
X986Y187D01*
D02*
X886Y1485D02*
X885Y1672D01*
D02*
X985Y1672D02*
X986Y1485D01*
D02*
X2085Y166D02*
X2084Y86D01*
D02*
X2084Y86D02*
X1903Y86D01*
D02*
X1903Y86D02*
X2465Y86D01*
D02*
X1386Y1285D02*
X1784Y885D01*
D02*
X1784Y885D02*
X1868Y886D01*
D02*
X1385Y1372D02*
X1386Y1285D01*
D02*
X285Y1485D02*
X886Y1485D01*
D02*
X405Y1586D02*
X786Y1585D01*
D02*
X786Y1585D02*
X785Y1672D01*
D02*
X285Y1566D02*
X285Y1485D01*
D02*
X2084Y1485D02*
X1486Y1485D01*
D02*
X1486Y1485D02*
X1386Y1585D01*
D02*
X2085Y1566D02*
X2084Y1485D01*
D02*
X1386Y1585D02*
X1385Y1672D01*
D02*
X1285Y100D02*
X1285Y186D01*
D02*
X985Y186D02*
X985Y100D01*
D02*
X1285Y186D02*
X985Y186D01*
G54D18*
D02*
X2685Y1086D02*
X2685Y886D01*
D02*
X2685Y886D02*
X2771Y800D01*
D02*
X2771Y1172D02*
X2685Y1086D01*
D02*
X2805Y1486D02*
X2885Y1485D01*
D02*
X2885Y1485D02*
X2885Y886D01*
D02*
X2885Y886D02*
X2799Y800D01*
D02*
X2799Y771D02*
X2885Y686D01*
D02*
X2885Y686D02*
X2885Y86D01*
D02*
X2885Y86D02*
X2805Y86D01*
G04 End of Copper0*
M02*