G04 MADE WITH FRITZING*
G04 WWW.FRITZING.ORG*
G04 DOUBLE SIDED*
G04 HOLES PLATED*
G04 CONTOUR ON CENTER OF CONTOUR VECTOR*
%ASAXBY*%
%FSLAX23Y23*%
%MOIN*%
%OFA0B0*%
%SFA1.0B1.0*%
%ADD10C,0.061111*%
%ADD11C,0.080000*%
%ADD12C,0.075000*%
%ADD13C,0.070000*%
%ADD14C,0.060000*%
%ADD15R,0.080000X0.080000*%
%ADD16R,0.075000X0.075000*%
%ADD17C,0.024000*%
%ADD18C,0.064000*%
%LNCOPPER1*%
G90*
G70*
G54D10*
X185Y386D03*
X285Y386D03*
X385Y386D03*
X485Y386D03*
X585Y386D03*
X685Y386D03*
X785Y386D03*
X885Y386D03*
X985Y386D03*
X1085Y386D03*
X1185Y386D03*
X1285Y386D03*
X1385Y386D03*
X1485Y386D03*
X1585Y386D03*
X1685Y386D03*
X1785Y386D03*
X1885Y386D03*
X1985Y386D03*
X1985Y1386D03*
X1885Y1386D03*
X1785Y1386D03*
X1685Y1386D03*
X1585Y1386D03*
X1485Y1386D03*
X1385Y1386D03*
X1285Y1386D03*
X1185Y1386D03*
X1085Y1386D03*
X985Y1386D03*
X885Y1386D03*
X785Y1386D03*
X685Y1386D03*
X585Y1386D03*
X485Y1386D03*
X385Y1386D03*
X285Y1386D03*
X185Y1386D03*
X185Y386D03*
X285Y386D03*
X385Y386D03*
X485Y386D03*
X585Y386D03*
X685Y386D03*
X785Y386D03*
X885Y386D03*
X985Y386D03*
X1085Y386D03*
X1185Y386D03*
X1285Y386D03*
X1385Y386D03*
X1485Y386D03*
X1585Y386D03*
X1685Y386D03*
X1785Y386D03*
X1885Y386D03*
X1985Y386D03*
X1985Y1386D03*
X1885Y1386D03*
X1785Y1386D03*
X1685Y1386D03*
X1585Y1386D03*
X1485Y1386D03*
X1385Y1386D03*
X1285Y1386D03*
X1185Y1386D03*
X1085Y1386D03*
X985Y1386D03*
X885Y1386D03*
X785Y1386D03*
X685Y1386D03*
X585Y1386D03*
X485Y1386D03*
X385Y1386D03*
X285Y1386D03*
X185Y1386D03*
G54D11*
X2785Y1686D03*
X2785Y1586D03*
X2785Y1486D03*
X2785Y1386D03*
X2785Y1286D03*
X2785Y1186D03*
X2785Y586D03*
X2785Y486D03*
X2785Y386D03*
X2785Y286D03*
X2785Y186D03*
X2785Y86D03*
G54D12*
X1886Y1187D03*
X2186Y1187D03*
X1886Y1087D03*
X2186Y1087D03*
X1886Y987D03*
X2186Y987D03*
X1886Y887D03*
X2186Y887D03*
X1886Y787D03*
X2186Y787D03*
X1886Y687D03*
X2186Y687D03*
X1886Y587D03*
X2186Y587D03*
G54D11*
X385Y86D03*
X185Y86D03*
G54D13*
X2285Y1386D03*
X2285Y1586D03*
X185Y286D03*
X385Y286D03*
G54D11*
X1885Y1586D03*
X1985Y1586D03*
X2085Y1586D03*
G54D12*
X2485Y586D03*
X2485Y186D03*
X2585Y1386D03*
X2585Y986D03*
X2485Y1586D03*
X2485Y1186D03*
G54D11*
X185Y1586D03*
X285Y1586D03*
X385Y1586D03*
X2085Y186D03*
X2185Y186D03*
X2285Y186D03*
X2485Y86D03*
X2585Y86D03*
G54D12*
X1885Y86D03*
X1885Y186D03*
X285Y986D03*
X285Y786D03*
X2385Y986D03*
X2385Y786D03*
G54D14*
X985Y86D03*
X885Y86D03*
X785Y86D03*
X685Y86D03*
X985Y1686D03*
X885Y1686D03*
X785Y1686D03*
X685Y1686D03*
G54D11*
X2785Y986D03*
X2785Y786D03*
G54D12*
X2585Y386D03*
X2585Y786D03*
G54D14*
X1585Y86D03*
X1485Y86D03*
X1385Y86D03*
X1285Y86D03*
X1585Y1686D03*
X1485Y1686D03*
X1385Y1686D03*
X1285Y1686D03*
G54D15*
X2785Y1686D03*
X2785Y1386D03*
X2785Y586D03*
X2785Y286D03*
G54D16*
X1886Y1187D03*
G54D15*
X385Y86D03*
X1885Y1586D03*
X185Y1586D03*
X2085Y186D03*
X2485Y86D03*
G54D16*
X1885Y86D03*
X285Y986D03*
X2385Y986D03*
G54D15*
X2785Y986D03*
G54D17*
X686Y986D02*
X685Y400D01*
D02*
X285Y986D02*
X686Y986D01*
D02*
X685Y372D02*
X686Y287D01*
D02*
X686Y287D02*
X400Y286D01*
D02*
X1986Y585D02*
X2085Y685D01*
D02*
X2085Y685D02*
X2168Y686D01*
D02*
X1986Y486D02*
X1986Y585D01*
D02*
X1084Y486D02*
X1986Y486D01*
D02*
X1085Y400D02*
X1084Y486D01*
D02*
X2384Y1487D02*
X2384Y1285D01*
D02*
X2384Y1285D02*
X2198Y1099D01*
D02*
X2296Y1575D02*
X2384Y1487D01*
D02*
X2198Y1199D02*
X2284Y1285D01*
D02*
X2284Y1285D02*
X2285Y1371D01*
D02*
X2685Y487D02*
X2585Y584D01*
D02*
X2585Y584D02*
X2503Y585D01*
D02*
X2765Y486D02*
X2685Y487D01*
D02*
X2585Y286D02*
X2585Y368D01*
D02*
X2765Y186D02*
X2685Y187D01*
D02*
X2685Y187D02*
X2585Y286D01*
D02*
X1784Y1285D02*
X985Y486D01*
D02*
X1986Y1285D02*
X1784Y1285D01*
D02*
X2085Y1186D02*
X1986Y1285D01*
D02*
X2573Y973D02*
X2485Y885D01*
D02*
X2485Y885D02*
X2203Y887D01*
D02*
X2285Y1686D02*
X2685Y1686D01*
D02*
X2765Y1686D02*
X2285Y1686D01*
G54D18*
D02*
X2685Y1386D02*
X2765Y1386D01*
D02*
X2685Y1086D02*
X2685Y1386D01*
G54D17*
D02*
X1285Y1686D02*
X1286Y1485D01*
D02*
X1286Y1485D02*
X685Y1485D01*
D02*
X685Y1485D02*
X685Y1672D01*
D02*
X1285Y1672D02*
X1286Y1485D01*
D02*
X2385Y286D02*
X2485Y286D01*
D02*
X2299Y200D02*
X2385Y286D01*
D02*
X2485Y286D02*
X2585Y186D01*
D02*
X2585Y186D02*
X2585Y106D01*
D02*
X985Y486D02*
X985Y400D01*
D02*
X2168Y987D02*
X2085Y986D01*
D02*
X2085Y986D02*
X2085Y1186D01*
D02*
X85Y985D02*
X85Y1485D01*
D02*
X85Y1485D02*
X685Y1485D01*
D02*
X273Y798D02*
X85Y985D01*
D02*
X685Y1485D02*
X685Y1672D01*
D02*
X2185Y1385D02*
X2270Y1385D01*
D02*
X2085Y1487D02*
X2185Y1385D01*
D02*
X1286Y1485D02*
X2085Y1487D01*
D02*
X2285Y1686D02*
X2285Y1601D01*
D02*
X385Y271D02*
X385Y106D01*
D02*
X185Y106D02*
X185Y271D01*
D02*
X1885Y372D02*
X1885Y203D01*
D02*
X1385Y372D02*
X1385Y100D01*
D02*
X785Y372D02*
X785Y100D01*
D02*
X871Y86D02*
X799Y86D01*
D02*
X1471Y86D02*
X1399Y86D01*
D02*
X2285Y1686D02*
X1884Y1686D01*
D02*
X2285Y1586D02*
X2285Y1686D01*
D02*
X1884Y1686D02*
X1885Y1606D01*
D02*
X1984Y885D02*
X1903Y886D01*
D02*
X1898Y599D02*
X1984Y685D01*
D02*
X1984Y685D02*
X1984Y885D01*
D02*
X1985Y1086D02*
X1984Y885D01*
D02*
X1898Y1174D02*
X1985Y1086D01*
D02*
X1984Y885D02*
X1903Y886D01*
D02*
X1599Y1686D02*
X1884Y1686D01*
D02*
X1386Y1285D02*
X1084Y986D01*
D02*
X1084Y986D02*
X303Y986D01*
D02*
X1385Y1372D02*
X1386Y1285D01*
D02*
X2285Y487D02*
X2585Y487D01*
D02*
X2084Y287D02*
X2285Y487D01*
D02*
X2585Y487D02*
X2771Y300D01*
D02*
X2085Y206D02*
X2084Y287D01*
D02*
X1884Y1686D02*
X1885Y1606D01*
D02*
X185Y685D02*
X273Y773D01*
D02*
X185Y400D02*
X185Y685D01*
D02*
X185Y301D02*
X185Y372D01*
D02*
X2765Y86D02*
X2605Y86D01*
G54D18*
D02*
X2771Y600D02*
X2685Y686D01*
D02*
X2685Y686D02*
X2685Y886D01*
D02*
X2685Y886D02*
X2771Y972D01*
D02*
X2885Y886D02*
X2885Y287D01*
D02*
X2885Y287D02*
X2805Y286D01*
D02*
X2885Y1086D02*
X2885Y1686D01*
D02*
X2885Y1686D02*
X2805Y1686D01*
D02*
X2885Y1086D02*
X2799Y1000D01*
D02*
X2685Y1086D02*
X2771Y1000D01*
D02*
X2885Y886D02*
X2799Y972D01*
D02*
X2771Y1000D02*
X2685Y1086D01*
D02*
X2685Y1086D02*
X2485Y1086D01*
D02*
X2485Y1086D02*
X2397Y998D01*
G04 End of Copper1*
M02*