G04 MADE WITH FRITZING*
G04 WWW.FRITZING.ORG*
G04 DOUBLE SIDED*
G04 HOLES PLATED*
G04 CONTOUR ON CENTER OF CONTOUR VECTOR*
%ASAXBY*%
%FSLAX23Y23*%
%MOIN*%
%OFA0B0*%
%SFA1.0B1.0*%
%ADD10C,0.071111*%
%ADD11C,0.090000*%
%ADD12C,0.085000*%
%ADD13C,0.080000*%
%ADD14C,0.070000*%
%ADD15R,0.090000X0.090000*%
%ADD16R,0.085000X0.085000*%
%LNMASK1*%
G90*
G70*
G54D10*
X185Y386D03*
X285Y386D03*
X385Y386D03*
X485Y386D03*
X585Y386D03*
X685Y386D03*
X785Y386D03*
X885Y386D03*
X985Y386D03*
X1085Y386D03*
X1185Y386D03*
X1285Y386D03*
X1385Y386D03*
X1485Y386D03*
X1585Y386D03*
X1685Y386D03*
X1785Y386D03*
X1885Y386D03*
X1985Y386D03*
X1985Y1386D03*
X1885Y1386D03*
X1785Y1386D03*
X1685Y1386D03*
X1585Y1386D03*
X1485Y1386D03*
X1385Y1386D03*
X1285Y1386D03*
X1185Y1386D03*
X1085Y1386D03*
X985Y1386D03*
X885Y1386D03*
X785Y1386D03*
X685Y1386D03*
X585Y1386D03*
X485Y1386D03*
X385Y1386D03*
X285Y1386D03*
X185Y1386D03*
X185Y386D03*
X285Y386D03*
X385Y386D03*
X485Y386D03*
X585Y386D03*
X685Y386D03*
X785Y386D03*
X885Y386D03*
X985Y386D03*
X1085Y386D03*
X1185Y386D03*
X1285Y386D03*
X1385Y386D03*
X1485Y386D03*
X1585Y386D03*
X1685Y386D03*
X1785Y386D03*
X1885Y386D03*
X1985Y386D03*
X1985Y1386D03*
X1885Y1386D03*
X1785Y1386D03*
X1685Y1386D03*
X1585Y1386D03*
X1485Y1386D03*
X1385Y1386D03*
X1285Y1386D03*
X1185Y1386D03*
X1085Y1386D03*
X985Y1386D03*
X885Y1386D03*
X785Y1386D03*
X685Y1386D03*
X585Y1386D03*
X485Y1386D03*
X385Y1386D03*
X285Y1386D03*
X185Y1386D03*
G54D11*
X2785Y1686D03*
X2785Y1586D03*
X2785Y1486D03*
X2785Y1386D03*
X2785Y1286D03*
X2785Y1186D03*
X2785Y586D03*
X2785Y486D03*
X2785Y386D03*
X2785Y286D03*
X2785Y186D03*
X2785Y86D03*
G54D12*
X1886Y1187D03*
X2186Y1187D03*
X1886Y1087D03*
X2186Y1087D03*
X1886Y987D03*
X2186Y987D03*
X1886Y887D03*
X2186Y887D03*
X1886Y787D03*
X2186Y787D03*
X1886Y687D03*
X2186Y687D03*
X1886Y587D03*
X2186Y587D03*
G54D11*
X385Y86D03*
X185Y86D03*
G54D13*
X2285Y1386D03*
X2285Y1586D03*
X185Y286D03*
X385Y286D03*
G54D11*
X1885Y1586D03*
X1985Y1586D03*
X2085Y1586D03*
G54D12*
X2485Y586D03*
X2485Y186D03*
X2585Y1386D03*
X2585Y986D03*
X2485Y1586D03*
X2485Y1186D03*
G54D11*
X185Y1586D03*
X285Y1586D03*
X385Y1586D03*
X2085Y186D03*
X2185Y186D03*
X2285Y186D03*
X2485Y86D03*
X2585Y86D03*
G54D12*
X1885Y86D03*
X1885Y186D03*
X285Y986D03*
X285Y786D03*
X2385Y986D03*
X2385Y786D03*
G54D14*
X985Y86D03*
X885Y86D03*
X785Y86D03*
X685Y86D03*
X985Y1686D03*
X885Y1686D03*
X785Y1686D03*
X685Y1686D03*
G54D11*
X2785Y986D03*
X2785Y786D03*
G54D12*
X2585Y386D03*
X2585Y786D03*
G54D14*
X1585Y86D03*
X1485Y86D03*
X1385Y86D03*
X1285Y86D03*
X1585Y1686D03*
X1485Y1686D03*
X1385Y1686D03*
X1285Y1686D03*
G54D15*
X2785Y1686D03*
X2785Y1386D03*
X2785Y586D03*
X2785Y286D03*
G54D16*
X1886Y1187D03*
G54D15*
X385Y86D03*
X1885Y1586D03*
X185Y1586D03*
X2085Y186D03*
X2485Y86D03*
G54D16*
X1885Y86D03*
X285Y986D03*
X2385Y986D03*
G54D15*
X2785Y986D03*
G04 End of Mask1*
M02*