; NON-PLATED HOLES START AT T1
; THROUGH (PLATED) HOLES START AT T100
M48
INCH
T100C0.039370
T101C0.043333
T102C0.030000
T103C0.035000
T104C0.043306
T105C0.040000
%
T100
X001850Y000856
X002850Y000856
T101
X008850Y013856
X001850Y013856
X009850Y003856
X008850Y003856
X001850Y003856
X002850Y013856
X019850Y003856
X007850Y013856
X011850Y003856
X012850Y013856
X013850Y003856
X002850Y003856
X006850Y013856
X003850Y013856
X010850Y013856
X005850Y003856
X018850Y003856
X009850Y013856
X017850Y013856
X014850Y003856
X016850Y003856
X012850Y003856
X015850Y013856
X018850Y013856
X011850Y013856
X013850Y013856
X019850Y013856
X005850Y013856
X004850Y013856
X016850Y013856
X003850Y003856
X015850Y003856
X014850Y013856
X017850Y003856
X010850Y003856
X006850Y003856
X004850Y003856
X007850Y003856
T102
X022850Y015856
X003850Y002856
X001850Y002856
X022850Y013856
T103
X021855Y009866
X018855Y005866
X018855Y010866
X024850Y011856
X021855Y011866
X023850Y007856
X025850Y009856
X002850Y009856
X018850Y001856
X021855Y006866
X021855Y007866
X024850Y005856
X025850Y003856
X024850Y015856
X002850Y007856
X018855Y009866
X021855Y010866
X018850Y000856
X025850Y013856
X024850Y001856
X018855Y007866
X025850Y007856
X018855Y006866
X021855Y008866
X018855Y008866
X023850Y009856
X018855Y011866
X021855Y005866
T104
X014850Y000856
X009850Y000856
X012850Y000856
X015850Y016856
X007850Y016856
X008850Y016856
X006850Y016856
X007850Y000856
X012850Y016856
X006850Y000856
X009850Y016856
X014850Y016856
X013850Y016856
X008850Y000856
X015850Y000856
X013850Y000856
T105
X025850Y000856
X001850Y015856
X002850Y015856
X027850Y016856
X027850Y009856
X022850Y001856
X027850Y005856
X027850Y013856
X024850Y000856
X027850Y002856
X027850Y003856
X027850Y000856
X027850Y004856
X018850Y015856
X019850Y015856
X020850Y015856
X027850Y001856
X027850Y014856
X027850Y007856
X027850Y011856
X003850Y015856
X027850Y012856
X020850Y001856
X021850Y001856
X027850Y015856
T00
M30
