<?xml version="1.0" encoding="UTF-8" standalone="no"?>
<!-- Created with Inkscape (http://www.inkscape.org/) -->

<svg
   xmlns:dc="http://purl.org/dc/elements/1.1/"
   xmlns:cc="http://creativecommons.org/ns#"
   xmlns:rdf="http://www.w3.org/1999/02/22-rdf-syntax-ns#"
   xmlns:svg="http://www.w3.org/2000/svg"
   xmlns="http://www.w3.org/2000/svg"
   xmlns:sodipodi="http://sodipodi.sourceforge.net/DTD/sodipodi-0.dtd"
   xmlns:inkscape="http://www.inkscape.org/namespaces/inkscape"
   width="75.590553"
   height="75.590553"
   viewBox="0 0 20 20"
   version="1.1"
   id="svg8"
   inkscape:version="0.92.3 (2405546, 2018-03-11)"
   sodipodi:docname="screenshot.svg">
  <defs
     id="defs2" />
  <sodipodi:namedview
     id="base"
     pagecolor="#ffffff"
     bordercolor="#666666"
     borderopacity="1.0"
     inkscape:pageopacity="0.0"
     inkscape:pageshadow="2"
     inkscape:zoom="11.2"
     inkscape:cx="19.308579"
     inkscape:cy="39.113958"
     inkscape:document-units="px"
     inkscape:current-layer="layer1"
     showgrid="false"
     units="px"
     inkscape:window-width="1920"
     inkscape:window-height="1147"
     inkscape:window-x="-8"
     inkscape:window-y="-8"
     inkscape:window-maximized="1"
     showguides="true"
     inkscape:guide-bbox="true" />
  <metadata
     id="metadata5">
    <rdf:RDF>
      <cc:Work
         rdf:about="">
        <dc:format>image/svg+xml</dc:format>
        <dc:type
           rdf:resource="http://purl.org/dc/dcmitype/StillImage" />
        <dc:title />
      </cc:Work>
    </rdf:RDF>
  </metadata>
  <g
     inkscape:label="Layer 1"
     inkscape:groupmode="layer"
     id="layer1"
     transform="translate(0,-277)">
    <path
       style="fill:#000000;fill-opacity:1;stroke:none;stroke-width:1.81745112;stroke-miterlimit:4;stroke-dasharray:none;stroke-dashoffset:0;stroke-opacity:1"
       d="M 18.175781 22.402344 C 15.377659 22.402344 13.125 24.655002 13.125 27.453125 L 13.125 49.630859 C 13.125 52.428982 15.377659 54.681641 18.175781 54.681641 L 55.898438 54.681641 C 58.69656 54.681641 60.949219 52.428982 60.949219 49.630859 L 60.949219 27.453125 C 60.949219 24.655002 58.69656 22.402344 55.898438 22.402344 L 18.175781 22.402344 z M 49.369141 28.544922 A 2.4343159 2.4343159 0 0 1 51.802734 30.978516 A 2.4343159 2.4343159 0 0 1 49.369141 33.414062 A 2.4343159 2.4343159 0 0 1 46.933594 30.978516 A 2.4343159 2.4343159 0 0 1 49.369141 28.544922 z M 36.558594 31.830078 A 8.4273754 8.4273754 0 0 1 44.986328 40.257812 A 8.4273754 8.4273754 0 0 1 36.558594 48.683594 A 8.4273754 8.4273754 0 0 1 28.130859 40.257812 A 8.4273754 8.4273754 0 0 1 36.558594 31.830078 z "
       transform="matrix(0.26458333,0,0,0.26458333,0,277)"
       id="rect815" />
    <path
       style="fill:#000000;fill-opacity:1;stroke:#000000;stroke-width:0.52916664;stroke-linecap:butt;stroke-linejoin:miter;stroke-miterlimit:4;stroke-dasharray:none;stroke-opacity:1"
       d="m 7.5826231,283.15042 0.4009044,-1.33634 h 3.4410955 l 0.350791,1.33634 z"
       id="path1395"
       inkscape:connector-curvature="0"
       sodipodi:nodetypes="ccccc" />
  </g>
</svg>
