G04 MADE WITH FRITZING*
G04 WWW.FRITZING.ORG*
G04 DOUBLE SIDED*
G04 HOLES PLATED*
G04 CONTOUR ON CENTER OF CONTOUR VECTOR*
%FSLAX26Y26*%
%MOIN*%
%ADD10C,0.076667*%
%ADD11C,0.080000*%
%ADD12C,0.075000*%
%ADD13C,0.079370*%
%ADD14C,0.070000*%
%ADD15C,0.075306*%
%ADD16R,0.080000X0.080000*%
%ADD17R,0.075000X0.075000*%
%ADD18R,0.079370X0.079370*%
%ADD19C,0.024000*%
%ADD20C,0.064000*%
G04 COPPER1*
%FSLAX26Y26*%
%MOIN*%
D10*
X185000Y385650D03*
X285000Y385650D03*
X385000Y385650D03*
X485000Y385650D03*
X585000Y385650D03*
X685000Y385650D03*
X785000Y385650D03*
X885000Y385650D03*
X985000Y385650D03*
X1085000Y385650D03*
X1185000Y385650D03*
X1285000Y385650D03*
X1385000Y385650D03*
X1485000Y385650D03*
X1585000Y385650D03*
X1685000Y385650D03*
X1785000Y385650D03*
X1885000Y385650D03*
X1985000Y385650D03*
X1985000Y1385651D03*
X1885000Y1385651D03*
X1785000Y1385651D03*
X1685000Y1385651D03*
X1585000Y1385651D03*
X1485000Y1385651D03*
X1385000Y1385651D03*
X1285000Y1385651D03*
X1185000Y1385651D03*
X1085000Y1385651D03*
X985000Y1385651D03*
X885000Y1385651D03*
X785000Y1385651D03*
X685000Y1385651D03*
X585000Y1385651D03*
X485000Y1385651D03*
X385000Y1385651D03*
X285000Y1385651D03*
X185000Y1385651D03*
X185000Y385650D03*
X285000Y385650D03*
X385000Y385650D03*
X485000Y385650D03*
X585000Y385650D03*
X685000Y385650D03*
X785000Y385650D03*
X885000Y385650D03*
X985000Y385650D03*
X1085000Y385650D03*
X1185000Y385650D03*
X1285000Y385650D03*
X1385000Y385650D03*
X1485000Y385650D03*
X1585000Y385650D03*
X1685000Y385650D03*
X1785000Y385650D03*
X1885000Y385650D03*
X1985000Y385650D03*
X1985000Y1385651D03*
X1885000Y1385651D03*
X1785000Y1385651D03*
X1685000Y1385651D03*
X1585000Y1385651D03*
X1485000Y1385651D03*
X1385000Y1385651D03*
X1285000Y1385651D03*
X1185000Y1385651D03*
X1085000Y1385651D03*
X985000Y1385651D03*
X885000Y1385651D03*
X785000Y1385651D03*
X685000Y1385651D03*
X585000Y1385651D03*
X485000Y1385651D03*
X385000Y1385651D03*
X285000Y1385651D03*
X185000Y1385651D03*
D11*
X2785000Y1685650D03*
X2785000Y1585650D03*
X2785000Y1485650D03*
X2785000Y1385650D03*
X2785000Y1285650D03*
X2785000Y1185650D03*
X2785000Y585650D03*
X2785000Y485650D03*
X2785000Y385650D03*
X2785000Y285650D03*
X2785000Y185650D03*
X2785000Y85650D03*
D12*
X1885580Y1186664D03*
X2185580Y1186664D03*
X1885580Y1086664D03*
X2185580Y1086664D03*
X1885580Y986664D03*
X2185580Y986664D03*
X1885580Y886664D03*
X2185580Y886664D03*
X1885580Y786664D03*
X2185580Y786664D03*
X1885580Y686660D03*
X2185580Y686660D03*
X1885580Y586660D03*
X2185580Y586660D03*
D13*
X285000Y85650D03*
X185000Y85650D03*
D14*
X2285000Y1385650D03*
X2285000Y1585650D03*
X185000Y285650D03*
X385000Y285650D03*
D11*
X1885000Y1585650D03*
X1985000Y1585650D03*
X2085000Y1585650D03*
D12*
X2485000Y585650D03*
X2485000Y185650D03*
X2585000Y1385650D03*
X2585000Y985650D03*
X2485000Y1585650D03*
X2485000Y1185650D03*
D11*
X185000Y1585650D03*
X285000Y1585650D03*
X385000Y1585650D03*
X2085000Y185650D03*
X2185000Y185650D03*
X2285000Y185650D03*
X2485000Y85650D03*
X2585000Y85650D03*
D12*
X1885000Y85650D03*
X1885000Y185650D03*
X285000Y985650D03*
X285000Y785650D03*
X2385000Y985650D03*
X2385000Y785650D03*
D15*
X985000Y85650D03*
X885000Y85650D03*
X785000Y85650D03*
X685000Y85650D03*
X985000Y1685650D03*
X885000Y1685650D03*
X785000Y1685650D03*
X685000Y1685650D03*
D11*
X2785000Y985650D03*
X2785000Y785650D03*
D12*
X2585000Y385650D03*
X2585000Y785650D03*
D15*
X1585000Y85650D03*
X1485000Y85650D03*
X1385000Y85650D03*
X1285000Y85650D03*
X1585000Y1685650D03*
X1485000Y1685650D03*
X1385000Y1685650D03*
X1285000Y1685650D03*
D16*
X2785000Y1685650D03*
X2785000Y1385650D03*
X2785000Y585650D03*
X2785000Y285650D03*
D17*
X1885580Y1186664D03*
D18*
X285000Y85645D03*
D16*
X1885000Y1585650D03*
X185000Y1585650D03*
X2085000Y185650D03*
X2485000Y85650D03*
D17*
X1885000Y85650D03*
X285000Y985650D03*
X2385000Y985650D03*
D16*
X2785000Y985650D03*
D19*
X184993Y407320D02*
X184899Y684530D01*
D02*
X184899Y684530D02*
X272688Y773213D01*
D02*
X185000Y300650D02*
X185000Y363980D01*
D02*
X2765000Y85650D02*
X2605000Y85650D01*
D20*
D02*
X2684910Y685690D02*
X2684910Y885682D01*
D02*
X2770850Y599790D02*
X2684920Y685690D01*
D02*
X2684910Y885682D02*
X2770850Y971517D01*
D02*
X2484920Y1085674D02*
X2397370Y998030D01*
D02*
X2684910Y1085674D02*
X2484920Y1085674D01*
D02*
X2770850Y999788D02*
X2684920Y1085675D01*
D02*
X2884910Y885682D02*
X2799140Y971504D01*
D02*
X2684910Y1085674D02*
X2770850Y999788D01*
D02*
X2884910Y1085674D02*
X2799140Y999800D01*
D02*
X2884910Y1685654D02*
X2805000Y1685651D01*
D02*
X2884910Y1085674D02*
X2884910Y1685653D01*
D02*
X2885130Y286630D02*
X2805000Y285850D01*
D02*
X2884910Y885682D02*
X2885130Y286630D01*
D19*
D02*
X686053Y986471D02*
X685038Y407320D01*
D02*
X285000Y985650D02*
X686053Y986471D01*
D02*
X685231Y363980D02*
X686053Y286830D01*
D02*
X686053Y286830D02*
X400000Y285710D01*
D02*
X1985820Y585420D02*
X2085350Y684950D01*
D02*
X2085340Y684950D02*
X2168080Y686370D01*
D02*
X1985820Y485880D02*
X1985820Y585410D01*
D02*
X1084180Y485880D02*
X1985820Y485880D01*
D02*
X1084820Y407320D02*
X1084180Y485880D01*
D02*
X2383940Y1487056D02*
X2383940Y1285066D01*
D02*
X2383940Y1285066D02*
X2197950Y1099040D01*
D02*
X2295630Y1575062D02*
X2383940Y1487056D01*
D02*
X2197980Y1199012D02*
X2284410Y1285065D01*
D02*
X2284410Y1285066D02*
X2284910Y1370651D01*
D02*
X2684930Y486840D02*
X2584830Y584440D01*
D02*
X2584830Y584440D02*
X2502500Y585440D01*
D02*
X2765000Y485890D02*
X2684930Y486830D01*
D02*
X2584920Y285710D02*
X2584990Y368150D01*
D02*
X2765000Y185830D02*
X2684930Y186530D01*
D02*
X2684930Y186530D02*
X2584920Y285700D01*
D02*
X1783820Y1285066D02*
X984643Y485890D01*
D02*
X1985820Y1285066D02*
X1783830Y1285066D01*
D02*
X2085340Y1185533D02*
X1985810Y1285065D01*
D02*
X2572670Y973236D02*
X2484730Y884737D01*
D02*
X2484730Y884738D02*
X2203080Y886552D01*
D02*
X2284530Y1685549D02*
X2684920Y1685654D01*
D02*
X2765000Y1685646D02*
X2284530Y1685549D01*
D20*
D02*
X2684910Y1085674D02*
X2684910Y1385663D01*
D02*
X2684910Y1385664D02*
X2765000Y1385653D01*
D19*
D02*
X1285000Y1685650D02*
X1286010Y1485346D01*
D02*
X1286010Y1485346D02*
X685406Y1485346D01*
D02*
X685406Y1485346D02*
X685044Y1663997D01*
D02*
X1285110Y1663997D02*
X1286010Y1485346D01*
D02*
X2384920Y285710D02*
X2484920Y285710D01*
D02*
X2299130Y199800D02*
X2384930Y285700D01*
D02*
X2584920Y185710D02*
X2584990Y105650D01*
D02*
X2484920Y285710D02*
X2584920Y185710D01*
D02*
X984643Y485890D02*
X984923Y407320D01*
D02*
X2168080Y986631D02*
X2085350Y986471D01*
D02*
X2085340Y986471D02*
X2085340Y1185534D01*
D02*
X84797Y984839D02*
X84797Y1485346D01*
D02*
X84797Y1485346D02*
X685406Y1485346D01*
D02*
X272594Y797993D02*
X84797Y984839D01*
D02*
X685406Y1485346D02*
X685044Y1663997D01*
D02*
X2184880Y1384597D02*
X2270000Y1385492D01*
D02*
X2085340Y1487056D02*
X2184880Y1384597D01*
D02*
X1286010Y1485346D02*
X2085350Y1487056D01*
D02*
X2284530Y1685549D02*
X2284930Y1600650D01*
D02*
X385554Y185650D02*
X298958Y99530D01*
D02*
X385083Y270650D02*
X385554Y185650D01*
D02*
X185000Y105330D02*
X185000Y270650D01*
D02*
X1885000Y363980D02*
X1885000Y203150D01*
D02*
X1385000Y363980D02*
X1385000Y107300D01*
D02*
X1463350Y85650D02*
X1406650Y85650D01*
D02*
X2284520Y1685549D02*
X1884110Y1685549D01*
D02*
X2285000Y1585650D02*
X2284530Y1685549D01*
D02*
X1884120Y1685549D02*
X1884830Y1605649D01*
D02*
X1984220Y884738D02*
X1903070Y886323D01*
D02*
X1898000Y598990D02*
X1984220Y684530D01*
D02*
X1984220Y684530D02*
X1984220Y884738D01*
D02*
X1984940Y1085674D02*
X1984230Y884738D01*
D02*
X1897850Y1174190D02*
X1984940Y1085675D01*
D02*
X1984220Y884738D02*
X1903070Y886323D01*
D02*
X1606650Y1685643D02*
X1884120Y1685549D01*
D02*
X1386120Y1285143D02*
X1084180Y986471D01*
D02*
X1084180Y986471D02*
X302500Y985668D01*
D02*
X1385240Y1363985D02*
X1386120Y1285143D01*
D02*
X2284520Y486840D02*
X2584830Y486840D01*
D02*
X2084320Y286630D02*
X2284530Y486830D01*
D02*
X2584820Y486840D02*
X2770890Y299830D01*
D02*
X2084870Y205650D02*
X2084320Y286630D01*
D02*
X1884120Y1685549D02*
X1884830Y1605649D01*
G04 End of Copper1*
M02*